<svg xmlns="http://www.w3.org/2000/svg" xmlns:xlink="http://www.w3.org/1999/xlink" width="500" zoomAndPan="magnify" viewBox="0 0 375 374.999991" height="500" preserveAspectRatio="xMidYMid meet" version="1.0"><defs><g/><clipPath id="79fa644b21"><path d="M 190.011719 149.847656 L 220 149.847656 L 220 206.097656 L 190.011719 206.097656 Z M 190.011719 149.847656 " clip-rule="nonzero"/></clipPath></defs><g fill="#a6a6a6" fill-opacity="1"><g transform="translate(47.554294, 190.515853)"><g><path d="M 5.03125 0 L 1.625 -3.421875 L 1.625 -8.9375 L 4.59375 -8.9375 L 4.59375 -4.4375 L 6.390625 -2.640625 L 11.25 -2.640625 L 13.046875 -4.4375 L 13.046875 -24.046875 L 16.015625 -24.046875 L 16.015625 -3.421875 L 12.59375 0 Z M 5.03125 0 "/></g></g></g><g fill="#a6a6a6" fill-opacity="1"><g transform="translate(66.381535, 190.515853)"><g><path d="M 5.703125 0 L 2.28125 -3.421875 L 2.28125 -13.640625 L 5.703125 -17.0625 L 13.796875 -17.0625 L 17.21875 -13.640625 L 17.21875 -3.421875 L 13.796875 0 Z M 6.953125 -2.28125 L 12.5625 -2.28125 L 14.359375 -4.078125 L 14.328125 -12.984375 L 12.5625 -14.78125 L 6.953125 -14.78125 L 5.15625 -12.984375 L 5.15625 -4.078125 Z M 6.953125 -2.28125 "/></g></g></g><g fill="#a6a6a6" fill-opacity="1"><g transform="translate(85.893997, 190.515853)"><g><path d="M 2.671875 0 L 2.671875 -17.0625 L 5.546875 -17.0625 L 5.546875 -14 L 8.515625 -17.0625 L 14.8125 -17.0625 L 18.203125 -13.640625 L 18.203125 0 L 15.328125 0 L 15.328125 -12.921875 L 13.609375 -14.78125 L 9.265625 -14.78125 L 5.546875 -11 L 5.546875 0 Z M 2.671875 0 "/></g></g></g><g fill="#a6a6a6" fill-opacity="1"><g transform="translate(106.613751, 190.515853)"><g><path d="M 4.53125 0 L 1.140625 -3.421875 L 1.140625 -7.3125 L 4.53125 -10.734375 L 13.21875 -10.734375 L 13.21875 -12.859375 L 11.453125 -14.65625 L 3.359375 -14.65625 L 3.359375 -17.0625 L 12.6875 -17.0625 L 16.078125 -13.640625 L 16.078125 0 L 13.21875 0 L 13.21875 -2.640625 L 10.578125 0 Z M 5.8125 -2.28125 L 9.859375 -2.28125 L 13.21875 -5.609375 L 13.21875 -8.484375 L 5.8125 -8.453125 L 4.015625 -6.6875 L 4.015625 -4.078125 Z M 5.8125 -2.28125 "/></g></g></g><g fill="#a6a6a6" fill-opacity="1"><g transform="translate(125.212585, 190.515853)"><g><path d="M 5.875 0 L 2.875 -2.96875 L 2.875 -14.78125 L 1.078125 -14.78125 L 1.078125 -17.0625 L 2.9375 -17.0625 L 3.65625 -21.4375 L 5.734375 -21.4375 L 5.734375 -17.0625 L 9.359375 -17.0625 L 9.359375 -14.78125 L 5.734375 -14.78125 L 5.734375 -3.984375 L 7.28125 -2.375 L 10.109375 -2.375 L 10.109375 0 Z M 5.875 0 "/></g></g></g><g fill="#a6a6a6" fill-opacity="1"><g transform="translate(136.143479, 190.515853)"><g><path d="M 2.671875 0 L 2.671875 -24.046875 L 5.546875 -24.046875 L 5.546875 -14.359375 L 8.15625 -17.0625 L 14.453125 -17.0625 L 17.84375 -13.640625 L 17.84375 0 L 14.96875 0 L 14.96875 -12.921875 L 13.25 -14.78125 L 8.90625 -14.78125 L 5.546875 -11.359375 L 5.546875 0 Z M 2.671875 0 "/></g></g></g><g fill="#a6a6a6" fill-opacity="1"><g transform="translate(156.504308, 190.515853)"><g><path d="M 4.53125 0 L 1.140625 -3.421875 L 1.140625 -7.3125 L 4.53125 -10.734375 L 13.21875 -10.734375 L 13.21875 -12.859375 L 11.453125 -14.65625 L 3.359375 -14.65625 L 3.359375 -17.0625 L 12.6875 -17.0625 L 16.078125 -13.640625 L 16.078125 0 L 13.21875 0 L 13.21875 -2.640625 L 10.578125 0 Z M 5.8125 -2.28125 L 9.859375 -2.28125 L 13.21875 -5.609375 L 13.21875 -8.484375 L 5.8125 -8.453125 L 4.015625 -6.6875 L 4.015625 -4.078125 Z M 5.8125 -2.28125 "/></g></g></g><g fill="#a6a6a6" fill-opacity="1"><g transform="translate(175.103143, 190.515853)"><g><path d="M 2.671875 0 L 2.671875 -17.0625 L 5.546875 -17.0625 L 5.546875 -14 L 8.515625 -17.0625 L 14.8125 -17.0625 L 18.203125 -13.640625 L 18.203125 0 L 15.328125 0 L 15.328125 -12.921875 L 13.609375 -14.78125 L 9.265625 -14.78125 L 5.546875 -11 L 5.546875 0 Z M 2.671875 0 "/></g></g></g><g fill="#a6a6a6" fill-opacity="1"><g transform="translate(195.822901, 190.515853)"><g/></g></g><g fill="#a6a6a6" fill-opacity="1"><g transform="translate(203.066657, 190.515853)"><g/></g></g><g fill="#a6a6a6" fill-opacity="1"><g transform="translate(210.310414, 190.515853)"><g/></g></g><g fill="#a6a6a6" fill-opacity="1"><g transform="translate(217.554171, 190.515853)"><g/></g></g><g fill="#a6a6a6" fill-opacity="1"><g transform="translate(224.797924, 190.515853)"><g><path d="M 2.671875 0 L 2.671875 -24.046875 L 5.546875 -24.046875 L 5.546875 -14.359375 L 8.15625 -17.0625 L 14.453125 -17.0625 L 17.84375 -13.640625 L 17.84375 0 L 14.96875 0 L 14.96875 -12.921875 L 13.25 -14.78125 L 8.90625 -14.78125 L 5.546875 -11.359375 L 5.546875 0 Z M 2.671875 0 "/></g></g></g><g fill="#a6a6a6" fill-opacity="1"><g transform="translate(245.158753, 190.515853)"><g><path d="M 4.53125 0 L 1.140625 -3.421875 L 1.140625 -7.3125 L 4.53125 -10.734375 L 13.21875 -10.734375 L 13.21875 -12.859375 L 11.453125 -14.65625 L 3.359375 -14.65625 L 3.359375 -17.0625 L 12.6875 -17.0625 L 16.078125 -13.640625 L 16.078125 0 L 13.21875 0 L 13.21875 -2.640625 L 10.578125 0 Z M 5.8125 -2.28125 L 9.859375 -2.28125 L 13.21875 -5.609375 L 13.21875 -8.484375 L 5.8125 -8.453125 L 4.015625 -6.6875 L 4.015625 -4.078125 Z M 5.8125 -2.28125 "/></g></g></g><g fill="#a6a6a6" fill-opacity="1"><g transform="translate(263.757587, 190.515853)"><g><path d="M 7.671875 0 L 0.421875 -17.0625 L 3.5625 -17.0625 L 9.0625 -2.875 L 9.8125 -2.875 L 15.296875 -17.0625 L 18.46875 -17.0625 L 11.21875 0 Z M 7.671875 0 "/></g></g></g><g fill="#a6a6a6" fill-opacity="1"><g transform="translate(282.650087, 190.515853)"><g><path d="M 5.703125 0 L 2.28125 -3.421875 L 2.28125 -13.640625 L 5.703125 -17.0625 L 13.3125 -17.0625 L 16.734375 -13.640625 L 16.734375 -7.46875 L 5.15625 -7.46875 L 5.15625 -4.171875 L 6.953125 -2.375 L 16.4375 -2.375 L 16.4375 0 Z M 5.15625 -9.75 L 13.859375 -9.75 L 13.859375 -12.984375 L 12.078125 -14.78125 L 6.953125 -14.78125 L 5.15625 -12.984375 Z M 5.15625 -9.75 "/></g></g></g><g fill="#a6a6a6" fill-opacity="1"><g transform="translate(301.673106, 190.515853)"><g><path d="M 1.734375 0 L 1.734375 -2.9375 L 12.359375 -14.65625 L 2.484375 -14.65625 L 2.484375 -17.0625 L 15.59375 -17.0625 L 15.59375 -14.125 L 4.953125 -2.375 L 15.859375 -2.375 L 15.859375 0 Z M 1.734375 0 "/></g></g></g><g fill="#a6a6a6" fill-opacity="1"><g transform="translate(150.965049, 213.944881)"><g><path d="M 1.578125 0 L 0.109375 -6.015625 L 0.890625 -6.015625 L 2.078125 -0.703125 L 2.25 -0.703125 L 3.375 -6.015625 L 4.046875 -6.015625 L 5.15625 -0.703125 L 5.34375 -0.703125 L 6.53125 -6.015625 L 7.3125 -6.015625 L 5.828125 0 L 4.671875 0 L 3.703125 -4.4375 L 2.75 0 Z M 1.578125 0 "/></g></g></g><g fill="#a6a6a6" fill-opacity="1"><g transform="translate(158.837071, 213.944881)"><g><path d="M 1.421875 0 L 0.578125 -0.859375 L 0.578125 -3.40625 L 1.421875 -4.265625 L 3.328125 -4.265625 L 4.1875 -3.40625 L 4.1875 -1.875 L 1.28125 -1.875 L 1.28125 -1.046875 L 1.734375 -0.59375 L 4.109375 -0.59375 L 4.109375 0 Z M 1.28125 -2.4375 L 3.46875 -2.4375 L 3.46875 -3.25 L 3.015625 -3.6875 L 1.734375 -3.6875 L 1.28125 -3.25 Z M 1.28125 -2.4375 "/></g></g></g><g fill="#a6a6a6" fill-opacity="1"><g transform="translate(164.052663, 213.944881)"><g><path d="M 0.671875 0 L 0.671875 -6.015625 L 1.390625 -6.015625 L 1.390625 -3.59375 L 2.046875 -4.265625 L 3.609375 -4.265625 L 4.46875 -3.40625 L 4.46875 -0.859375 L 3.609375 0 L 2.046875 0 L 1.390625 -0.671875 L 1.390625 0 Z M 2.234375 -0.578125 L 3.296875 -0.578125 L 3.75 -1.015625 L 3.75 -3.25 L 3.296875 -3.6875 L 2.234375 -3.6875 L 1.390625 -2.84375 L 1.390625 -1.421875 Z M 2.234375 -0.578125 "/></g></g></g><g fill="#a6a6a6" fill-opacity="1"><g transform="translate(169.545307, 213.944881)"><g/></g></g><g fill="#a6a6a6" fill-opacity="1"><g transform="translate(171.819271, 213.944881)"><g><path d="M 0.703125 0 L 0.703125 -6.015625 L 3.96875 -6.015625 L 5.21875 -4.75 L 5.21875 -1.265625 L 3.96875 0 Z M 1.453125 -0.65625 L 3.640625 -0.65625 L 4.484375 -1.515625 L 4.484375 -4.5 L 3.640625 -5.34375 L 1.453125 -5.34375 Z M 1.453125 -0.65625 "/></g></g></g><g fill="#a6a6a6" fill-opacity="1"><g transform="translate(178.028989, 213.944881)"><g><path d="M 1.421875 0 L 0.578125 -0.859375 L 0.578125 -3.40625 L 1.421875 -4.265625 L 3.328125 -4.265625 L 4.1875 -3.40625 L 4.1875 -1.875 L 1.28125 -1.875 L 1.28125 -1.046875 L 1.734375 -0.59375 L 4.109375 -0.59375 L 4.109375 0 Z M 1.28125 -2.4375 L 3.46875 -2.4375 L 3.46875 -3.25 L 3.015625 -3.6875 L 1.734375 -3.6875 L 1.28125 -3.25 Z M 1.28125 -2.4375 "/></g></g></g><g fill="#a6a6a6" fill-opacity="1"><g transform="translate(183.244582, 213.944881)"><g><path d="M 1.921875 0 L 0.109375 -4.265625 L 0.890625 -4.265625 L 2.265625 -0.71875 L 2.453125 -0.71875 L 3.828125 -4.265625 L 4.609375 -4.265625 L 2.8125 0 Z M 1.921875 0 "/></g></g></g><g fill="#a6a6a6" fill-opacity="1"><g transform="translate(188.427582, 213.944881)"><g><path d="M 1.421875 0 L 0.578125 -0.859375 L 0.578125 -3.40625 L 1.421875 -4.265625 L 3.328125 -4.265625 L 4.1875 -3.40625 L 4.1875 -1.875 L 1.28125 -1.875 L 1.28125 -1.046875 L 1.734375 -0.59375 L 4.109375 -0.59375 L 4.109375 0 Z M 1.28125 -2.4375 L 3.46875 -2.4375 L 3.46875 -3.25 L 3.015625 -3.6875 L 1.734375 -3.6875 L 1.28125 -3.25 Z M 1.28125 -2.4375 "/></g></g></g><g fill="#a6a6a6" fill-opacity="1"><g transform="translate(193.643176, 213.944881)"><g><path d="M 0.671875 0 L 0.671875 -6.015625 L 1.390625 -6.015625 L 1.390625 0 Z M 0.671875 0 "/></g></g></g><g fill="#a6a6a6" fill-opacity="1"><g transform="translate(196.153449, 213.944881)"><g><path d="M 1.421875 0 L 0.578125 -0.859375 L 0.578125 -3.40625 L 1.421875 -4.265625 L 3.453125 -4.265625 L 4.3125 -3.40625 L 4.3125 -0.859375 L 3.453125 0 Z M 1.734375 -0.578125 L 3.140625 -0.578125 L 3.59375 -1.015625 L 3.578125 -3.25 L 3.140625 -3.6875 L 1.734375 -3.6875 L 1.28125 -3.25 L 1.28125 -1.015625 Z M 1.734375 -0.578125 "/></g></g></g><g fill="#a6a6a6" fill-opacity="1"><g transform="translate(201.491271, 213.944881)"><g><path d="M 0.671875 1.53125 L 0.671875 -4.265625 L 1.390625 -4.265625 L 1.390625 -3.59375 L 2.046875 -4.265625 L 3.609375 -4.265625 L 4.46875 -3.40625 L 4.46875 -0.859375 L 3.609375 0 L 2.046875 0 L 1.390625 -0.671875 L 1.390625 1.53125 Z M 2.234375 -0.578125 L 3.296875 -0.578125 L 3.75 -1.015625 L 3.75 -3.25 L 3.296875 -3.6875 L 2.234375 -3.6875 L 1.390625 -2.84375 L 1.390625 -1.421875 Z M 2.234375 -0.578125 "/></g></g></g><g fill="#a6a6a6" fill-opacity="1"><g transform="translate(206.983916, 213.944881)"><g><path d="M 1.421875 0 L 0.578125 -0.859375 L 0.578125 -3.40625 L 1.421875 -4.265625 L 3.328125 -4.265625 L 4.1875 -3.40625 L 4.1875 -1.875 L 1.28125 -1.875 L 1.28125 -1.046875 L 1.734375 -0.59375 L 4.109375 -0.59375 L 4.109375 0 Z M 1.28125 -2.4375 L 3.46875 -2.4375 L 3.46875 -3.25 L 3.015625 -3.6875 L 1.734375 -3.6875 L 1.28125 -3.25 Z M 1.28125 -2.4375 "/></g></g></g><g fill="#a6a6a6" fill-opacity="1"><g transform="translate(212.19951, 213.944881)"><g><path d="M 0.671875 0 L 0.671875 -4.265625 L 1.390625 -4.265625 L 1.390625 -3.5 L 2.125 -4.265625 L 3.21875 -4.265625 L 3.21875 -3.546875 L 2.15625 -3.546875 L 1.390625 -2.75 L 1.390625 0 Z M 0.671875 0 "/></g></g></g><g clip-path="url(#79fa644b21)"><path fill="#a6a6a6" d="M 198.957031 158.050781 C 199.269531 158.183594 199.472656 158.390625 199.671875 158.585938 C 200.816406 159.71875 201.957031 160.851562 203.074219 162.015625 C 204.195312 163.183594 205.382812 164.285156 206.519531 165.441406 C 207.820312 166.765625 209.339844 167.851562 210.597656 169.21875 C 210.710938 169.34375 210.949219 169.480469 210.785156 169.652344 C 210.636719 169.8125 210.445312 169.621094 210.324219 169.503906 C 209.460938 168.691406 208.597656 167.878906 207.757812 167.042969 C 206.449219 165.746094 205.136719 164.453125 203.785156 163.199219 C 202.910156 162.386719 202.101562 161.5 201.269531 160.636719 C 200.59375 159.9375 199.929688 159.222656 199.261719 158.515625 C 199.148438 158.390625 199.007812 158.285156 198.957031 158.050781 Z M 200.386719 198.597656 C 201.058594 197.953125 201.730469 197.304688 202.402344 196.660156 C 204.839844 194.328125 207.082031 191.804688 209.476562 189.429688 C 209.917969 188.992188 210.332031 188.515625 210.699219 188.007812 C 210.761719 187.925781 210.847656 187.824219 210.753906 187.726562 C 210.640625 187.609375 210.53125 187.714844 210.453125 187.789062 C 210.226562 187.996094 209.996094 188.203125 209.800781 188.4375 C 207.511719 191.191406 204.804688 193.542969 202.398438 196.1875 C 201.652344 197.007812 200.855469 197.789062 200.152344 198.710938 C 200.292969 198.714844 200.335938 198.648438 200.386719 198.597656 Z M 219.40625 150.117188 C 219.359375 151.664062 219.296875 153.214844 219.269531 154.761719 C 219.238281 156.289062 219.328125 157.816406 219.445312 159.339844 C 219.554688 160.738281 219.511719 162.140625 219.535156 163.542969 C 219.546875 164.242188 219.578125 164.941406 219.605469 165.640625 C 219.613281 165.757812 219.574219 165.953125 219.726562 165.964844 C 219.917969 165.972656 219.871094 165.753906 219.886719 165.636719 C 219.9375 165.238281 219.917969 164.832031 219.878906 164.429688 C 219.71875 162.632812 219.679688 160.832031 219.714844 159.023438 C 219.773438 156.097656 219.636719 153.167969 219.585938 150.242188 C 219.582031 150.117188 219.59375 149.984375 219.496094 149.867188 C 219.40625 149.945312 219.410156 150.035156 219.40625 150.117188 Z M 190.355469 178.796875 C 191.558594 178.867188 192.765625 178.894531 193.972656 178.890625 C 196.386719 178.890625 198.792969 178.703125 201.207031 178.679688 C 202.933594 178.664062 204.65625 178.742188 206.378906 178.808594 C 206.566406 178.816406 206.761719 178.839844 206.941406 178.75 C 207 178.722656 207.058594 178.691406 207.054688 178.613281 C 207.046875 178.539062 206.988281 178.507812 206.925781 178.496094 C 206.839844 178.480469 206.757812 178.464844 206.671875 178.464844 C 205.679688 178.441406 204.683594 178.410156 203.691406 178.40625 C 202.050781 178.398438 200.414062 178.480469 198.773438 178.527344 C 196.933594 178.585938 195.09375 178.570312 193.253906 178.589844 C 192.183594 178.605469 191.117188 178.578125 190.011719 178.695312 C 190.144531 178.792969 190.25 178.789062 190.355469 178.796875 Z M 210.035156 154.476562 C 211.226562 157.652344 212.417969 160.832031 213.625 164.003906 C 213.949219 164.855469 214.328125 165.6875 214.6875 166.527344 C 214.738281 166.644531 214.792969 166.824219 214.96875 166.753906 C 215.140625 166.6875 215.035156 166.535156 215 166.421875 C 214.871094 165.996094 214.734375 165.570312 214.5625 165.160156 C 213.144531 161.820312 211.828125 158.441406 210.488281 155.070312 C 210.320312 154.640625 210.128906 154.21875 209.871094 153.828125 C 209.859375 154.070312 209.957031 154.269531 210.035156 154.476562 Z M 219.59375 205.90625 C 219.644531 204.046875 219.722656 202.191406 219.769531 200.335938 C 219.832031 197.929688 219.785156 195.519531 219.976562 193.113281 C 220.015625 192.628906 219.996094 192.136719 219.90625 191.65625 C 219.882812 191.539062 219.878906 191.367188 219.710938 191.371094 C 219.542969 191.378906 219.539062 191.550781 219.542969 191.667969 C 219.558594 192.433594 219.484375 193.195312 219.535156 193.960938 C 219.605469 195.136719 219.636719 196.316406 219.558594 197.492188 C 219.394531 199.949219 219.355469 202.410156 219.421875 204.875 C 219.433594 205.277344 219.429688 205.691406 219.574219 206.085938 C 219.582031 206.023438 219.589844 205.964844 219.59375 205.90625 Z M 196.628906 188.96875 C 198.515625 188.082031 200.445312 187.285156 202.367188 186.476562 C 204.035156 185.777344 205.71875 185.113281 207.390625 184.425781 C 207.605469 184.339844 207.808594 184.21875 208.015625 184.113281 C 208.089844 184.070312 208.164062 184.011719 208.132812 183.910156 C 208.09375 183.804688 207.996094 183.78125 207.894531 183.800781 C 207.8125 183.820312 207.734375 183.847656 207.65625 183.878906 C 207.25 184.058594 206.835938 184.230469 206.4375 184.421875 C 204.390625 185.417969 202.296875 186.308594 200.15625 187.085938 C 198.882812 187.546875 197.621094 188.042969 196.460938 188.757812 C 196.320312 188.847656 196.160156 188.917969 196.082031 189.105469 C 196.296875 189.144531 196.460938 189.042969 196.628906 188.96875 Z M 210.695312 202.097656 C 211.394531 200.183594 212.085938 198.269531 212.796875 196.359375 C 213.386719 194.769531 214.125 193.238281 214.765625 191.667969 C 214.890625 191.363281 214.996094 191.050781 215.074219 190.730469 C 215.097656 190.636719 215.09375 190.53125 214.984375 190.484375 C 214.859375 190.433594 214.789062 190.519531 214.742188 190.625 C 214.714844 190.683594 214.695312 190.742188 214.675781 190.804688 C 214.054688 192.6875 213.339844 194.535156 212.566406 196.363281 C 211.671875 198.484375 210.808594 200.617188 210.171875 202.835938 C 210.125 202.996094 210.050781 203.152344 210.105469 203.410156 C 210.378906 202.949219 210.539062 202.523438 210.695312 202.097656 Z M 195.402344 169.058594 C 196.074219 169.371094 196.769531 169.628906 197.464844 169.882812 C 199.621094 170.679688 201.777344 171.457031 203.929688 172.257812 C 205.179688 172.722656 206.414062 173.21875 207.664062 173.6875 C 207.808594 173.742188 208.050781 173.890625 208.128906 173.636719 C 208.203125 173.402344 207.941406 173.367188 207.78125 173.316406 C 206.910156 173.023438 206.023438 172.769531 205.160156 172.453125 C 202.417969 171.449219 199.683594 170.417969 196.945312 169.410156 C 196.335938 169.183594 195.730469 168.933594 195.054688 168.796875 C 195.144531 168.964844 195.28125 169 195.402344 169.058594 Z M 202.789062 166.164062 C 204.203125 167.230469 205.691406 168.191406 207.0625 169.3125 C 207.726562 169.855469 208.4375 170.335938 209.132812 170.835938 C 209.273438 170.9375 209.472656 171.152344 209.628906 170.949219 C 209.792969 170.738281 209.523438 170.621094 209.386719 170.515625 C 209.128906 170.3125 208.859375 170.125 208.582031 169.949219 C 207.644531 169.351562 206.695312 168.761719 205.832031 168.0625 C 204.738281 167.171875 203.589844 166.355469 202.4375 165.550781 C 202.171875 165.367188 201.914062 165.160156 201.566406 165.113281 C 201.925781 165.527344 202.363281 165.84375 202.789062 166.164062 Z M 217.230469 200.414062 C 217.488281 197.863281 217.757812 195.3125 218.179688 192.78125 C 218.246094 192.386719 218.339844 191.988281 218.300781 191.582031 C 218.292969 191.464844 218.289062 191.292969 218.113281 191.304688 C 217.964844 191.3125 217.960938 191.460938 217.945312 191.574219 C 217.871094 192.078125 217.785156 192.578125 217.742188 193.085938 C 217.574219 194.933594 217.324219 196.769531 217.113281 198.613281 C 217.011719 199.53125 217.046875 200.445312 217.117188 201.363281 C 217.160156 201.042969 217.199219 200.730469 217.230469 200.414062 Z M 205.25 160.480469 C 205.296875 160.550781 205.335938 160.625 205.390625 160.691406 C 206.214844 161.726562 207.035156 162.765625 207.863281 163.800781 C 208.371094 164.429688 208.894531 165.039062 209.394531 165.671875 C 209.976562 166.414062 210.542969 167.171875 211.121094 167.917969 C 211.292969 168.144531 211.488281 168.355469 211.71875 168.53125 C 211.796875 168.589844 211.882812 168.644531 211.972656 168.558594 C 212.0625 168.476562 212.023438 168.382812 211.972656 168.296875 C 211.9375 168.242188 211.898438 168.195312 211.855469 168.144531 C 211.511719 167.757812 211.15625 167.378906 210.824219 166.980469 C 210.011719 166.015625 209.171875 165.066406 208.414062 164.0625 C 207.609375 162.992188 206.761719 161.960938 205.863281 160.972656 C 205.6875 160.777344 205.53125 160.566406 205.367188 160.359375 C 205.328125 160.402344 205.289062 160.441406 205.25 160.480469 Z M 206.652344 196.539062 C 208.441406 194.203125 210.046875 191.730469 211.867188 189.414062 C 211.945312 189.316406 212 189.199219 212.054688 189.082031 C 212.09375 188.996094 212.121094 188.886719 212.011719 188.832031 C 211.898438 188.769531 211.839844 188.867188 211.785156 188.945312 C 211.574219 189.25 211.359375 189.554688 211.152344 189.859375 C 210.007812 191.566406 208.6875 193.148438 207.546875 194.859375 C 207.136719 195.46875 206.675781 196.050781 206.375 196.789062 C 206.539062 196.722656 206.589844 196.625 206.652344 196.539062 Z M 203.300781 192.484375 C 204.695312 191.414062 205.957031 190.183594 207.324219 189.082031 C 208.097656 188.457031 208.863281 187.824219 209.625 187.179688 C 209.746094 187.078125 209.984375 186.929688 209.816406 186.75 C 209.664062 186.582031 209.519531 186.820312 209.40625 186.917969 C 208.175781 187.988281 207.003906 189.132812 205.6875 190.09375 C 204.683594 190.824219 203.804688 191.664062 202.996094 192.671875 C 203.160156 192.636719 203.21875 192.542969 203.300781 192.484375 Z M 199.191406 176.113281 C 199.472656 176.160156 199.753906 176.226562 200.035156 176.246094 C 202.210938 176.398438 204.367188 176.699219 206.515625 177.058594 C 206.640625 177.078125 206.769531 177.082031 206.894531 177.078125 C 206.980469 177.074219 207.066406 177.039062 207.078125 176.9375 C 207.089844 176.832031 207.015625 176.78125 206.929688 176.761719 C 206.722656 176.714844 206.515625 176.65625 206.308594 176.628906 C 204.292969 176.398438 202.277344 176.167969 200.25 176.007812 C 199.878906 175.980469 199.503906 175.980469 199.09375 176.035156 C 199.148438 176.082031 199.167969 176.109375 199.191406 176.113281 Z M 199.972656 181.820312 C 200.980469 181.695312 201.972656 181.464844 202.972656 181.316406 C 204.113281 181.148438 205.257812 181.007812 206.398438 180.855469 C 206.554688 180.832031 206.710938 180.804688 206.863281 180.761719 C 206.980469 180.726562 207.136719 180.699219 207.117188 180.53125 C 207.097656 180.355469 206.9375 180.382812 206.816406 180.386719 C 206.710938 180.390625 206.605469 180.40625 206.5 180.425781 C 204.730469 180.738281 202.964844 181.042969 201.195312 181.367188 C 200.695312 181.457031 200.179688 181.519531 199.683594 181.765625 C 199.808594 181.867188 199.894531 181.828125 199.972656 181.820312 Z M 210.960938 195.214844 C 211.320312 194.527344 211.675781 193.84375 212.007812 193.144531 C 212.445312 192.222656 213.070312 191.410156 213.488281 190.480469 C 213.558594 190.324219 213.640625 190.175781 213.640625 190 C 213.640625 189.921875 213.632812 189.84375 213.546875 189.816406 C 213.464844 189.792969 213.398438 189.828125 213.355469 189.894531 C 213.25 190.066406 213.132812 190.234375 213.042969 190.410156 C 212.269531 191.953125 211.496094 193.5 210.734375 195.046875 C 210.636719 195.25 210.515625 195.457031 210.53125 195.71875 C 210.78125 195.621094 210.863281 195.402344 210.960938 195.214844 Z M 201.582031 173.886719 C 202.253906 174.070312 202.917969 174.289062 203.601562 174.429688 C 204.730469 174.667969 205.816406 175.078125 206.964844 175.222656 C 207.148438 175.242188 207.4375 175.371094 207.492188 175.121094 C 207.5625 174.828125 207.230469 174.824219 207.046875 174.800781 C 205.644531 174.640625 204.296875 174.21875 202.925781 173.910156 C 202.394531 173.792969 201.855469 173.746094 201.300781 173.773438 C 201.394531 173.8125 201.484375 173.859375 201.582031 173.886719 Z M 217.058594 156.738281 C 217.109375 157.210938 217.144531 157.6875 217.214844 158.15625 C 217.484375 159.867188 217.691406 161.582031 217.824219 163.308594 C 217.882812 164.089844 217.9375 164.875 218.105469 165.644531 C 218.132812 165.773438 218.144531 165.976562 218.308594 165.957031 C 218.503906 165.933594 218.40625 165.730469 218.390625 165.613281 C 218.265625 164.65625 218.113281 163.703125 218.003906 162.742188 C 217.816406 161.097656 217.621094 159.457031 217.363281 157.820312 C 217.304688 157.453125 217.203125 157.089844 217.121094 156.726562 C 217.101562 156.730469 217.078125 156.734375 217.058594 156.738281 Z M 203.246094 169.59375 C 204.226562 170.164062 205.261719 170.621094 206.234375 171.207031 C 206.828125 171.566406 207.460938 171.867188 208.082031 172.191406 C 208.210938 172.261719 208.347656 172.320312 208.5 172.332031 C 208.582031 172.335938 208.679688 172.34375 208.710938 172.242188 C 208.738281 172.152344 208.671875 172.097656 208.609375 172.0625 C 208.390625 171.933594 208.175781 171.800781 207.945312 171.691406 C 206.726562 171.105469 205.496094 170.539062 204.335938 169.835938 C 203.941406 169.597656 203.535156 169.359375 203.082031 169.230469 C 203.011719 169.210938 202.917969 169.140625 202.886719 169.296875 C 202.96875 169.4375 203.109375 169.515625 203.246094 169.59375 Z M 202.445312 184.292969 C 203.976562 183.839844 205.503906 183.390625 207.035156 182.933594 C 207.195312 182.886719 207.359375 182.835938 207.496094 182.734375 C 207.578125 182.671875 207.625 182.585938 207.578125 182.484375 C 207.539062 182.394531 207.449219 182.378906 207.359375 182.398438 C 207.238281 182.421875 207.113281 182.449219 206.992188 182.488281 C 205.460938 182.972656 203.964844 183.550781 202.457031 184.101562 C 202.34375 184.140625 202.207031 184.15625 202.148438 184.300781 C 202.253906 184.375 202.351562 184.320312 202.445312 184.292969 Z M 204.394531 188.320312 C 205.570312 187.542969 206.839844 186.921875 208.019531 186.152344 C 208.285156 185.976562 208.535156 185.785156 208.789062 185.59375 C 208.867188 185.535156 208.9375 185.445312 208.871094 185.347656 C 208.808594 185.246094 208.699219 185.273438 208.613281 185.316406 C 208.507812 185.367188 208.40625 185.425781 208.3125 185.492188 C 207.0625 186.351562 205.773438 187.144531 204.484375 187.933594 C 204.210938 188.101562 203.980469 188.3125 203.707031 188.621094 C 204.019531 188.546875 204.214844 188.441406 204.394531 188.320312 Z M 215.136719 196.414062 C 215.261719 196.445312 215.28125 196.308594 215.3125 196.230469 C 215.378906 196.0625 215.445312 195.894531 215.484375 195.71875 C 215.703125 194.6875 215.988281 193.679688 216.296875 192.675781 C 216.429688 192.25 216.515625 191.8125 216.609375 191.375 C 216.636719 191.25 216.671875 191.078125 216.484375 191.03125 C 216.289062 190.984375 216.230469 191.148438 216.1875 191.289062 C 216.140625 191.429688 216.109375 191.578125 216.085938 191.722656 C 215.921875 192.773438 215.695312 193.808594 215.390625 194.824219 C 215.257812 195.273438 215.136719 195.722656 215.078125 196.207031 C 215.113281 196.265625 215.035156 196.386719 215.136719 196.414062 Z M 215.480469 160.992188 C 215.480469 161.054688 215.472656 161.117188 215.480469 161.179688 C 215.675781 162.457031 215.867188 163.738281 216.066406 165.015625 C 216.125 165.394531 216.164062 165.777344 216.324219 166.128906 C 216.375 166.238281 216.421875 166.402344 216.582031 166.355469 C 216.742188 166.308594 216.691406 166.144531 216.671875 166.023438 C 216.480469 164.851562 216.261719 163.683594 215.964844 162.535156 C 215.828125 162.015625 215.679688 161.5 215.539062 160.980469 C 215.519531 160.984375 215.5 160.988281 215.480469 160.992188 Z M 211.128906 163.214844 C 211.726562 164.417969 212.324219 165.621094 212.933594 166.820312 C 213.035156 167.027344 213.183594 167.214844 213.3125 167.40625 C 213.367188 167.488281 213.441406 167.566406 213.546875 167.515625 C 213.675781 167.457031 213.632812 167.339844 213.597656 167.238281 C 213.578125 167.179688 213.546875 167.125 213.519531 167.066406 C 212.882812 165.710938 212.085938 164.453125 211.3125 163.175781 C 211.25 163.070312 211.195312 162.949219 211.046875 162.917969 C 211.007812 163.039062 211.085938 163.125 211.128906 163.214844 Z M 214.777344 198.136719 C 214.980469 198.136719 215.085938 198.011719 215.089844 197.8125 C 215.097656 197.640625 215.007812 197.527344 214.828125 197.527344 C 214.625 197.527344 214.535156 197.664062 214.503906 197.84375 C 214.515625 198.023438 214.605469 198.132812 214.777344 198.136719 Z M 209.628906 196.808594 C 209.636719 196.976562 209.742188 197.089844 209.914062 197.082031 C 210.097656 197.078125 210.207031 196.960938 210.203125 196.773438 C 210.203125 196.59375 210.089844 196.511719 209.914062 196.496094 C 209.734375 196.519531 209.625 196.621094 209.628906 196.808594 Z M 199.703125 173.367188 C 199.707031 173.535156 199.835938 173.632812 199.996094 173.644531 C 200.175781 173.660156 200.304688 173.566406 200.3125 173.378906 C 200.316406 173.203125 200.195312 173.121094 200.019531 173.101562 C 199.863281 173.125 199.703125 173.164062 199.703125 173.367188 Z M 214.496094 158.003906 C 214.507812 158.183594 214.601562 158.308594 214.789062 158.300781 C 214.96875 158.296875 215.046875 158.171875 215.039062 158.003906 C 215.027344 157.824219 214.933594 157.710938 214.734375 157.699219 C 214.570312 157.730469 214.484375 157.832031 214.496094 158.003906 Z M 198.101562 172.847656 C 198.113281 173.042969 198.246094 173.148438 198.441406 173.148438 C 198.601562 173.144531 198.695312 173.042969 198.691406 172.882812 C 198.6875 172.6875 198.546875 172.625 198.355469 172.613281 C 198.226562 172.632812 198.089844 172.671875 198.101562 172.847656 Z M 210.371094 161.550781 C 210.210938 161.550781 210.117188 161.652344 210.121094 161.816406 C 210.125 161.984375 210.214844 162.105469 210.390625 162.09375 C 210.550781 162.085938 210.621094 161.96875 210.632812 161.8125 C 210.609375 161.660156 210.53125 161.550781 210.371094 161.550781 Z M 199.75 185.246094 C 199.90625 185.25 200.015625 185.167969 200.027344 185.007812 C 200.042969 184.835938 199.945312 184.726562 199.773438 184.714844 C 199.597656 184.699219 199.5 184.796875 199.464844 184.980469 C 199.488281 185.132812 199.574219 185.242188 199.75 185.246094 Z M 202.8125 189.515625 C 202.988281 189.511719 203.082031 189.402344 203.082031 189.234375 C 203.078125 189.082031 202.984375 189 202.835938 189.003906 C 202.664062 189.007812 202.578125 189.113281 202.5625 189.28125 C 202.585938 189.429688 202.664062 189.519531 202.8125 189.515625 Z M 215.15625 159.847656 C 215.300781 159.847656 215.390625 159.761719 215.394531 159.613281 C 215.398438 159.453125 215.308594 159.351562 215.152344 159.34375 C 214.996094 159.332031 214.9375 159.441406 214.914062 159.582031 C 214.921875 159.734375 214.992188 159.847656 215.15625 159.847656 Z M 214.183594 199.378906 C 214.195312 199.527344 214.285156 199.613281 214.433594 199.601562 C 214.585938 199.589844 214.652344 199.484375 214.652344 199.339844 C 214.648438 199.191406 214.570312 199.105469 214.417969 199.097656 C 214.257812 199.125 214.171875 199.214844 214.183594 199.378906 Z M 209.441406 160.511719 C 209.441406 160.671875 209.53125 160.773438 209.699219 160.765625 C 209.835938 160.757812 209.902344 160.660156 209.898438 160.527344 C 209.894531 160.375 209.804688 160.300781 209.660156 160.285156 C 209.523438 160.300781 209.4375 160.375 209.441406 160.511719 Z M 200.789062 184.648438 C 200.792969 184.796875 200.886719 184.878906 201.035156 184.875 C 201.171875 184.871094 201.25 184.789062 201.25 184.65625 C 201.253906 184.507812 201.167969 184.425781 201.007812 184.402344 C 200.878906 184.425781 200.78125 184.496094 200.789062 184.648438 Z M 201.71875 168.839844 C 201.722656 168.972656 201.789062 169.0625 201.929688 169.070312 C 202.066406 169.082031 202.15625 169.003906 202.164062 168.871094 C 202.175781 168.71875 202.082031 168.640625 201.925781 168.613281 C 201.804688 168.632812 201.71875 168.699219 201.71875 168.839844 Z M 201.71875 168.839844 " fill-opacity="1" fill-rule="nonzero"/><path fill="#a6a6a6" d="M 198.957031 158.050781 C 199.269531 158.183594 199.472656 158.390625 199.671875 158.585938 C 200.816406 159.71875 201.957031 160.851562 203.074219 162.015625 C 204.195312 163.183594 205.382812 164.285156 206.519531 165.441406 C 207.820312 166.765625 209.339844 167.851562 210.597656 169.21875 C 210.710938 169.34375 210.949219 169.480469 210.785156 169.652344 C 210.636719 169.8125 210.445312 169.621094 210.324219 169.503906 C 209.460938 168.691406 208.597656 167.878906 207.757812 167.042969 C 206.449219 165.746094 205.136719 164.453125 203.785156 163.199219 C 202.910156 162.386719 202.101562 161.5 201.269531 160.636719 C 200.59375 159.9375 199.929688 159.222656 199.261719 158.515625 C 199.148438 158.390625 199.007812 158.285156 198.957031 158.050781 Z M 200.386719 198.597656 C 201.058594 197.953125 201.730469 197.304688 202.402344 196.660156 C 204.839844 194.328125 207.082031 191.804688 209.476562 189.429688 C 209.917969 188.992188 210.332031 188.515625 210.699219 188.007812 C 210.761719 187.925781 210.847656 187.824219 210.753906 187.726562 C 210.640625 187.609375 210.53125 187.714844 210.453125 187.789062 C 210.226562 187.996094 209.996094 188.203125 209.800781 188.4375 C 207.511719 191.191406 204.804688 193.542969 202.398438 196.1875 C 201.652344 197.007812 200.855469 197.789062 200.152344 198.710938 C 200.292969 198.714844 200.335938 198.648438 200.386719 198.597656 Z M 219.40625 150.117188 C 219.359375 151.664062 219.296875 153.214844 219.269531 154.761719 C 219.238281 156.289062 219.328125 157.816406 219.445312 159.339844 C 219.554688 160.738281 219.511719 162.140625 219.535156 163.542969 C 219.546875 164.242188 219.578125 164.941406 219.605469 165.640625 C 219.613281 165.757812 219.574219 165.953125 219.726562 165.964844 C 219.917969 165.972656 219.871094 165.753906 219.886719 165.636719 C 219.9375 165.238281 219.917969 164.832031 219.878906 164.429688 C 219.71875 162.632812 219.679688 160.832031 219.714844 159.023438 C 219.773438 156.097656 219.636719 153.167969 219.585938 150.242188 C 219.582031 150.117188 219.59375 149.984375 219.496094 149.867188 C 219.40625 149.945312 219.410156 150.035156 219.40625 150.117188 Z M 190.355469 178.796875 C 191.558594 178.867188 192.765625 178.894531 193.972656 178.890625 C 196.386719 178.890625 198.792969 178.703125 201.207031 178.679688 C 202.933594 178.664062 204.65625 178.742188 206.378906 178.808594 C 206.566406 178.816406 206.761719 178.839844 206.941406 178.75 C 207 178.722656 207.058594 178.691406 207.054688 178.613281 C 207.046875 178.539062 206.988281 178.507812 206.925781 178.496094 C 206.839844 178.480469 206.757812 178.464844 206.671875 178.464844 C 205.679688 178.441406 204.683594 178.410156 203.691406 178.40625 C 202.050781 178.398438 200.414062 178.480469 198.773438 178.527344 C 196.933594 178.585938 195.09375 178.570312 193.253906 178.589844 C 192.183594 178.605469 191.117188 178.578125 190.011719 178.695312 C 190.144531 178.792969 190.25 178.789062 190.355469 178.796875 Z M 210.035156 154.476562 C 211.226562 157.652344 212.417969 160.832031 213.625 164.003906 C 213.949219 164.855469 214.328125 165.6875 214.6875 166.527344 C 214.738281 166.644531 214.792969 166.824219 214.96875 166.753906 C 215.140625 166.6875 215.035156 166.535156 215 166.421875 C 214.871094 165.996094 214.734375 165.570312 214.5625 165.160156 C 213.144531 161.820312 211.828125 158.441406 210.488281 155.070312 C 210.320312 154.640625 210.128906 154.21875 209.871094 153.828125 C 209.859375 154.070312 209.957031 154.269531 210.035156 154.476562 Z M 219.59375 205.90625 C 219.644531 204.046875 219.722656 202.191406 219.769531 200.335938 C 219.832031 197.929688 219.785156 195.519531 219.976562 193.113281 C 220.015625 192.628906 219.996094 192.136719 219.90625 191.65625 C 219.882812 191.539062 219.878906 191.367188 219.710938 191.371094 C 219.542969 191.378906 219.539062 191.550781 219.542969 191.667969 C 219.558594 192.433594 219.484375 193.195312 219.535156 193.960938 C 219.605469 195.136719 219.636719 196.316406 219.558594 197.492188 C 219.394531 199.949219 219.355469 202.410156 219.421875 204.875 C 219.433594 205.277344 219.429688 205.691406 219.574219 206.085938 C 219.582031 206.023438 219.589844 205.964844 219.59375 205.90625 Z M 196.628906 188.96875 C 198.515625 188.082031 200.445312 187.285156 202.367188 186.476562 C 204.035156 185.777344 205.71875 185.113281 207.390625 184.425781 C 207.605469 184.339844 207.808594 184.21875 208.015625 184.113281 C 208.089844 184.070312 208.164062 184.011719 208.132812 183.910156 C 208.09375 183.804688 207.996094 183.78125 207.894531 183.800781 C 207.8125 183.820312 207.734375 183.847656 207.65625 183.878906 C 207.25 184.058594 206.835938 184.230469 206.4375 184.421875 C 204.390625 185.417969 202.296875 186.308594 200.15625 187.085938 C 198.882812 187.546875 197.621094 188.042969 196.460938 188.757812 C 196.320312 188.847656 196.160156 188.917969 196.082031 189.105469 C 196.296875 189.144531 196.460938 189.042969 196.628906 188.96875 Z M 210.695312 202.097656 C 211.394531 200.183594 212.085938 198.269531 212.796875 196.359375 C 213.386719 194.769531 214.125 193.238281 214.765625 191.667969 C 214.890625 191.363281 214.996094 191.050781 215.074219 190.730469 C 215.097656 190.636719 215.09375 190.53125 214.984375 190.484375 C 214.859375 190.433594 214.789062 190.519531 214.742188 190.625 C 214.714844 190.683594 214.695312 190.742188 214.675781 190.804688 C 214.054688 192.6875 213.339844 194.535156 212.566406 196.363281 C 211.671875 198.484375 210.808594 200.617188 210.171875 202.835938 C 210.125 202.996094 210.050781 203.152344 210.105469 203.410156 C 210.378906 202.949219 210.539062 202.523438 210.695312 202.097656 Z M 195.402344 169.058594 C 196.074219 169.371094 196.769531 169.628906 197.464844 169.882812 C 199.621094 170.679688 201.777344 171.457031 203.929688 172.257812 C 205.179688 172.722656 206.414062 173.21875 207.664062 173.6875 C 207.808594 173.742188 208.050781 173.890625 208.128906 173.636719 C 208.203125 173.402344 207.941406 173.367188 207.78125 173.316406 C 206.910156 173.023438 206.023438 172.769531 205.160156 172.453125 C 202.417969 171.449219 199.683594 170.417969 196.945312 169.410156 C 196.335938 169.183594 195.730469 168.933594 195.054688 168.796875 C 195.144531 168.964844 195.28125 169 195.402344 169.058594 Z M 202.789062 166.164062 C 204.203125 167.230469 205.691406 168.191406 207.0625 169.3125 C 207.726562 169.855469 208.4375 170.335938 209.132812 170.835938 C 209.273438 170.9375 209.472656 171.152344 209.628906 170.949219 C 209.792969 170.738281 209.523438 170.621094 209.386719 170.515625 C 209.128906 170.3125 208.859375 170.125 208.582031 169.949219 C 207.644531 169.351562 206.695312 168.761719 205.832031 168.0625 C 204.738281 167.171875 203.589844 166.355469 202.4375 165.550781 C 202.171875 165.367188 201.914062 165.160156 201.566406 165.113281 C 201.925781 165.527344 202.363281 165.84375 202.789062 166.164062 Z M 217.230469 200.414062 C 217.488281 197.863281 217.757812 195.3125 218.179688 192.78125 C 218.246094 192.386719 218.339844 191.988281 218.300781 191.582031 C 218.292969 191.464844 218.289062 191.292969 218.113281 191.304688 C 217.964844 191.3125 217.960938 191.460938 217.945312 191.574219 C 217.871094 192.078125 217.785156 192.578125 217.742188 193.085938 C 217.574219 194.933594 217.324219 196.769531 217.113281 198.613281 C 217.011719 199.53125 217.046875 200.445312 217.117188 201.363281 C 217.160156 201.042969 217.199219 200.730469 217.230469 200.414062 Z M 205.25 160.480469 C 205.296875 160.550781 205.335938 160.625 205.390625 160.691406 C 206.214844 161.726562 207.035156 162.765625 207.863281 163.800781 C 208.371094 164.429688 208.894531 165.039062 209.394531 165.671875 C 209.976562 166.414062 210.542969 167.171875 211.121094 167.917969 C 211.292969 168.144531 211.488281 168.355469 211.71875 168.53125 C 211.796875 168.589844 211.882812 168.644531 211.972656 168.558594 C 212.0625 168.476562 212.023438 168.382812 211.972656 168.296875 C 211.9375 168.242188 211.898438 168.195312 211.855469 168.144531 C 211.511719 167.757812 211.15625 167.378906 210.824219 166.980469 C 210.011719 166.015625 209.171875 165.066406 208.414062 164.0625 C 207.609375 162.992188 206.761719 161.960938 205.863281 160.972656 C 205.6875 160.777344 205.53125 160.566406 205.367188 160.359375 C 205.328125 160.402344 205.289062 160.441406 205.25 160.480469 Z M 206.652344 196.539062 C 208.441406 194.203125 210.046875 191.730469 211.867188 189.414062 C 211.945312 189.316406 212 189.199219 212.054688 189.082031 C 212.09375 188.996094 212.121094 188.886719 212.011719 188.832031 C 211.898438 188.769531 211.839844 188.867188 211.785156 188.945312 C 211.574219 189.25 211.359375 189.554688 211.152344 189.859375 C 210.007812 191.566406 208.6875 193.148438 207.546875 194.859375 C 207.136719 195.46875 206.675781 196.050781 206.375 196.789062 C 206.539062 196.722656 206.589844 196.625 206.652344 196.539062 Z M 203.300781 192.484375 C 204.695312 191.414062 205.957031 190.183594 207.324219 189.082031 C 208.097656 188.457031 208.863281 187.824219 209.625 187.179688 C 209.746094 187.078125 209.984375 186.929688 209.816406 186.75 C 209.664062 186.582031 209.519531 186.820312 209.40625 186.917969 C 208.175781 187.988281 207.003906 189.132812 205.6875 190.09375 C 204.683594 190.824219 203.804688 191.664062 202.996094 192.671875 C 203.160156 192.636719 203.21875 192.542969 203.300781 192.484375 Z M 199.191406 176.113281 C 199.472656 176.160156 199.753906 176.226562 200.035156 176.246094 C 202.210938 176.398438 204.367188 176.699219 206.515625 177.058594 C 206.640625 177.078125 206.769531 177.082031 206.894531 177.078125 C 206.980469 177.074219 207.066406 177.039062 207.078125 176.9375 C 207.089844 176.832031 207.015625 176.78125 206.929688 176.761719 C 206.722656 176.714844 206.515625 176.65625 206.308594 176.628906 C 204.292969 176.398438 202.277344 176.167969 200.25 176.007812 C 199.878906 175.980469 199.503906 175.980469 199.09375 176.035156 C 199.148438 176.082031 199.167969 176.109375 199.191406 176.113281 Z M 199.972656 181.820312 C 200.980469 181.695312 201.972656 181.464844 202.972656 181.316406 C 204.113281 181.148438 205.257812 181.007812 206.398438 180.855469 C 206.554688 180.832031 206.710938 180.804688 206.863281 180.761719 C 206.980469 180.726562 207.136719 180.699219 207.117188 180.53125 C 207.097656 180.355469 206.9375 180.382812 206.816406 180.386719 C 206.710938 180.390625 206.605469 180.40625 206.5 180.425781 C 204.730469 180.738281 202.964844 181.042969 201.195312 181.367188 C 200.695312 181.457031 200.179688 181.519531 199.683594 181.765625 C 199.808594 181.867188 199.894531 181.828125 199.972656 181.820312 Z M 210.960938 195.214844 C 211.320312 194.527344 211.675781 193.84375 212.007812 193.144531 C 212.445312 192.222656 213.070312 191.410156 213.488281 190.480469 C 213.558594 190.324219 213.640625 190.175781 213.640625 190 C 213.640625 189.921875 213.632812 189.84375 213.546875 189.816406 C 213.464844 189.792969 213.398438 189.828125 213.355469 189.894531 C 213.25 190.066406 213.132812 190.234375 213.042969 190.410156 C 212.269531 191.953125 211.496094 193.5 210.734375 195.046875 C 210.636719 195.25 210.515625 195.457031 210.53125 195.71875 C 210.78125 195.621094 210.863281 195.402344 210.960938 195.214844 Z M 201.582031 173.886719 C 202.253906 174.070312 202.917969 174.289062 203.601562 174.429688 C 204.730469 174.667969 205.816406 175.078125 206.964844 175.222656 C 207.148438 175.242188 207.4375 175.371094 207.492188 175.121094 C 207.5625 174.828125 207.230469 174.824219 207.046875 174.800781 C 205.644531 174.640625 204.296875 174.21875 202.925781 173.910156 C 202.394531 173.792969 201.855469 173.746094 201.300781 173.773438 C 201.394531 173.8125 201.484375 173.859375 201.582031 173.886719 Z M 217.058594 156.738281 C 217.109375 157.210938 217.144531 157.6875 217.214844 158.15625 C 217.484375 159.867188 217.691406 161.582031 217.824219 163.308594 C 217.882812 164.089844 217.9375 164.875 218.105469 165.644531 C 218.132812 165.773438 218.144531 165.976562 218.308594 165.957031 C 218.503906 165.933594 218.40625 165.730469 218.390625 165.613281 C 218.265625 164.65625 218.113281 163.703125 218.003906 162.742188 C 217.816406 161.097656 217.621094 159.457031 217.363281 157.820312 C 217.304688 157.453125 217.203125 157.089844 217.121094 156.726562 C 217.101562 156.730469 217.078125 156.734375 217.058594 156.738281 Z M 203.246094 169.59375 C 204.226562 170.164062 205.261719 170.621094 206.234375 171.207031 C 206.828125 171.566406 207.460938 171.867188 208.082031 172.191406 C 208.210938 172.261719 208.347656 172.320312 208.5 172.332031 C 208.582031 172.335938 208.679688 172.34375 208.710938 172.242188 C 208.738281 172.152344 208.671875 172.097656 208.609375 172.0625 C 208.390625 171.933594 208.175781 171.800781 207.945312 171.691406 C 206.726562 171.105469 205.496094 170.539062 204.335938 169.835938 C 203.941406 169.597656 203.535156 169.359375 203.082031 169.230469 C 203.011719 169.210938 202.917969 169.140625 202.886719 169.296875 C 202.96875 169.4375 203.109375 169.515625 203.246094 169.59375 Z M 202.445312 184.292969 C 203.976562 183.839844 205.503906 183.390625 207.035156 182.933594 C 207.195312 182.886719 207.359375 182.835938 207.496094 182.734375 C 207.578125 182.671875 207.625 182.585938 207.578125 182.484375 C 207.539062 182.394531 207.449219 182.378906 207.359375 182.398438 C 207.238281 182.421875 207.113281 182.449219 206.992188 182.488281 C 205.460938 182.972656 203.964844 183.550781 202.457031 184.101562 C 202.34375 184.140625 202.207031 184.15625 202.148438 184.300781 C 202.253906 184.375 202.351562 184.320312 202.445312 184.292969 Z M 204.394531 188.320312 C 205.570312 187.542969 206.839844 186.921875 208.019531 186.152344 C 208.285156 185.976562 208.535156 185.785156 208.789062 185.59375 C 208.867188 185.535156 208.9375 185.445312 208.871094 185.347656 C 208.808594 185.246094 208.699219 185.273438 208.613281 185.316406 C 208.507812 185.367188 208.40625 185.425781 208.3125 185.492188 C 207.0625 186.351562 205.773438 187.144531 204.484375 187.933594 C 204.210938 188.101562 203.980469 188.3125 203.707031 188.621094 C 204.019531 188.546875 204.214844 188.441406 204.394531 188.320312 Z M 215.136719 196.414062 C 215.261719 196.445312 215.28125 196.308594 215.3125 196.230469 C 215.378906 196.0625 215.445312 195.894531 215.484375 195.71875 C 215.703125 194.6875 215.988281 193.679688 216.296875 192.675781 C 216.429688 192.25 216.515625 191.8125 216.609375 191.375 C 216.636719 191.25 216.671875 191.078125 216.484375 191.03125 C 216.289062 190.984375 216.230469 191.148438 216.1875 191.289062 C 216.140625 191.429688 216.109375 191.578125 216.085938 191.722656 C 215.921875 192.773438 215.695312 193.808594 215.390625 194.824219 C 215.257812 195.273438 215.136719 195.722656 215.078125 196.207031 C 215.113281 196.265625 215.035156 196.386719 215.136719 196.414062 Z M 215.480469 160.992188 C 215.480469 161.054688 215.472656 161.117188 215.480469 161.179688 C 215.675781 162.457031 215.867188 163.738281 216.066406 165.015625 C 216.125 165.394531 216.164062 165.777344 216.324219 166.128906 C 216.375 166.238281 216.421875 166.402344 216.582031 166.355469 C 216.742188 166.308594 216.691406 166.144531 216.671875 166.023438 C 216.480469 164.851562 216.261719 163.683594 215.964844 162.535156 C 215.828125 162.015625 215.679688 161.5 215.539062 160.980469 C 215.519531 160.984375 215.5 160.988281 215.480469 160.992188 Z M 211.128906 163.214844 C 211.726562 164.417969 212.324219 165.621094 212.933594 166.820312 C 213.035156 167.027344 213.183594 167.214844 213.3125 167.40625 C 213.367188 167.488281 213.441406 167.566406 213.546875 167.515625 C 213.675781 167.457031 213.632812 167.339844 213.597656 167.238281 C 213.578125 167.179688 213.546875 167.125 213.519531 167.066406 C 212.882812 165.710938 212.085938 164.453125 211.3125 163.175781 C 211.25 163.070312 211.195312 162.949219 211.046875 162.917969 C 211.007812 163.039062 211.085938 163.125 211.128906 163.214844 Z M 214.777344 198.136719 C 214.980469 198.136719 215.085938 198.011719 215.089844 197.8125 C 215.097656 197.640625 215.007812 197.527344 214.828125 197.527344 C 214.625 197.527344 214.535156 197.664062 214.503906 197.84375 C 214.515625 198.023438 214.605469 198.132812 214.777344 198.136719 Z M 209.628906 196.808594 C 209.636719 196.976562 209.742188 197.089844 209.914062 197.082031 C 210.097656 197.078125 210.207031 196.960938 210.203125 196.773438 C 210.203125 196.59375 210.089844 196.511719 209.914062 196.496094 C 209.734375 196.519531 209.625 196.621094 209.628906 196.808594 Z M 199.703125 173.367188 C 199.707031 173.535156 199.835938 173.632812 199.996094 173.644531 C 200.175781 173.660156 200.304688 173.566406 200.3125 173.378906 C 200.316406 173.203125 200.195312 173.121094 200.019531 173.101562 C 199.863281 173.125 199.703125 173.164062 199.703125 173.367188 Z M 214.496094 158.003906 C 214.507812 158.183594 214.601562 158.308594 214.789062 158.300781 C 214.96875 158.296875 215.046875 158.171875 215.039062 158.003906 C 215.027344 157.824219 214.933594 157.710938 214.734375 157.699219 C 214.570312 157.730469 214.484375 157.832031 214.496094 158.003906 Z M 198.101562 172.847656 C 198.113281 173.042969 198.246094 173.148438 198.441406 173.148438 C 198.601562 173.144531 198.695312 173.042969 198.691406 172.882812 C 198.6875 172.6875 198.546875 172.625 198.355469 172.613281 C 198.226562 172.632812 198.089844 172.671875 198.101562 172.847656 Z M 210.371094 161.550781 C 210.210938 161.550781 210.117188 161.652344 210.121094 161.816406 C 210.125 161.984375 210.214844 162.105469 210.390625 162.09375 C 210.550781 162.085938 210.621094 161.96875 210.632812 161.8125 C 210.609375 161.660156 210.53125 161.550781 210.371094 161.550781 Z M 199.75 185.246094 C 199.90625 185.25 200.015625 185.167969 200.027344 185.007812 C 200.042969 184.835938 199.945312 184.726562 199.773438 184.714844 C 199.597656 184.699219 199.5 184.796875 199.464844 184.980469 C 199.488281 185.132812 199.574219 185.242188 199.75 185.246094 Z M 202.8125 189.515625 C 202.988281 189.511719 203.082031 189.402344 203.082031 189.234375 C 203.078125 189.082031 202.984375 189 202.835938 189.003906 C 202.664062 189.007812 202.578125 189.113281 202.5625 189.28125 C 202.585938 189.429688 202.664062 189.519531 202.8125 189.515625 Z M 215.15625 159.847656 C 215.300781 159.847656 215.390625 159.761719 215.394531 159.613281 C 215.398438 159.453125 215.308594 159.351562 215.152344 159.34375 C 214.996094 159.332031 214.9375 159.441406 214.914062 159.582031 C 214.921875 159.734375 214.992188 159.847656 215.15625 159.847656 Z M 214.183594 199.378906 C 214.195312 199.527344 214.285156 199.613281 214.433594 199.601562 C 214.585938 199.589844 214.652344 199.484375 214.652344 199.339844 C 214.648438 199.191406 214.570312 199.105469 214.417969 199.097656 C 214.257812 199.125 214.171875 199.214844 214.183594 199.378906 Z M 209.441406 160.511719 C 209.441406 160.671875 209.53125 160.773438 209.699219 160.765625 C 209.835938 160.757812 209.902344 160.660156 209.898438 160.527344 C 209.894531 160.375 209.804688 160.300781 209.660156 160.285156 C 209.523438 160.300781 209.4375 160.375 209.441406 160.511719 Z M 200.789062 184.648438 C 200.792969 184.796875 200.886719 184.878906 201.035156 184.875 C 201.171875 184.871094 201.25 184.789062 201.25 184.65625 C 201.253906 184.507812 201.167969 184.425781 201.007812 184.402344 C 200.878906 184.425781 200.78125 184.496094 200.789062 184.648438 Z M 201.71875 168.839844 C 201.722656 168.972656 201.789062 169.0625 201.929688 169.070312 C 202.066406 169.082031 202.15625 169.003906 202.164062 168.871094 C 202.175781 168.71875 202.082031 168.640625 201.925781 168.613281 C 201.804688 168.632812 201.71875 168.699219 201.71875 168.839844 Z M 201.71875 168.839844 " fill-opacity="1" fill-rule="nonzero"/></g><g fill="#a6a6a6" fill-opacity="1"><g transform="translate(162.481665, 249.484964)"><g/></g></g></svg>