<svg xmlns="http://www.w3.org/2000/svg" xmlns:xlink="http://www.w3.org/1999/xlink" width="300" zoomAndPan="magnify" viewBox="0 0 224.87999 149.999998" height="200" preserveAspectRatio="xMidYMid meet" version="1.0"><defs><g/><clipPath id="c4896971e2"><path d="M 113.777344 54.925781 L 130.269531 54.925781 L 130.269531 84.910156 L 113.777344 84.910156 Z M 113.777344 54.925781 " clip-rule="nonzero"/></clipPath></defs><g fill="#a6a6a6" fill-opacity="1"><g transform="translate(37.842095, 76.607608)"><g><path d="M 2.671875 0 L 0.875 -1.828125 L 0.875 -4.765625 L 2.453125 -4.765625 L 2.453125 -2.359375 L 3.40625 -1.40625 L 6 -1.40625 L 6.953125 -2.359375 L 6.953125 -12.8125 L 8.53125 -12.8125 L 8.53125 -1.828125 L 6.71875 0 Z M 2.671875 0 "/></g></g></g><g fill="#a6a6a6" fill-opacity="1"><g transform="translate(47.877934, 76.607608)"><g><path d="M 3.046875 0 L 1.21875 -1.828125 L 1.21875 -7.265625 L 3.046875 -9.09375 L 7.359375 -9.09375 L 9.1875 -7.265625 L 9.1875 -1.828125 L 7.359375 0 Z M 3.703125 -1.21875 L 6.703125 -1.21875 L 7.65625 -2.171875 L 7.640625 -6.921875 L 6.703125 -7.875 L 3.703125 -7.875 L 2.75 -6.921875 L 2.75 -2.171875 Z M 3.703125 -1.21875 "/></g></g></g><g fill="#a6a6a6" fill-opacity="1"><g transform="translate(58.27903, 76.607608)"><g><path d="M 1.421875 0 L 1.421875 -9.09375 L 2.953125 -9.09375 L 2.953125 -7.453125 L 4.53125 -9.09375 L 7.890625 -9.09375 L 9.703125 -7.265625 L 9.703125 0 L 8.171875 0 L 8.171875 -6.890625 L 7.25 -7.875 L 4.9375 -7.875 L 2.953125 -5.859375 L 2.953125 0 Z M 1.421875 0 "/></g></g></g><g fill="#a6a6a6" fill-opacity="1"><g transform="translate(69.323672, 76.607608)"><g><path d="M 2.421875 0 L 0.609375 -1.828125 L 0.609375 -3.890625 L 2.421875 -5.71875 L 7.046875 -5.71875 L 7.046875 -6.859375 L 6.109375 -7.8125 L 1.796875 -7.8125 L 1.796875 -9.09375 L 6.765625 -9.09375 L 8.578125 -7.265625 L 8.578125 0 L 7.046875 0 L 7.046875 -1.40625 L 5.640625 0 Z M 3.09375 -1.21875 L 5.25 -1.21875 L 7.046875 -2.984375 L 7.046875 -4.515625 L 3.09375 -4.5 L 2.140625 -3.5625 L 2.140625 -2.171875 Z M 3.09375 -1.21875 "/></g></g></g><g fill="#a6a6a6" fill-opacity="1"><g transform="translate(79.237759, 76.607608)"><g><path d="M 3.125 0 L 1.53125 -1.578125 L 1.53125 -7.875 L 0.578125 -7.875 L 0.578125 -9.09375 L 1.5625 -9.09375 L 1.953125 -11.421875 L 3.0625 -11.421875 L 3.0625 -9.09375 L 4.984375 -9.09375 L 4.984375 -7.875 L 3.0625 -7.875 L 3.0625 -2.125 L 3.875 -1.265625 L 5.390625 -1.265625 L 5.390625 0 Z M 3.125 0 "/></g></g></g><g fill="#a6a6a6" fill-opacity="1"><g transform="translate(85.06446, 76.607608)"><g><path d="M 1.421875 0 L 1.421875 -12.8125 L 2.953125 -12.8125 L 2.953125 -7.65625 L 4.34375 -9.09375 L 7.703125 -9.09375 L 9.515625 -7.265625 L 9.515625 0 L 7.984375 0 L 7.984375 -6.890625 L 7.0625 -7.875 L 4.75 -7.875 L 2.953125 -6.046875 L 2.953125 0 Z M 1.421875 0 "/></g></g></g><g fill="#a6a6a6" fill-opacity="1"><g transform="translate(95.917777, 76.607608)"><g><path d="M 2.421875 0 L 0.609375 -1.828125 L 0.609375 -3.890625 L 2.421875 -5.71875 L 7.046875 -5.71875 L 7.046875 -6.859375 L 6.109375 -7.8125 L 1.796875 -7.8125 L 1.796875 -9.09375 L 6.765625 -9.09375 L 8.578125 -7.265625 L 8.578125 0 L 7.046875 0 L 7.046875 -1.40625 L 5.640625 0 Z M 3.09375 -1.21875 L 5.25 -1.21875 L 7.046875 -2.984375 L 7.046875 -4.515625 L 3.09375 -4.5 L 2.140625 -3.5625 L 2.140625 -2.171875 Z M 3.09375 -1.21875 "/></g></g></g><g fill="#a6a6a6" fill-opacity="1"><g transform="translate(105.831865, 76.607608)"><g><path d="M 1.421875 0 L 1.421875 -9.09375 L 2.953125 -9.09375 L 2.953125 -7.453125 L 4.53125 -9.09375 L 7.890625 -9.09375 L 9.703125 -7.265625 L 9.703125 0 L 8.171875 0 L 8.171875 -6.890625 L 7.25 -7.875 L 4.9375 -7.875 L 2.953125 -5.859375 L 2.953125 0 Z M 1.421875 0 "/></g></g></g><g fill="#a6a6a6" fill-opacity="1"><g transform="translate(116.876509, 76.607608)"><g/></g></g><g fill="#a6a6a6" fill-opacity="1"><g transform="translate(120.737785, 76.607608)"><g/></g></g><g fill="#a6a6a6" fill-opacity="1"><g transform="translate(124.599062, 76.607608)"><g/></g></g><g fill="#a6a6a6" fill-opacity="1"><g transform="translate(128.460338, 76.607608)"><g/></g></g><g fill="#a6a6a6" fill-opacity="1"><g transform="translate(132.321612, 76.607608)"><g><path d="M 1.421875 0 L 1.421875 -12.8125 L 2.953125 -12.8125 L 2.953125 -7.65625 L 4.34375 -9.09375 L 7.703125 -9.09375 L 9.515625 -7.265625 L 9.515625 0 L 7.984375 0 L 7.984375 -6.890625 L 7.0625 -7.875 L 4.75 -7.875 L 2.953125 -6.046875 L 2.953125 0 Z M 1.421875 0 "/></g></g></g><g fill="#a6a6a6" fill-opacity="1"><g transform="translate(143.17493, 76.607608)"><g><path d="M 2.421875 0 L 0.609375 -1.828125 L 0.609375 -3.890625 L 2.421875 -5.71875 L 7.046875 -5.71875 L 7.046875 -6.859375 L 6.109375 -7.8125 L 1.796875 -7.8125 L 1.796875 -9.09375 L 6.765625 -9.09375 L 8.578125 -7.265625 L 8.578125 0 L 7.046875 0 L 7.046875 -1.40625 L 5.640625 0 Z M 3.09375 -1.21875 L 5.25 -1.21875 L 7.046875 -2.984375 L 7.046875 -4.515625 L 3.09375 -4.5 L 2.140625 -3.5625 L 2.140625 -2.171875 Z M 3.09375 -1.21875 "/></g></g></g><g fill="#a6a6a6" fill-opacity="1"><g transform="translate(153.089017, 76.607608)"><g><path d="M 4.09375 0 L 0.21875 -9.09375 L 1.890625 -9.09375 L 4.828125 -1.53125 L 5.234375 -1.53125 L 8.15625 -9.09375 L 9.84375 -9.09375 L 5.984375 0 Z M 4.09375 0 "/></g></g></g><g fill="#a6a6a6" fill-opacity="1"><g transform="translate(163.159643, 76.607608)"><g><path d="M 3.046875 0 L 1.21875 -1.828125 L 1.21875 -7.265625 L 3.046875 -9.09375 L 7.09375 -9.09375 L 8.921875 -7.265625 L 8.921875 -3.984375 L 2.75 -3.984375 L 2.75 -2.21875 L 3.703125 -1.265625 L 8.765625 -1.265625 L 8.765625 0 Z M 2.75 -5.203125 L 7.390625 -5.203125 L 7.390625 -6.921875 L 6.4375 -7.875 L 3.703125 -7.875 L 2.75 -6.921875 Z M 2.75 -5.203125 "/></g></g></g><g fill="#a6a6a6" fill-opacity="1"><g transform="translate(173.299842, 76.607608)"><g><path d="M 0.921875 0 L 0.921875 -1.5625 L 6.59375 -7.8125 L 1.328125 -7.8125 L 1.328125 -9.09375 L 8.3125 -9.09375 L 8.3125 -7.53125 L 2.640625 -1.265625 L 8.453125 -1.265625 L 8.453125 0 Z M 0.921875 0 "/></g></g></g><g fill="#a6a6a6" fill-opacity="1"><g transform="translate(92.965077, 89.096419)"><g><path d="M 0.84375 0 L 0.0625 -3.203125 L 0.46875 -3.203125 L 1.109375 -0.375 L 1.203125 -0.375 L 1.796875 -3.203125 L 2.15625 -3.203125 L 2.75 -0.375 L 2.84375 -0.375 L 3.46875 -3.203125 L 3.890625 -3.203125 L 3.109375 0 L 2.484375 0 L 1.96875 -2.359375 L 1.46875 0 Z M 0.84375 0 "/></g></g></g><g fill="#a6a6a6" fill-opacity="1"><g transform="translate(97.161249, 89.096419)"><g><path d="M 0.765625 0 L 0.296875 -0.453125 L 0.296875 -1.8125 L 0.765625 -2.265625 L 1.765625 -2.265625 L 2.234375 -1.8125 L 2.234375 -1 L 0.6875 -1 L 0.6875 -0.5625 L 0.921875 -0.3125 L 2.1875 -0.3125 L 2.1875 0 Z M 0.6875 -1.296875 L 1.84375 -1.296875 L 1.84375 -1.734375 L 1.609375 -1.96875 L 0.921875 -1.96875 L 0.6875 -1.734375 Z M 0.6875 -1.296875 "/></g></g></g><g fill="#a6a6a6" fill-opacity="1"><g transform="translate(99.941415, 89.096419)"><g><path d="M 0.359375 0 L 0.359375 -3.203125 L 0.734375 -3.203125 L 0.734375 -1.90625 L 1.078125 -2.265625 L 1.921875 -2.265625 L 2.375 -1.8125 L 2.375 -0.453125 L 1.921875 0 L 1.078125 0 L 0.734375 -0.359375 L 0.734375 0 Z M 1.1875 -0.296875 L 1.765625 -0.296875 L 2 -0.546875 L 2 -1.734375 L 1.765625 -1.96875 L 1.1875 -1.96875 L 0.734375 -1.515625 L 0.734375 -0.75 Z M 1.1875 -0.296875 "/></g></g></g><g fill="#a6a6a6" fill-opacity="1"><g transform="translate(102.869262, 89.096419)"><g/></g></g><g fill="#a6a6a6" fill-opacity="1"><g transform="translate(104.081396, 89.096419)"><g><path d="M 0.375 0 L 0.375 -3.203125 L 2.109375 -3.203125 L 2.78125 -2.53125 L 2.78125 -0.671875 L 2.109375 0 Z M 0.765625 -0.359375 L 1.9375 -0.359375 L 2.390625 -0.8125 L 2.390625 -2.390625 L 1.9375 -2.84375 L 0.765625 -2.84375 Z M 0.765625 -0.359375 "/></g></g></g><g fill="#a6a6a6" fill-opacity="1"><g transform="translate(107.391479, 89.096419)"><g><path d="M 0.765625 0 L 0.296875 -0.453125 L 0.296875 -1.8125 L 0.765625 -2.265625 L 1.765625 -2.265625 L 2.234375 -1.8125 L 2.234375 -1 L 0.6875 -1 L 0.6875 -0.5625 L 0.921875 -0.3125 L 2.1875 -0.3125 L 2.1875 0 Z M 0.6875 -1.296875 L 1.84375 -1.296875 L 1.84375 -1.734375 L 1.609375 -1.96875 L 0.921875 -1.96875 L 0.6875 -1.734375 Z M 0.6875 -1.296875 "/></g></g></g><g fill="#a6a6a6" fill-opacity="1"><g transform="translate(110.171645, 89.096419)"><g><path d="M 1.015625 0 L 0.0625 -2.265625 L 0.46875 -2.265625 L 1.203125 -0.375 L 1.3125 -0.375 L 2.03125 -2.265625 L 2.453125 -2.265625 L 1.5 0 Z M 1.015625 0 "/></g></g></g><g fill="#a6a6a6" fill-opacity="1"><g transform="translate(112.934437, 89.096419)"><g><path d="M 0.765625 0 L 0.296875 -0.453125 L 0.296875 -1.8125 L 0.765625 -2.265625 L 1.765625 -2.265625 L 2.234375 -1.8125 L 2.234375 -1 L 0.6875 -1 L 0.6875 -0.5625 L 0.921875 -0.3125 L 2.1875 -0.3125 L 2.1875 0 Z M 0.6875 -1.296875 L 1.84375 -1.296875 L 1.84375 -1.734375 L 1.609375 -1.96875 L 0.921875 -1.96875 L 0.6875 -1.734375 Z M 0.6875 -1.296875 "/></g></g></g><g fill="#a6a6a6" fill-opacity="1"><g transform="translate(115.714603, 89.096419)"><g><path d="M 0.359375 0 L 0.359375 -3.203125 L 0.734375 -3.203125 L 0.734375 0 Z M 0.359375 0 "/></g></g></g><g fill="#a6a6a6" fill-opacity="1"><g transform="translate(117.052702, 89.096419)"><g><path d="M 0.765625 0 L 0.296875 -0.453125 L 0.296875 -1.8125 L 0.765625 -2.265625 L 1.84375 -2.265625 L 2.296875 -1.8125 L 2.296875 -0.453125 L 1.84375 0 Z M 0.921875 -0.296875 L 1.671875 -0.296875 L 1.90625 -0.546875 L 1.90625 -1.734375 L 1.671875 -1.96875 L 0.921875 -1.96875 L 0.6875 -1.734375 L 0.6875 -0.546875 Z M 0.921875 -0.296875 "/></g></g></g><g fill="#a6a6a6" fill-opacity="1"><g transform="translate(119.898022, 89.096419)"><g><path d="M 0.359375 0.8125 L 0.359375 -2.265625 L 0.734375 -2.265625 L 0.734375 -1.90625 L 1.078125 -2.265625 L 1.921875 -2.265625 L 2.375 -1.8125 L 2.375 -0.453125 L 1.921875 0 L 1.078125 0 L 0.734375 -0.359375 L 0.734375 0.8125 Z M 1.1875 -0.296875 L 1.765625 -0.296875 L 2 -0.546875 L 2 -1.734375 L 1.765625 -1.96875 L 1.1875 -1.96875 L 0.734375 -1.515625 L 0.734375 -0.75 Z M 1.1875 -0.296875 "/></g></g></g><g fill="#a6a6a6" fill-opacity="1"><g transform="translate(122.82587, 89.096419)"><g><path d="M 0.765625 0 L 0.296875 -0.453125 L 0.296875 -1.8125 L 0.765625 -2.265625 L 1.765625 -2.265625 L 2.234375 -1.8125 L 2.234375 -1 L 0.6875 -1 L 0.6875 -0.5625 L 0.921875 -0.3125 L 2.1875 -0.3125 L 2.1875 0 Z M 0.6875 -1.296875 L 1.84375 -1.296875 L 1.84375 -1.734375 L 1.609375 -1.96875 L 0.921875 -1.96875 L 0.6875 -1.734375 Z M 0.6875 -1.296875 "/></g></g></g><g fill="#a6a6a6" fill-opacity="1"><g transform="translate(125.606036, 89.096419)"><g><path d="M 0.359375 0 L 0.359375 -2.265625 L 0.734375 -2.265625 L 0.734375 -1.859375 L 1.140625 -2.265625 L 1.71875 -2.265625 L 1.71875 -1.890625 L 1.15625 -1.890625 L 0.734375 -1.46875 L 0.734375 0 Z M 0.359375 0 "/></g></g></g><g clip-path="url(#c4896971e2)"><path fill="#a6a6a6" d="M 118.695312 59.296875 C 118.867188 59.371094 118.976562 59.480469 119.085938 59.582031 C 119.714844 60.1875 120.34375 60.792969 120.957031 61.410156 C 121.574219 62.035156 122.226562 62.621094 122.851562 63.238281 C 123.566406 63.945312 124.402344 64.523438 125.09375 65.253906 C 125.15625 65.316406 125.285156 65.390625 125.195312 65.484375 C 125.113281 65.570312 125.011719 65.464844 124.945312 65.40625 C 124.46875 64.972656 123.992188 64.539062 123.53125 64.09375 C 122.8125 63.398438 122.089844 62.710938 121.347656 62.042969 C 120.867188 61.609375 120.421875 61.136719 119.964844 60.675781 C 119.59375 60.304688 119.226562 59.921875 118.863281 59.546875 C 118.796875 59.480469 118.722656 59.421875 118.695312 59.296875 Z M 119.480469 80.914062 C 119.851562 80.570312 120.21875 80.222656 120.589844 79.878906 C 121.929688 78.636719 123.160156 77.292969 124.476562 76.027344 C 124.71875 75.792969 124.945312 75.539062 125.148438 75.269531 C 125.183594 75.226562 125.230469 75.171875 125.179688 75.117188 C 125.117188 75.054688 125.054688 75.113281 125.011719 75.152344 C 124.890625 75.261719 124.761719 75.371094 124.65625 75.496094 C 123.398438 76.964844 121.910156 78.21875 120.585938 79.628906 C 120.175781 80.066406 119.738281 80.484375 119.351562 80.972656 C 119.429688 80.976562 119.453125 80.941406 119.480469 80.914062 Z M 129.9375 55.070312 C 129.910156 55.894531 129.875 56.71875 129.859375 57.546875 C 129.84375 58.359375 129.894531 59.171875 129.957031 59.984375 C 130.015625 60.730469 129.992188 61.480469 130.007812 62.226562 C 130.011719 62.597656 130.027344 62.972656 130.046875 63.34375 C 130.046875 63.40625 130.027344 63.511719 130.113281 63.515625 C 130.214844 63.523438 130.191406 63.40625 130.199219 63.34375 C 130.226562 63.128906 130.214844 62.914062 130.195312 62.699219 C 130.105469 61.742188 130.085938 60.78125 130.105469 59.816406 C 130.136719 58.257812 130.0625 56.695312 130.035156 55.132812 C 130.03125 55.066406 130.039062 54.996094 129.984375 54.933594 C 129.9375 54.976562 129.9375 55.023438 129.9375 55.070312 Z M 113.964844 70.359375 C 114.628906 70.394531 115.292969 70.410156 115.953125 70.410156 C 117.28125 70.40625 118.605469 70.308594 119.929688 70.296875 C 120.878906 70.289062 121.828125 70.328125 122.773438 70.363281 C 122.878906 70.367188 122.984375 70.378906 123.082031 70.332031 C 123.117188 70.320312 123.148438 70.300781 123.144531 70.261719 C 123.140625 70.222656 123.109375 70.203125 123.074219 70.199219 C 123.027344 70.1875 122.980469 70.179688 122.9375 70.179688 C 122.390625 70.167969 121.84375 70.152344 121.296875 70.148438 C 120.394531 70.144531 119.496094 70.1875 118.59375 70.214844 C 117.582031 70.246094 116.570312 70.238281 115.558594 70.25 C 114.972656 70.253906 114.382812 70.242188 113.777344 70.304688 C 113.851562 70.355469 113.910156 70.355469 113.964844 70.359375 Z M 124.785156 57.394531 C 125.441406 59.085938 126.09375 60.78125 126.757812 62.472656 C 126.933594 62.925781 127.144531 63.371094 127.339844 63.816406 C 127.371094 63.878906 127.398438 63.976562 127.496094 63.9375 C 127.589844 63.902344 127.53125 63.820312 127.511719 63.761719 C 127.441406 63.535156 127.367188 63.308594 127.273438 63.089844 C 126.492188 61.308594 125.769531 59.507812 125.035156 57.707031 C 124.941406 57.480469 124.835938 57.253906 124.695312 57.046875 C 124.6875 57.175781 124.742188 57.28125 124.785156 57.394531 Z M 130.039062 84.808594 C 130.066406 83.820312 130.109375 82.832031 130.136719 81.839844 C 130.171875 80.558594 130.144531 79.273438 130.25 77.992188 C 130.269531 77.730469 130.261719 77.46875 130.210938 77.210938 C 130.199219 77.148438 130.195312 77.058594 130.101562 77.0625 C 130.011719 77.066406 130.007812 77.15625 130.011719 77.21875 C 130.019531 77.628906 129.980469 78.035156 130.003906 78.441406 C 130.046875 79.070312 130.0625 79.699219 130.019531 80.324219 C 129.929688 81.636719 129.90625 82.945312 129.945312 84.261719 C 129.949219 84.476562 129.949219 84.695312 130.027344 84.90625 C 130.03125 84.875 130.035156 84.839844 130.039062 84.808594 Z M 117.414062 75.78125 C 118.453125 75.308594 119.511719 74.882812 120.566406 74.453125 C 121.484375 74.078125 122.410156 73.726562 123.332031 73.359375 C 123.449219 73.3125 123.558594 73.25 123.671875 73.191406 C 123.714844 73.167969 123.757812 73.140625 123.738281 73.085938 C 123.714844 73.027344 123.664062 73.015625 123.609375 73.027344 C 123.5625 73.035156 123.519531 73.050781 123.476562 73.066406 C 123.253906 73.164062 123.027344 73.253906 122.804688 73.359375 C 121.679688 73.886719 120.53125 74.363281 119.355469 74.777344 C 118.652344 75.023438 117.960938 75.289062 117.320312 75.667969 C 117.246094 75.714844 117.15625 75.753906 117.113281 75.851562 C 117.230469 75.875 117.324219 75.820312 117.414062 75.78125 Z M 125.148438 82.78125 C 125.53125 81.761719 125.910156 80.738281 126.300781 79.722656 C 126.625 78.875 127.03125 78.058594 127.382812 77.21875 C 127.453125 77.058594 127.511719 76.890625 127.554688 76.71875 C 127.566406 76.667969 127.566406 76.613281 127.503906 76.589844 C 127.4375 76.5625 127.398438 76.609375 127.371094 76.664062 C 127.355469 76.695312 127.347656 76.726562 127.335938 76.757812 C 126.992188 77.761719 126.601562 78.75 126.175781 79.722656 C 125.683594 80.851562 125.207031 81.992188 124.859375 83.171875 C 124.832031 83.257812 124.792969 83.34375 124.820312 83.480469 C 124.972656 83.234375 125.0625 83.007812 125.148438 82.78125 Z M 116.742188 65.164062 C 117.109375 65.332031 117.492188 65.46875 117.875 65.605469 C 119.058594 66.03125 120.246094 66.445312 121.429688 66.871094 C 122.113281 67.121094 122.792969 67.382812 123.480469 67.632812 C 123.558594 67.664062 123.691406 67.742188 123.734375 67.609375 C 123.777344 67.484375 123.632812 67.464844 123.546875 67.4375 C 123.066406 67.28125 122.578125 67.144531 122.105469 66.976562 C 120.597656 66.441406 119.09375 65.890625 117.589844 65.355469 C 117.253906 65.234375 116.917969 65.101562 116.550781 65.027344 C 116.597656 65.117188 116.675781 65.136719 116.742188 65.164062 Z M 120.800781 63.625 C 121.578125 64.191406 122.394531 64.703125 123.148438 65.300781 C 123.515625 65.589844 123.90625 65.847656 124.289062 66.113281 C 124.367188 66.167969 124.472656 66.28125 124.558594 66.175781 C 124.652344 66.0625 124.5 66 124.425781 65.941406 C 124.285156 65.835938 124.136719 65.734375 123.984375 65.640625 C 123.46875 65.324219 122.949219 65.007812 122.472656 64.632812 C 121.871094 64.160156 121.242188 63.726562 120.605469 63.296875 C 120.460938 63.199219 120.320312 63.089844 120.128906 63.0625 C 120.324219 63.285156 120.566406 63.453125 120.800781 63.625 Z M 128.738281 81.882812 C 128.882812 80.523438 129.03125 79.164062 129.261719 77.8125 C 129.296875 77.601562 129.351562 77.390625 129.328125 77.175781 C 129.324219 77.113281 129.320312 77.019531 129.222656 77.023438 C 129.144531 77.027344 129.140625 77.109375 129.132812 77.167969 C 129.089844 77.4375 129.046875 77.707031 129.019531 77.976562 C 128.929688 78.960938 128.792969 79.941406 128.675781 80.921875 C 128.617188 81.410156 128.640625 81.898438 128.675781 82.386719 C 128.699219 82.21875 128.722656 82.050781 128.738281 81.882812 Z M 122.152344 60.59375 C 122.179688 60.632812 122.203125 60.671875 122.230469 60.707031 C 122.683594 61.257812 123.136719 61.8125 123.589844 62.363281 C 123.867188 62.699219 124.15625 63.023438 124.429688 63.363281 C 124.753906 63.757812 125.0625 64.160156 125.378906 64.558594 C 125.476562 64.679688 125.582031 64.792969 125.710938 64.882812 C 125.753906 64.917969 125.800781 64.945312 125.851562 64.898438 C 125.898438 64.855469 125.875 64.804688 125.847656 64.761719 C 125.832031 64.730469 125.808594 64.707031 125.785156 64.679688 C 125.59375 64.472656 125.398438 64.269531 125.214844 64.058594 C 124.769531 63.542969 124.308594 63.039062 123.894531 62.503906 C 123.449219 61.933594 122.984375 61.382812 122.492188 60.855469 C 122.394531 60.75 122.308594 60.636719 122.21875 60.53125 C 122.195312 60.550781 122.175781 60.574219 122.152344 60.59375 Z M 122.925781 79.816406 C 123.90625 78.570312 124.789062 77.253906 125.789062 76.019531 C 125.832031 75.964844 125.863281 75.902344 125.894531 75.839844 C 125.914062 75.796875 125.929688 75.738281 125.871094 75.707031 C 125.808594 75.675781 125.777344 75.726562 125.746094 75.769531 C 125.628906 75.929688 125.511719 76.09375 125.398438 76.257812 C 124.769531 77.167969 124.042969 78.007812 123.414062 78.921875 C 123.191406 79.246094 122.9375 79.558594 122.773438 79.949219 C 122.863281 79.914062 122.890625 79.863281 122.925781 79.816406 Z M 121.082031 77.65625 C 121.847656 77.085938 122.542969 76.429688 123.292969 75.839844 C 123.71875 75.507812 124.140625 75.167969 124.558594 74.828125 C 124.625 74.773438 124.757812 74.691406 124.664062 74.597656 C 124.578125 74.507812 124.5 74.636719 124.4375 74.6875 C 123.761719 75.257812 123.117188 75.871094 122.394531 76.382812 C 121.84375 76.769531 121.359375 77.21875 120.914062 77.753906 C 121.003906 77.738281 121.039062 77.6875 121.082031 77.65625 Z M 118.824219 68.929688 C 118.976562 68.953125 119.132812 68.988281 119.289062 68.996094 C 120.484375 69.078125 121.667969 69.242188 122.847656 69.429688 C 122.917969 69.441406 122.988281 69.441406 123.058594 69.441406 C 123.105469 69.441406 123.152344 69.421875 123.160156 69.367188 C 123.164062 69.3125 123.125 69.285156 123.074219 69.273438 C 122.964844 69.246094 122.851562 69.214844 122.734375 69.203125 C 121.628906 69.078125 120.519531 68.957031 119.40625 68.871094 C 119.203125 68.855469 118.996094 68.855469 118.769531 68.886719 C 118.800781 68.910156 118.808594 68.925781 118.824219 68.929688 Z M 119.253906 71.96875 C 119.808594 71.902344 120.351562 71.78125 120.902344 71.703125 C 121.527344 71.613281 122.15625 71.539062 122.785156 71.453125 C 122.871094 71.445312 122.957031 71.425781 123.039062 71.40625 C 123.105469 71.386719 123.191406 71.371094 123.179688 71.28125 C 123.167969 71.191406 123.082031 71.203125 123.011719 71.207031 C 122.957031 71.207031 122.898438 71.21875 122.839844 71.226562 C 121.867188 71.394531 120.894531 71.554688 119.925781 71.726562 C 119.648438 71.777344 119.367188 71.808594 119.09375 71.941406 C 119.164062 71.996094 119.207031 71.972656 119.253906 71.96875 Z M 125.292969 79.109375 C 125.492188 78.746094 125.6875 78.378906 125.867188 78.007812 C 126.109375 77.515625 126.453125 77.082031 126.683594 76.585938 C 126.722656 76.503906 126.765625 76.421875 126.765625 76.328125 C 126.765625 76.289062 126.761719 76.246094 126.714844 76.234375 C 126.667969 76.21875 126.632812 76.238281 126.609375 76.273438 C 126.550781 76.367188 126.488281 76.453125 126.4375 76.550781 C 126.011719 77.371094 125.589844 78.195312 125.167969 79.019531 C 125.113281 79.128906 125.046875 79.238281 125.054688 79.378906 C 125.195312 79.328125 125.238281 79.210938 125.292969 79.109375 Z M 120.136719 67.738281 C 120.507812 67.839844 120.871094 67.953125 121.246094 68.03125 C 121.867188 68.15625 122.464844 68.375 123.097656 68.453125 C 123.199219 68.464844 123.355469 68.53125 123.386719 68.398438 C 123.425781 68.242188 123.242188 68.238281 123.140625 68.226562 C 122.371094 68.140625 121.628906 67.917969 120.875 67.753906 C 120.585938 67.691406 120.289062 67.664062 119.984375 67.679688 C 120.035156 67.699219 120.082031 67.726562 120.136719 67.738281 Z M 128.644531 58.597656 C 128.671875 58.851562 128.691406 59.105469 128.730469 59.355469 C 128.878906 60.265625 128.992188 61.179688 129.066406 62.101562 C 129.097656 62.515625 129.128906 62.9375 129.21875 63.347656 C 129.234375 63.414062 129.242188 63.523438 129.332031 63.511719 C 129.441406 63.5 129.386719 63.394531 129.375 63.328125 C 129.308594 62.820312 129.226562 62.3125 129.164062 61.800781 C 129.0625 60.921875 128.953125 60.046875 128.8125 59.175781 C 128.78125 58.980469 128.722656 58.785156 128.679688 58.589844 C 128.667969 58.59375 128.65625 58.597656 128.644531 58.597656 Z M 121.050781 65.453125 C 121.589844 65.753906 122.160156 66 122.695312 66.3125 C 123.023438 66.503906 123.371094 66.664062 123.710938 66.835938 C 123.78125 66.875 123.855469 66.90625 123.941406 66.910156 C 123.984375 66.914062 124.039062 66.917969 124.054688 66.863281 C 124.070312 66.816406 124.035156 66.789062 124 66.769531 C 123.878906 66.699219 123.761719 66.628906 123.636719 66.570312 C 122.964844 66.257812 122.289062 65.957031 121.652344 65.582031 C 121.433594 65.453125 121.210938 65.328125 120.960938 65.257812 C 120.921875 65.246094 120.871094 65.210938 120.855469 65.292969 C 120.898438 65.371094 120.976562 65.410156 121.050781 65.453125 Z M 120.613281 73.289062 C 121.453125 73.046875 122.292969 72.804688 123.132812 72.5625 C 123.222656 72.539062 123.3125 72.511719 123.386719 72.457031 C 123.433594 72.421875 123.460938 72.378906 123.433594 72.324219 C 123.410156 72.277344 123.363281 72.269531 123.3125 72.277344 C 123.246094 72.289062 123.175781 72.304688 123.109375 72.324219 C 122.269531 72.582031 121.445312 72.890625 120.617188 73.183594 C 120.554688 73.207031 120.480469 73.214844 120.449219 73.292969 C 120.507812 73.332031 120.558594 73.304688 120.613281 73.289062 Z M 121.683594 75.4375 C 122.328125 75.019531 123.027344 74.691406 123.675781 74.277344 C 123.820312 74.1875 123.960938 74.082031 124.097656 73.980469 C 124.140625 73.949219 124.179688 73.902344 124.144531 73.847656 C 124.109375 73.796875 124.050781 73.808594 124.003906 73.832031 C 123.945312 73.859375 123.890625 73.890625 123.835938 73.925781 C 123.152344 74.382812 122.441406 74.808594 121.730469 75.230469 C 121.582031 75.320312 121.457031 75.429688 121.304688 75.59375 C 121.476562 75.554688 121.585938 75.5 121.683594 75.4375 Z M 127.589844 79.75 C 127.65625 79.769531 127.667969 79.695312 127.683594 79.652344 C 127.722656 79.5625 127.757812 79.472656 127.777344 79.378906 C 127.898438 78.832031 128.058594 78.292969 128.226562 77.757812 C 128.296875 77.53125 128.347656 77.296875 128.398438 77.066406 C 128.414062 76.996094 128.433594 76.90625 128.328125 76.878906 C 128.222656 76.855469 128.191406 76.941406 128.164062 77.019531 C 128.140625 77.09375 128.121094 77.171875 128.109375 77.25 C 128.019531 77.808594 127.894531 78.359375 127.726562 78.902344 C 127.652344 79.140625 127.585938 79.382812 127.554688 79.640625 C 127.574219 79.667969 127.53125 79.734375 127.589844 79.75 Z M 127.777344 60.867188 C 127.777344 60.898438 127.773438 60.933594 127.777344 60.964844 C 127.882812 61.648438 127.992188 62.332031 128.097656 63.011719 C 128.132812 63.210938 128.152344 63.417969 128.242188 63.605469 C 128.269531 63.664062 128.296875 63.75 128.382812 63.726562 C 128.472656 63.699219 128.445312 63.613281 128.433594 63.550781 C 128.328125 62.925781 128.207031 62.300781 128.042969 61.6875 C 127.96875 61.410156 127.886719 61.136719 127.808594 60.859375 C 127.800781 60.863281 127.789062 60.863281 127.777344 60.867188 Z M 125.386719 62.050781 C 125.714844 62.691406 126.042969 63.335938 126.375 63.972656 C 126.433594 64.085938 126.515625 64.183594 126.585938 64.285156 C 126.617188 64.328125 126.65625 64.371094 126.714844 64.34375 C 126.785156 64.3125 126.761719 64.25 126.742188 64.195312 C 126.730469 64.164062 126.714844 64.136719 126.699219 64.105469 C 126.347656 63.382812 125.910156 62.710938 125.488281 62.03125 C 125.453125 61.972656 125.421875 61.910156 125.339844 61.894531 C 125.320312 61.957031 125.359375 62.003906 125.386719 62.050781 Z M 127.390625 80.667969 C 127.503906 80.667969 127.558594 80.601562 127.5625 80.496094 C 127.566406 80.40625 127.515625 80.34375 127.417969 80.34375 C 127.304688 80.34375 127.257812 80.417969 127.238281 80.511719 C 127.246094 80.605469 127.296875 80.667969 127.390625 80.667969 Z M 124.5625 79.960938 C 124.5625 80.050781 124.621094 80.109375 124.71875 80.105469 C 124.816406 80.101562 124.878906 80.039062 124.878906 79.941406 C 124.875 79.847656 124.816406 79.800781 124.714844 79.792969 C 124.621094 79.804688 124.558594 79.859375 124.5625 79.960938 Z M 119.105469 67.464844 C 119.105469 67.554688 119.175781 67.605469 119.265625 67.613281 C 119.363281 67.621094 119.4375 67.570312 119.4375 67.46875 C 119.441406 67.375 119.375 67.332031 119.277344 67.320312 C 119.191406 67.332031 119.105469 67.355469 119.105469 67.464844 Z M 127.234375 59.273438 C 127.242188 59.367188 127.292969 59.433594 127.398438 59.433594 C 127.496094 59.429688 127.539062 59.363281 127.535156 59.273438 C 127.527344 59.175781 127.476562 59.117188 127.367188 59.113281 C 127.277344 59.125 127.230469 59.183594 127.234375 59.273438 Z M 118.222656 67.1875 C 118.230469 67.292969 118.304688 67.347656 118.410156 67.347656 C 118.496094 67.34375 118.550781 67.289062 118.546875 67.207031 C 118.546875 67.101562 118.46875 67.066406 118.363281 67.0625 C 118.292969 67.070312 118.214844 67.09375 118.222656 67.1875 Z M 124.96875 61.164062 C 124.878906 61.164062 124.828125 61.21875 124.832031 61.304688 C 124.832031 61.394531 124.882812 61.460938 124.980469 61.453125 C 125.066406 61.449219 125.105469 61.386719 125.113281 61.304688 C 125.101562 61.222656 125.058594 61.164062 124.96875 61.164062 Z M 119.128906 73.796875 C 119.214844 73.796875 119.277344 73.753906 119.285156 73.667969 C 119.289062 73.578125 119.238281 73.519531 119.140625 73.511719 C 119.046875 73.503906 118.992188 73.558594 118.972656 73.652344 C 118.984375 73.738281 119.03125 73.792969 119.128906 73.796875 Z M 120.8125 76.074219 C 120.910156 76.070312 120.960938 76.011719 120.960938 75.921875 C 120.960938 75.84375 120.90625 75.796875 120.828125 75.800781 C 120.730469 75.800781 120.683594 75.859375 120.675781 75.949219 C 120.6875 76.027344 120.730469 76.074219 120.8125 76.074219 Z M 127.597656 60.257812 C 127.679688 60.257812 127.730469 60.210938 127.730469 60.132812 C 127.730469 60.046875 127.683594 59.992188 127.597656 59.988281 C 127.511719 59.980469 127.476562 60.039062 127.46875 60.117188 C 127.472656 60.195312 127.507812 60.257812 127.597656 60.257812 Z M 127.066406 81.332031 C 127.070312 81.410156 127.121094 81.457031 127.203125 81.449219 C 127.285156 81.441406 127.320312 81.386719 127.320312 81.308594 C 127.320312 81.230469 127.277344 81.183594 127.195312 81.179688 C 127.105469 81.195312 127.058594 81.242188 127.066406 81.332031 Z M 124.457031 60.609375 C 124.457031 60.695312 124.507812 60.75 124.597656 60.746094 C 124.671875 60.742188 124.710938 60.6875 124.710938 60.617188 C 124.707031 60.539062 124.65625 60.496094 124.578125 60.488281 C 124.503906 60.496094 124.457031 60.535156 124.457031 60.609375 Z M 119.699219 73.476562 C 119.703125 73.554688 119.753906 73.601562 119.835938 73.597656 C 119.910156 73.597656 119.953125 73.554688 119.957031 73.480469 C 119.957031 73.402344 119.910156 73.359375 119.820312 73.347656 C 119.75 73.359375 119.699219 73.394531 119.699219 73.476562 Z M 120.214844 65.050781 C 120.214844 65.121094 120.25 65.167969 120.328125 65.171875 C 120.40625 65.179688 120.453125 65.136719 120.457031 65.066406 C 120.460938 64.988281 120.410156 64.945312 120.328125 64.929688 C 120.257812 64.941406 120.210938 64.976562 120.214844 65.050781 Z M 120.214844 65.050781 " fill-opacity="1" fill-rule="nonzero"/><path fill="#a6a6a6" d="M 118.695312 59.296875 C 118.867188 59.371094 118.976562 59.480469 119.085938 59.582031 C 119.714844 60.1875 120.34375 60.792969 120.957031 61.410156 C 121.574219 62.035156 122.226562 62.621094 122.851562 63.238281 C 123.566406 63.945312 124.402344 64.523438 125.09375 65.253906 C 125.15625 65.316406 125.285156 65.390625 125.195312 65.484375 C 125.113281 65.570312 125.011719 65.464844 124.945312 65.40625 C 124.46875 64.972656 123.992188 64.539062 123.53125 64.09375 C 122.8125 63.398438 122.089844 62.710938 121.347656 62.042969 C 120.867188 61.609375 120.421875 61.136719 119.964844 60.675781 C 119.59375 60.304688 119.226562 59.921875 118.863281 59.546875 C 118.796875 59.480469 118.722656 59.421875 118.695312 59.296875 Z M 119.480469 80.914062 C 119.851562 80.570312 120.21875 80.222656 120.589844 79.878906 C 121.929688 78.636719 123.160156 77.292969 124.476562 76.027344 C 124.71875 75.792969 124.945312 75.539062 125.148438 75.269531 C 125.183594 75.226562 125.230469 75.171875 125.179688 75.117188 C 125.117188 75.054688 125.054688 75.113281 125.011719 75.152344 C 124.890625 75.261719 124.761719 75.371094 124.65625 75.496094 C 123.398438 76.964844 121.910156 78.21875 120.585938 79.628906 C 120.175781 80.066406 119.738281 80.484375 119.351562 80.972656 C 119.429688 80.976562 119.453125 80.941406 119.480469 80.914062 Z M 129.9375 55.070312 C 129.910156 55.894531 129.875 56.71875 129.859375 57.546875 C 129.84375 58.359375 129.894531 59.171875 129.957031 59.984375 C 130.015625 60.730469 129.992188 61.480469 130.007812 62.226562 C 130.011719 62.597656 130.027344 62.972656 130.046875 63.34375 C 130.046875 63.40625 130.027344 63.511719 130.113281 63.515625 C 130.214844 63.523438 130.191406 63.40625 130.199219 63.34375 C 130.226562 63.128906 130.214844 62.914062 130.195312 62.699219 C 130.105469 61.742188 130.085938 60.78125 130.105469 59.816406 C 130.136719 58.257812 130.0625 56.695312 130.035156 55.132812 C 130.03125 55.066406 130.039062 54.996094 129.984375 54.933594 C 129.9375 54.976562 129.9375 55.023438 129.9375 55.070312 Z M 113.964844 70.359375 C 114.628906 70.394531 115.292969 70.410156 115.953125 70.410156 C 117.28125 70.40625 118.605469 70.308594 119.929688 70.296875 C 120.878906 70.289062 121.828125 70.328125 122.773438 70.363281 C 122.878906 70.367188 122.984375 70.378906 123.082031 70.332031 C 123.117188 70.320312 123.148438 70.300781 123.144531 70.261719 C 123.140625 70.222656 123.109375 70.203125 123.074219 70.199219 C 123.027344 70.1875 122.980469 70.179688 122.9375 70.179688 C 122.390625 70.167969 121.84375 70.152344 121.296875 70.148438 C 120.394531 70.144531 119.496094 70.1875 118.59375 70.214844 C 117.582031 70.246094 116.570312 70.238281 115.558594 70.25 C 114.972656 70.253906 114.382812 70.242188 113.777344 70.304688 C 113.851562 70.355469 113.910156 70.355469 113.964844 70.359375 Z M 124.785156 57.394531 C 125.441406 59.085938 126.09375 60.78125 126.757812 62.472656 C 126.933594 62.925781 127.144531 63.371094 127.339844 63.816406 C 127.371094 63.878906 127.398438 63.976562 127.496094 63.9375 C 127.589844 63.902344 127.53125 63.820312 127.511719 63.761719 C 127.441406 63.535156 127.367188 63.308594 127.273438 63.089844 C 126.492188 61.308594 125.769531 59.507812 125.035156 57.707031 C 124.941406 57.480469 124.835938 57.253906 124.695312 57.046875 C 124.6875 57.175781 124.742188 57.28125 124.785156 57.394531 Z M 130.039062 84.808594 C 130.066406 83.820312 130.109375 82.832031 130.136719 81.839844 C 130.171875 80.558594 130.144531 79.273438 130.25 77.992188 C 130.269531 77.730469 130.261719 77.46875 130.210938 77.210938 C 130.199219 77.148438 130.195312 77.058594 130.101562 77.0625 C 130.011719 77.066406 130.007812 77.15625 130.011719 77.21875 C 130.019531 77.628906 129.980469 78.035156 130.003906 78.441406 C 130.046875 79.070312 130.0625 79.699219 130.019531 80.324219 C 129.929688 81.636719 129.90625 82.945312 129.945312 84.261719 C 129.949219 84.476562 129.949219 84.695312 130.027344 84.90625 C 130.03125 84.875 130.035156 84.839844 130.039062 84.808594 Z M 117.414062 75.78125 C 118.453125 75.308594 119.511719 74.882812 120.566406 74.453125 C 121.484375 74.078125 122.410156 73.726562 123.332031 73.359375 C 123.449219 73.3125 123.558594 73.25 123.671875 73.191406 C 123.714844 73.167969 123.757812 73.140625 123.738281 73.085938 C 123.714844 73.027344 123.664062 73.015625 123.609375 73.027344 C 123.5625 73.035156 123.519531 73.050781 123.476562 73.066406 C 123.253906 73.164062 123.027344 73.253906 122.804688 73.359375 C 121.679688 73.886719 120.53125 74.363281 119.355469 74.777344 C 118.652344 75.023438 117.960938 75.289062 117.320312 75.667969 C 117.246094 75.714844 117.15625 75.753906 117.113281 75.851562 C 117.230469 75.875 117.324219 75.820312 117.414062 75.78125 Z M 125.148438 82.78125 C 125.53125 81.761719 125.910156 80.738281 126.300781 79.722656 C 126.625 78.875 127.03125 78.058594 127.382812 77.21875 C 127.453125 77.058594 127.511719 76.890625 127.554688 76.71875 C 127.566406 76.667969 127.566406 76.613281 127.503906 76.589844 C 127.4375 76.5625 127.398438 76.609375 127.371094 76.664062 C 127.355469 76.695312 127.347656 76.726562 127.335938 76.757812 C 126.992188 77.761719 126.601562 78.75 126.175781 79.722656 C 125.683594 80.851562 125.207031 81.992188 124.859375 83.171875 C 124.832031 83.257812 124.792969 83.34375 124.820312 83.480469 C 124.972656 83.234375 125.0625 83.007812 125.148438 82.78125 Z M 116.742188 65.164062 C 117.109375 65.332031 117.492188 65.46875 117.875 65.605469 C 119.058594 66.03125 120.246094 66.445312 121.429688 66.871094 C 122.113281 67.121094 122.792969 67.382812 123.480469 67.632812 C 123.558594 67.664062 123.691406 67.742188 123.734375 67.609375 C 123.777344 67.484375 123.632812 67.464844 123.546875 67.4375 C 123.066406 67.28125 122.578125 67.144531 122.105469 66.976562 C 120.597656 66.441406 119.09375 65.890625 117.589844 65.355469 C 117.253906 65.234375 116.917969 65.101562 116.550781 65.027344 C 116.597656 65.117188 116.675781 65.136719 116.742188 65.164062 Z M 120.800781 63.625 C 121.578125 64.191406 122.394531 64.703125 123.148438 65.300781 C 123.515625 65.589844 123.90625 65.847656 124.289062 66.113281 C 124.367188 66.167969 124.472656 66.28125 124.558594 66.175781 C 124.652344 66.0625 124.5 66 124.425781 65.941406 C 124.285156 65.835938 124.136719 65.734375 123.984375 65.640625 C 123.46875 65.324219 122.949219 65.007812 122.472656 64.632812 C 121.871094 64.160156 121.242188 63.726562 120.605469 63.296875 C 120.460938 63.199219 120.320312 63.089844 120.128906 63.0625 C 120.324219 63.285156 120.566406 63.453125 120.800781 63.625 Z M 128.738281 81.882812 C 128.882812 80.523438 129.03125 79.164062 129.261719 77.8125 C 129.296875 77.601562 129.351562 77.390625 129.328125 77.175781 C 129.324219 77.113281 129.320312 77.019531 129.222656 77.023438 C 129.144531 77.027344 129.140625 77.109375 129.132812 77.167969 C 129.089844 77.4375 129.046875 77.707031 129.019531 77.976562 C 128.929688 78.960938 128.792969 79.941406 128.675781 80.921875 C 128.617188 81.410156 128.640625 81.898438 128.675781 82.386719 C 128.699219 82.21875 128.722656 82.050781 128.738281 81.882812 Z M 122.152344 60.59375 C 122.179688 60.632812 122.203125 60.671875 122.230469 60.707031 C 122.683594 61.257812 123.136719 61.8125 123.589844 62.363281 C 123.867188 62.699219 124.15625 63.023438 124.429688 63.363281 C 124.753906 63.757812 125.0625 64.160156 125.378906 64.558594 C 125.476562 64.679688 125.582031 64.792969 125.710938 64.882812 C 125.753906 64.917969 125.800781 64.945312 125.851562 64.898438 C 125.898438 64.855469 125.875 64.804688 125.847656 64.761719 C 125.832031 64.730469 125.808594 64.707031 125.785156 64.679688 C 125.59375 64.472656 125.398438 64.269531 125.214844 64.058594 C 124.769531 63.542969 124.308594 63.039062 123.894531 62.503906 C 123.449219 61.933594 122.984375 61.382812 122.492188 60.855469 C 122.394531 60.75 122.308594 60.636719 122.21875 60.53125 C 122.195312 60.550781 122.175781 60.574219 122.152344 60.59375 Z M 122.925781 79.816406 C 123.90625 78.570312 124.789062 77.253906 125.789062 76.019531 C 125.832031 75.964844 125.863281 75.902344 125.894531 75.839844 C 125.914062 75.796875 125.929688 75.738281 125.871094 75.707031 C 125.808594 75.675781 125.777344 75.726562 125.746094 75.769531 C 125.628906 75.929688 125.511719 76.09375 125.398438 76.257812 C 124.769531 77.167969 124.042969 78.007812 123.414062 78.921875 C 123.191406 79.246094 122.9375 79.558594 122.773438 79.949219 C 122.863281 79.914062 122.890625 79.863281 122.925781 79.816406 Z M 121.082031 77.65625 C 121.847656 77.085938 122.542969 76.429688 123.292969 75.839844 C 123.71875 75.507812 124.140625 75.167969 124.558594 74.828125 C 124.625 74.773438 124.757812 74.691406 124.664062 74.597656 C 124.578125 74.507812 124.5 74.636719 124.4375 74.6875 C 123.761719 75.257812 123.117188 75.871094 122.394531 76.382812 C 121.84375 76.769531 121.359375 77.21875 120.914062 77.753906 C 121.003906 77.738281 121.039062 77.6875 121.082031 77.65625 Z M 118.824219 68.929688 C 118.976562 68.953125 119.132812 68.988281 119.289062 68.996094 C 120.484375 69.078125 121.667969 69.242188 122.847656 69.429688 C 122.917969 69.441406 122.988281 69.441406 123.058594 69.441406 C 123.105469 69.441406 123.152344 69.421875 123.160156 69.367188 C 123.164062 69.3125 123.125 69.285156 123.074219 69.273438 C 122.964844 69.246094 122.851562 69.214844 122.734375 69.203125 C 121.628906 69.078125 120.519531 68.957031 119.40625 68.871094 C 119.203125 68.855469 118.996094 68.855469 118.769531 68.886719 C 118.800781 68.910156 118.808594 68.925781 118.824219 68.929688 Z M 119.253906 71.96875 C 119.808594 71.902344 120.351562 71.78125 120.902344 71.703125 C 121.527344 71.613281 122.15625 71.539062 122.785156 71.453125 C 122.871094 71.445312 122.957031 71.425781 123.039062 71.40625 C 123.105469 71.386719 123.191406 71.371094 123.179688 71.28125 C 123.167969 71.191406 123.082031 71.203125 123.011719 71.207031 C 122.957031 71.207031 122.898438 71.21875 122.839844 71.226562 C 121.867188 71.394531 120.894531 71.554688 119.925781 71.726562 C 119.648438 71.777344 119.367188 71.808594 119.09375 71.941406 C 119.164062 71.996094 119.207031 71.972656 119.253906 71.96875 Z M 125.292969 79.109375 C 125.492188 78.746094 125.6875 78.378906 125.867188 78.007812 C 126.109375 77.515625 126.453125 77.082031 126.683594 76.585938 C 126.722656 76.503906 126.765625 76.421875 126.765625 76.328125 C 126.765625 76.289062 126.761719 76.246094 126.714844 76.234375 C 126.667969 76.21875 126.632812 76.238281 126.609375 76.273438 C 126.550781 76.367188 126.488281 76.453125 126.4375 76.550781 C 126.011719 77.371094 125.589844 78.195312 125.167969 79.019531 C 125.113281 79.128906 125.046875 79.238281 125.054688 79.378906 C 125.195312 79.328125 125.238281 79.210938 125.292969 79.109375 Z M 120.136719 67.738281 C 120.507812 67.839844 120.871094 67.953125 121.246094 68.03125 C 121.867188 68.15625 122.464844 68.375 123.097656 68.453125 C 123.199219 68.464844 123.355469 68.53125 123.386719 68.398438 C 123.425781 68.242188 123.242188 68.238281 123.140625 68.226562 C 122.371094 68.140625 121.628906 67.917969 120.875 67.753906 C 120.585938 67.691406 120.289062 67.664062 119.984375 67.679688 C 120.035156 67.699219 120.082031 67.726562 120.136719 67.738281 Z M 128.644531 58.597656 C 128.671875 58.851562 128.691406 59.105469 128.730469 59.355469 C 128.878906 60.265625 128.992188 61.179688 129.066406 62.101562 C 129.097656 62.515625 129.128906 62.9375 129.21875 63.347656 C 129.234375 63.414062 129.242188 63.523438 129.332031 63.511719 C 129.441406 63.5 129.386719 63.394531 129.375 63.328125 C 129.308594 62.820312 129.226562 62.3125 129.164062 61.800781 C 129.0625 60.921875 128.953125 60.046875 128.8125 59.175781 C 128.78125 58.980469 128.722656 58.785156 128.679688 58.589844 C 128.667969 58.59375 128.65625 58.597656 128.644531 58.597656 Z M 121.050781 65.453125 C 121.589844 65.753906 122.160156 66 122.695312 66.3125 C 123.023438 66.503906 123.371094 66.664062 123.710938 66.835938 C 123.78125 66.875 123.855469 66.90625 123.941406 66.910156 C 123.984375 66.914062 124.039062 66.917969 124.054688 66.863281 C 124.070312 66.816406 124.035156 66.789062 124 66.769531 C 123.878906 66.699219 123.761719 66.628906 123.636719 66.570312 C 122.964844 66.257812 122.289062 65.957031 121.652344 65.582031 C 121.433594 65.453125 121.210938 65.328125 120.960938 65.257812 C 120.921875 65.246094 120.871094 65.210938 120.855469 65.292969 C 120.898438 65.371094 120.976562 65.410156 121.050781 65.453125 Z M 120.613281 73.289062 C 121.453125 73.046875 122.292969 72.804688 123.132812 72.5625 C 123.222656 72.539062 123.3125 72.511719 123.386719 72.457031 C 123.433594 72.421875 123.460938 72.378906 123.433594 72.324219 C 123.410156 72.277344 123.363281 72.269531 123.3125 72.277344 C 123.246094 72.289062 123.175781 72.304688 123.109375 72.324219 C 122.269531 72.582031 121.445312 72.890625 120.617188 73.183594 C 120.554688 73.207031 120.480469 73.214844 120.449219 73.292969 C 120.507812 73.332031 120.558594 73.304688 120.613281 73.289062 Z M 121.683594 75.4375 C 122.328125 75.019531 123.027344 74.691406 123.675781 74.277344 C 123.820312 74.1875 123.960938 74.082031 124.097656 73.980469 C 124.140625 73.949219 124.179688 73.902344 124.144531 73.847656 C 124.109375 73.796875 124.050781 73.808594 124.003906 73.832031 C 123.945312 73.859375 123.890625 73.890625 123.835938 73.925781 C 123.152344 74.382812 122.441406 74.808594 121.730469 75.230469 C 121.582031 75.320312 121.457031 75.429688 121.304688 75.59375 C 121.476562 75.554688 121.585938 75.5 121.683594 75.4375 Z M 127.589844 79.75 C 127.65625 79.769531 127.667969 79.695312 127.683594 79.652344 C 127.722656 79.5625 127.757812 79.472656 127.777344 79.378906 C 127.898438 78.832031 128.058594 78.292969 128.226562 77.757812 C 128.296875 77.53125 128.347656 77.296875 128.398438 77.066406 C 128.414062 76.996094 128.433594 76.90625 128.328125 76.878906 C 128.222656 76.855469 128.191406 76.941406 128.164062 77.019531 C 128.140625 77.09375 128.121094 77.171875 128.109375 77.25 C 128.019531 77.808594 127.894531 78.359375 127.726562 78.902344 C 127.652344 79.140625 127.585938 79.382812 127.554688 79.640625 C 127.574219 79.667969 127.53125 79.734375 127.589844 79.75 Z M 127.777344 60.867188 C 127.777344 60.898438 127.773438 60.933594 127.777344 60.964844 C 127.882812 61.648438 127.992188 62.332031 128.097656 63.011719 C 128.132812 63.210938 128.152344 63.417969 128.242188 63.605469 C 128.269531 63.664062 128.296875 63.75 128.382812 63.726562 C 128.472656 63.699219 128.445312 63.613281 128.433594 63.550781 C 128.328125 62.925781 128.207031 62.300781 128.042969 61.6875 C 127.96875 61.410156 127.886719 61.136719 127.808594 60.859375 C 127.800781 60.863281 127.789062 60.863281 127.777344 60.867188 Z M 125.386719 62.050781 C 125.714844 62.691406 126.042969 63.335938 126.375 63.972656 C 126.433594 64.085938 126.515625 64.183594 126.585938 64.285156 C 126.617188 64.328125 126.65625 64.371094 126.714844 64.34375 C 126.785156 64.3125 126.761719 64.25 126.742188 64.195312 C 126.730469 64.164062 126.714844 64.136719 126.699219 64.105469 C 126.347656 63.382812 125.910156 62.710938 125.488281 62.03125 C 125.453125 61.972656 125.421875 61.910156 125.339844 61.894531 C 125.320312 61.957031 125.359375 62.003906 125.386719 62.050781 Z M 127.390625 80.667969 C 127.503906 80.667969 127.558594 80.601562 127.5625 80.496094 C 127.566406 80.40625 127.515625 80.34375 127.417969 80.34375 C 127.304688 80.34375 127.257812 80.417969 127.238281 80.511719 C 127.246094 80.605469 127.296875 80.667969 127.390625 80.667969 Z M 124.5625 79.960938 C 124.5625 80.050781 124.621094 80.109375 124.71875 80.105469 C 124.816406 80.101562 124.878906 80.039062 124.878906 79.941406 C 124.875 79.847656 124.816406 79.800781 124.714844 79.792969 C 124.621094 79.804688 124.558594 79.859375 124.5625 79.960938 Z M 119.105469 67.464844 C 119.105469 67.554688 119.175781 67.605469 119.265625 67.613281 C 119.363281 67.621094 119.4375 67.570312 119.4375 67.46875 C 119.441406 67.375 119.375 67.332031 119.277344 67.320312 C 119.191406 67.332031 119.105469 67.355469 119.105469 67.464844 Z M 127.234375 59.273438 C 127.242188 59.367188 127.292969 59.433594 127.398438 59.433594 C 127.496094 59.429688 127.539062 59.363281 127.535156 59.273438 C 127.527344 59.175781 127.476562 59.117188 127.367188 59.113281 C 127.277344 59.125 127.230469 59.183594 127.234375 59.273438 Z M 118.222656 67.1875 C 118.230469 67.292969 118.304688 67.347656 118.410156 67.347656 C 118.496094 67.34375 118.550781 67.289062 118.546875 67.207031 C 118.546875 67.101562 118.46875 67.066406 118.363281 67.0625 C 118.292969 67.070312 118.214844 67.09375 118.222656 67.1875 Z M 124.96875 61.164062 C 124.878906 61.164062 124.828125 61.21875 124.832031 61.304688 C 124.832031 61.394531 124.882812 61.460938 124.980469 61.453125 C 125.066406 61.449219 125.105469 61.386719 125.113281 61.304688 C 125.101562 61.222656 125.058594 61.164062 124.96875 61.164062 Z M 119.128906 73.796875 C 119.214844 73.796875 119.277344 73.753906 119.285156 73.667969 C 119.289062 73.578125 119.238281 73.519531 119.140625 73.511719 C 119.046875 73.503906 118.992188 73.558594 118.972656 73.652344 C 118.984375 73.738281 119.03125 73.792969 119.128906 73.796875 Z M 120.8125 76.074219 C 120.910156 76.070312 120.960938 76.011719 120.960938 75.921875 C 120.960938 75.84375 120.90625 75.796875 120.828125 75.800781 C 120.730469 75.800781 120.683594 75.859375 120.675781 75.949219 C 120.6875 76.027344 120.730469 76.074219 120.8125 76.074219 Z M 127.597656 60.257812 C 127.679688 60.257812 127.730469 60.210938 127.730469 60.132812 C 127.730469 60.046875 127.683594 59.992188 127.597656 59.988281 C 127.511719 59.980469 127.476562 60.039062 127.46875 60.117188 C 127.472656 60.195312 127.507812 60.257812 127.597656 60.257812 Z M 127.066406 81.332031 C 127.070312 81.410156 127.121094 81.457031 127.203125 81.449219 C 127.285156 81.441406 127.320312 81.386719 127.320312 81.308594 C 127.320312 81.230469 127.277344 81.183594 127.195312 81.179688 C 127.105469 81.195312 127.058594 81.242188 127.066406 81.332031 Z M 124.457031 60.609375 C 124.457031 60.695312 124.507812 60.75 124.597656 60.746094 C 124.671875 60.742188 124.710938 60.6875 124.710938 60.617188 C 124.707031 60.539062 124.65625 60.496094 124.578125 60.488281 C 124.503906 60.496094 124.457031 60.535156 124.457031 60.609375 Z M 119.699219 73.476562 C 119.703125 73.554688 119.753906 73.601562 119.835938 73.597656 C 119.910156 73.597656 119.953125 73.554688 119.957031 73.480469 C 119.957031 73.402344 119.910156 73.359375 119.820312 73.347656 C 119.75 73.359375 119.699219 73.394531 119.699219 73.476562 Z M 120.214844 65.050781 C 120.214844 65.121094 120.25 65.167969 120.328125 65.171875 C 120.40625 65.179688 120.453125 65.136719 120.457031 65.066406 C 120.460938 64.988281 120.410156 64.945312 120.328125 64.929688 C 120.257812 64.941406 120.210938 64.976562 120.214844 65.050781 Z M 120.214844 65.050781 " fill-opacity="1" fill-rule="nonzero"/></g><g fill="#a6a6a6" fill-opacity="1"><g transform="translate(99.104004, 108.041015)"><g/></g></g></svg>