<svg xmlns="http://www.w3.org/2000/svg" xmlns:xlink="http://www.w3.org/1999/xlink" width="65" zoomAndPan="magnify" viewBox="0 0 48.75 33.749998" height="45" preserveAspectRatio="xMidYMid meet" version="1.0"><defs><g/><clipPath id="f5d0027160"><path d="M 24.621094 13.410156 L 27.617188 13.410156 L 27.617188 18.648438 L 24.621094 18.648438 Z M 24.621094 13.410156 " clip-rule="nonzero"/></clipPath></defs><g fill="#a6a6a6" fill-opacity="1"><g transform="translate(10.722378, 17.131037)"><g><path d="M 0.484375 0 L 0.15625 -0.328125 L 0.15625 -0.875 L 0.453125 -0.875 L 0.453125 -0.4375 L 0.625 -0.265625 L 1.09375 -0.265625 L 1.28125 -0.4375 L 1.28125 -2.34375 L 1.5625 -2.34375 L 1.5625 -0.328125 L 1.234375 0 Z M 0.484375 0 "/></g></g></g><g fill="#a6a6a6" fill-opacity="1"><g transform="translate(12.559099, 17.131037)"><g><path d="M 0.5625 0 L 0.21875 -0.328125 L 0.21875 -1.328125 L 0.5625 -1.671875 L 1.34375 -1.671875 L 1.6875 -1.328125 L 1.6875 -0.328125 L 1.34375 0 Z M 0.671875 -0.21875 L 1.234375 -0.21875 L 1.40625 -0.390625 L 1.40625 -1.265625 L 1.234375 -1.4375 L 0.671875 -1.4375 L 0.5 -1.265625 L 0.5 -0.390625 Z M 0.671875 -0.21875 "/></g></g></g><g fill="#a6a6a6" fill-opacity="1"><g transform="translate(14.462668, 17.131037)"><g><path d="M 0.265625 0 L 0.265625 -1.671875 L 0.546875 -1.671875 L 0.546875 -1.375 L 0.828125 -1.671875 L 1.453125 -1.671875 L 1.78125 -1.328125 L 1.78125 0 L 1.5 0 L 1.5 -1.265625 L 1.328125 -1.4375 L 0.90625 -1.4375 L 0.546875 -1.078125 L 0.546875 0 Z M 0.265625 0 "/></g></g></g><g fill="#a6a6a6" fill-opacity="1"><g transform="translate(16.484016, 17.131037)"><g><path d="M 0.4375 0 L 0.109375 -0.328125 L 0.109375 -0.71875 L 0.4375 -1.046875 L 1.296875 -1.046875 L 1.296875 -1.25 L 1.125 -1.4375 L 0.328125 -1.4375 L 0.328125 -1.671875 L 1.234375 -1.671875 L 1.578125 -1.328125 L 1.578125 0 L 1.296875 0 L 1.296875 -0.265625 L 1.03125 0 Z M 0.5625 -0.21875 L 0.96875 -0.21875 L 1.296875 -0.546875 L 1.296875 -0.828125 L 0.5625 -0.828125 L 0.390625 -0.65625 L 0.390625 -0.390625 Z M 0.5625 -0.21875 "/></g></g></g><g fill="#a6a6a6" fill-opacity="1"><g transform="translate(18.298454, 17.131037)"><g><path d="M 0.578125 0 L 0.28125 -0.296875 L 0.28125 -1.4375 L 0.109375 -1.4375 L 0.109375 -1.671875 L 0.28125 -1.671875 L 0.359375 -2.09375 L 0.5625 -2.09375 L 0.5625 -1.671875 L 0.921875 -1.671875 L 0.921875 -1.4375 L 0.5625 -1.4375 L 0.5625 -0.390625 L 0.703125 -0.234375 L 0.984375 -0.234375 L 0.984375 0 Z M 0.578125 0 "/></g></g></g><g fill="#a6a6a6" fill-opacity="1"><g transform="translate(19.364834, 17.131037)"><g><path d="M 0.265625 0 L 0.265625 -2.34375 L 0.546875 -2.34375 L 0.546875 -1.40625 L 0.796875 -1.671875 L 1.40625 -1.671875 L 1.75 -1.328125 L 1.75 0 L 1.46875 0 L 1.46875 -1.265625 L 1.296875 -1.4375 L 0.875 -1.4375 L 0.546875 -1.109375 L 0.546875 0 Z M 0.265625 0 "/></g></g></g><g fill="#a6a6a6" fill-opacity="1"><g transform="translate(21.351167, 17.131037)"><g><path d="M 0.4375 0 L 0.109375 -0.328125 L 0.109375 -0.71875 L 0.4375 -1.046875 L 1.296875 -1.046875 L 1.296875 -1.25 L 1.125 -1.4375 L 0.328125 -1.4375 L 0.328125 -1.671875 L 1.234375 -1.671875 L 1.578125 -1.328125 L 1.578125 0 L 1.296875 0 L 1.296875 -0.265625 L 1.03125 0 Z M 0.5625 -0.21875 L 0.96875 -0.21875 L 1.296875 -0.546875 L 1.296875 -0.828125 L 0.5625 -0.828125 L 0.390625 -0.65625 L 0.390625 -0.390625 Z M 0.5625 -0.21875 "/></g></g></g><g fill="#a6a6a6" fill-opacity="1"><g transform="translate(23.165605, 17.131037)"><g><path d="M 0.265625 0 L 0.265625 -1.671875 L 0.546875 -1.671875 L 0.546875 -1.375 L 0.828125 -1.671875 L 1.453125 -1.671875 L 1.78125 -1.328125 L 1.78125 0 L 1.5 0 L 1.5 -1.265625 L 1.328125 -1.4375 L 0.90625 -1.4375 L 0.546875 -1.078125 L 0.546875 0 Z M 0.265625 0 "/></g></g></g><g fill="#a6a6a6" fill-opacity="1"><g transform="translate(25.186953, 17.131037)"><g/></g></g><g fill="#a6a6a6" fill-opacity="1"><g transform="translate(25.893629, 17.131037)"><g/></g></g><g fill="#a6a6a6" fill-opacity="1"><g transform="translate(26.600305, 17.131037)"><g/></g></g><g fill="#a6a6a6" fill-opacity="1"><g transform="translate(27.306981, 17.131037)"><g/></g></g><g fill="#a6a6a6" fill-opacity="1"><g transform="translate(28.013656, 17.131037)"><g><path d="M 0.265625 0 L 0.265625 -2.34375 L 0.546875 -2.34375 L 0.546875 -1.40625 L 0.796875 -1.671875 L 1.40625 -1.671875 L 1.75 -1.328125 L 1.75 0 L 1.46875 0 L 1.46875 -1.265625 L 1.296875 -1.4375 L 0.875 -1.4375 L 0.546875 -1.109375 L 0.546875 0 Z M 0.265625 0 "/></g></g></g><g fill="#a6a6a6" fill-opacity="1"><g transform="translate(29.999989, 17.131037)"><g><path d="M 0.4375 0 L 0.109375 -0.328125 L 0.109375 -0.71875 L 0.4375 -1.046875 L 1.296875 -1.046875 L 1.296875 -1.25 L 1.125 -1.4375 L 0.328125 -1.4375 L 0.328125 -1.671875 L 1.234375 -1.671875 L 1.578125 -1.328125 L 1.578125 0 L 1.296875 0 L 1.296875 -0.265625 L 1.03125 0 Z M 0.5625 -0.21875 L 0.96875 -0.21875 L 1.296875 -0.546875 L 1.296875 -0.828125 L 0.5625 -0.828125 L 0.390625 -0.65625 L 0.390625 -0.390625 Z M 0.5625 -0.21875 "/></g></g></g><g fill="#a6a6a6" fill-opacity="1"><g transform="translate(31.814427, 17.131037)"><g><path d="M 0.75 0 L 0.046875 -1.671875 L 0.34375 -1.671875 L 0.890625 -0.28125 L 0.953125 -0.28125 L 1.5 -1.671875 L 1.796875 -1.671875 L 1.09375 0 Z M 0.75 0 "/></g></g></g><g fill="#a6a6a6" fill-opacity="1"><g transform="translate(33.657514, 17.131037)"><g><path d="M 0.5625 0 L 0.21875 -0.328125 L 0.21875 -1.328125 L 0.5625 -1.671875 L 1.296875 -1.671875 L 1.640625 -1.328125 L 1.640625 -0.734375 L 0.5 -0.734375 L 0.5 -0.40625 L 0.671875 -0.234375 L 1.609375 -0.234375 L 1.609375 0 Z M 0.5 -0.953125 L 1.359375 -0.953125 L 1.359375 -1.265625 L 1.171875 -1.4375 L 0.671875 -1.4375 L 0.5 -1.265625 Z M 0.5 -0.953125 "/></g></g></g><g fill="#a6a6a6" fill-opacity="1"><g transform="translate(35.513335, 17.131037)"><g><path d="M 0.171875 0 L 0.171875 -0.28125 L 1.203125 -1.4375 L 0.25 -1.4375 L 0.25 -1.671875 L 1.53125 -1.671875 L 1.53125 -1.375 L 0.484375 -0.234375 L 1.546875 -0.234375 L 1.546875 0 Z M 0.171875 0 "/></g></g></g><g fill="#a6a6a6" fill-opacity="1"><g transform="translate(20.810775, 19.416691)"><g><path d="M 0.15625 0 L 0.015625 -0.578125 L 0.09375 -0.578125 L 0.203125 -0.078125 L 0.21875 -0.078125 L 0.328125 -0.578125 L 0.390625 -0.578125 L 0.515625 -0.078125 L 0.640625 -0.578125 L 0.703125 -0.578125 L 0.578125 0 L 0.453125 0 L 0.359375 -0.4375 L 0.265625 0 Z M 0.15625 0 "/></g></g></g><g fill="#a6a6a6" fill-opacity="1"><g transform="translate(21.578742, 19.416691)"><g><path d="M 0.140625 0 L 0.046875 -0.09375 L 0.046875 -0.328125 L 0.140625 -0.40625 L 0.328125 -0.40625 L 0.40625 -0.328125 L 0.40625 -0.1875 L 0.125 -0.1875 L 0.125 -0.09375 L 0.171875 -0.0625 L 0.390625 -0.0625 L 0.390625 0 Z M 0.125 -0.234375 L 0.328125 -0.234375 L 0.328125 -0.3125 L 0.296875 -0.359375 L 0.171875 -0.359375 L 0.125 -0.3125 Z M 0.125 -0.234375 "/></g></g></g><g fill="#a6a6a6" fill-opacity="1"><g transform="translate(22.087557, 19.416691)"><g><path d="M 0.0625 0 L 0.0625 -0.578125 L 0.140625 -0.578125 L 0.140625 -0.34375 L 0.203125 -0.40625 L 0.34375 -0.40625 L 0.4375 -0.328125 L 0.4375 -0.09375 L 0.34375 0 L 0.203125 0 L 0.140625 -0.0625 L 0.140625 0 Z M 0.21875 -0.046875 L 0.328125 -0.046875 L 0.359375 -0.09375 L 0.359375 -0.3125 L 0.328125 -0.359375 L 0.21875 -0.359375 L 0.140625 -0.265625 L 0.140625 -0.140625 Z M 0.21875 -0.046875 "/></g></g></g><g fill="#a6a6a6" fill-opacity="1"><g transform="translate(22.623401, 19.416691)"><g/></g></g><g fill="#a6a6a6" fill-opacity="1"><g transform="translate(22.845241, 19.416691)"><g><path d="M 0.078125 0 L 0.078125 -0.578125 L 0.390625 -0.578125 L 0.515625 -0.453125 L 0.515625 -0.125 L 0.390625 0 Z M 0.140625 -0.0625 L 0.359375 -0.0625 L 0.4375 -0.15625 L 0.4375 -0.4375 L 0.359375 -0.515625 L 0.140625 -0.515625 Z M 0.140625 -0.0625 "/></g></g></g><g fill="#a6a6a6" fill-opacity="1"><g transform="translate(23.451039, 19.416691)"><g><path d="M 0.140625 0 L 0.046875 -0.09375 L 0.046875 -0.328125 L 0.140625 -0.40625 L 0.328125 -0.40625 L 0.40625 -0.328125 L 0.40625 -0.1875 L 0.125 -0.1875 L 0.125 -0.09375 L 0.171875 -0.0625 L 0.390625 -0.0625 L 0.390625 0 Z M 0.125 -0.234375 L 0.328125 -0.234375 L 0.328125 -0.3125 L 0.296875 -0.359375 L 0.171875 -0.359375 L 0.125 -0.3125 Z M 0.125 -0.234375 "/></g></g></g><g fill="#a6a6a6" fill-opacity="1"><g transform="translate(23.959855, 19.416691)"><g><path d="M 0.1875 0 L 0.015625 -0.40625 L 0.09375 -0.40625 L 0.21875 -0.078125 L 0.234375 -0.078125 L 0.375 -0.40625 L 0.453125 -0.40625 L 0.265625 0 Z M 0.1875 0 "/></g></g></g><g fill="#a6a6a6" fill-opacity="1"><g transform="translate(24.46549, 19.416691)"><g><path d="M 0.140625 0 L 0.046875 -0.09375 L 0.046875 -0.328125 L 0.140625 -0.40625 L 0.328125 -0.40625 L 0.40625 -0.328125 L 0.40625 -0.1875 L 0.125 -0.1875 L 0.125 -0.09375 L 0.171875 -0.0625 L 0.390625 -0.0625 L 0.390625 0 Z M 0.125 -0.234375 L 0.328125 -0.234375 L 0.328125 -0.3125 L 0.296875 -0.359375 L 0.171875 -0.359375 L 0.125 -0.3125 Z M 0.125 -0.234375 "/></g></g></g><g fill="#a6a6a6" fill-opacity="1"><g transform="translate(24.974306, 19.416691)"><g><path d="M 0.0625 0 L 0.0625 -0.578125 L 0.140625 -0.578125 L 0.140625 0 Z M 0.0625 0 "/></g></g></g><g fill="#a6a6a6" fill-opacity="1"><g transform="translate(25.219199, 19.416691)"><g><path d="M 0.140625 0 L 0.046875 -0.09375 L 0.046875 -0.328125 L 0.140625 -0.40625 L 0.328125 -0.40625 L 0.421875 -0.328125 L 0.421875 -0.09375 L 0.328125 0 Z M 0.171875 -0.046875 L 0.3125 -0.046875 L 0.34375 -0.09375 L 0.34375 -0.3125 L 0.3125 -0.359375 L 0.171875 -0.359375 L 0.125 -0.3125 L 0.125 -0.09375 Z M 0.171875 -0.046875 "/></g></g></g><g fill="#a6a6a6" fill-opacity="1"><g transform="translate(25.739939, 19.416691)"><g><path d="M 0.0625 0.15625 L 0.0625 -0.40625 L 0.140625 -0.40625 L 0.140625 -0.34375 L 0.203125 -0.40625 L 0.34375 -0.40625 L 0.4375 -0.328125 L 0.4375 -0.09375 L 0.34375 0 L 0.203125 0 L 0.140625 -0.0625 L 0.140625 0.15625 Z M 0.21875 -0.046875 L 0.328125 -0.046875 L 0.359375 -0.09375 L 0.359375 -0.3125 L 0.328125 -0.359375 L 0.21875 -0.359375 L 0.140625 -0.265625 L 0.140625 -0.140625 Z M 0.21875 -0.046875 "/></g></g></g><g fill="#a6a6a6" fill-opacity="1"><g transform="translate(26.275782, 19.416691)"><g><path d="M 0.140625 0 L 0.046875 -0.09375 L 0.046875 -0.328125 L 0.140625 -0.40625 L 0.328125 -0.40625 L 0.40625 -0.328125 L 0.40625 -0.1875 L 0.125 -0.1875 L 0.125 -0.09375 L 0.171875 -0.0625 L 0.390625 -0.0625 L 0.390625 0 Z M 0.125 -0.234375 L 0.328125 -0.234375 L 0.328125 -0.3125 L 0.296875 -0.359375 L 0.171875 -0.359375 L 0.125 -0.3125 Z M 0.125 -0.234375 "/></g></g></g><g fill="#a6a6a6" fill-opacity="1"><g transform="translate(26.784597, 19.416691)"><g><path d="M 0.0625 0 L 0.0625 -0.40625 L 0.140625 -0.40625 L 0.140625 -0.328125 L 0.21875 -0.40625 L 0.3125 -0.40625 L 0.3125 -0.34375 L 0.21875 -0.34375 L 0.140625 -0.265625 L 0.140625 0 Z M 0.0625 0 "/></g></g></g><g clip-path="url(#f5d0027160)"><path fill="#a6a6a6" d="M 25.515625 14.179688 C 25.546875 14.191406 25.566406 14.210938 25.585938 14.226562 C 25.699219 14.332031 25.816406 14.4375 25.925781 14.546875 C 26.039062 14.65625 26.15625 14.757812 26.269531 14.863281 C 26.398438 14.988281 26.550781 15.089844 26.675781 15.214844 C 26.6875 15.226562 26.710938 15.238281 26.695312 15.257812 C 26.679688 15.269531 26.660156 15.253906 26.648438 15.242188 C 26.5625 15.167969 26.476562 15.089844 26.394531 15.015625 C 26.261719 14.894531 26.132812 14.773438 25.996094 14.65625 C 25.910156 14.582031 25.828125 14.5 25.746094 14.417969 C 25.679688 14.351562 25.613281 14.285156 25.546875 14.222656 C 25.535156 14.210938 25.519531 14.199219 25.515625 14.179688 Z M 25.65625 17.945312 C 25.726562 17.886719 25.792969 17.828125 25.859375 17.765625 C 26.101562 17.550781 26.328125 17.316406 26.566406 17.09375 C 26.609375 17.054688 26.648438 17.007812 26.6875 16.960938 C 26.691406 16.953125 26.703125 16.945312 26.691406 16.9375 C 26.679688 16.925781 26.671875 16.933594 26.664062 16.941406 C 26.640625 16.960938 26.617188 16.980469 26.597656 17.003906 C 26.367188 17.257812 26.097656 17.476562 25.859375 17.722656 C 25.785156 17.800781 25.703125 17.871094 25.632812 17.957031 C 25.648438 17.957031 25.652344 17.953125 25.65625 17.945312 Z M 27.554688 13.441406 C 27.550781 13.585938 27.542969 13.726562 27.542969 13.871094 C 27.539062 14.015625 27.546875 14.15625 27.558594 14.296875 C 27.570312 14.425781 27.566406 14.558594 27.570312 14.6875 C 27.570312 14.753906 27.574219 14.820312 27.574219 14.882812 C 27.578125 14.894531 27.574219 14.914062 27.585938 14.914062 C 27.605469 14.914062 27.601562 14.894531 27.605469 14.882812 C 27.609375 14.847656 27.605469 14.808594 27.601562 14.769531 C 27.585938 14.605469 27.582031 14.4375 27.585938 14.269531 C 27.59375 13.996094 27.578125 13.722656 27.574219 13.453125 C 27.574219 13.441406 27.574219 13.429688 27.566406 13.417969 C 27.554688 13.425781 27.554688 13.433594 27.554688 13.441406 Z M 24.65625 16.105469 C 24.777344 16.113281 24.898438 16.113281 25.019531 16.113281 C 25.257812 16.113281 25.5 16.097656 25.738281 16.09375 C 25.910156 16.09375 26.082031 16.101562 26.257812 16.105469 C 26.273438 16.109375 26.292969 16.109375 26.3125 16.101562 C 26.316406 16.097656 26.324219 16.097656 26.324219 16.089844 C 26.324219 16.082031 26.316406 16.078125 26.308594 16.078125 C 26.300781 16.078125 26.292969 16.074219 26.285156 16.074219 C 26.1875 16.074219 26.085938 16.070312 25.988281 16.070312 C 25.824219 16.070312 25.660156 16.078125 25.496094 16.082031 C 25.3125 16.085938 25.128906 16.085938 24.945312 16.085938 C 24.839844 16.089844 24.734375 16.085938 24.621094 16.097656 C 24.636719 16.105469 24.648438 16.105469 24.65625 16.105469 Z M 26.621094 13.84375 C 26.738281 14.140625 26.859375 14.4375 26.980469 14.730469 C 27.011719 14.808594 27.050781 14.886719 27.085938 14.964844 C 27.089844 14.976562 27.09375 14.992188 27.113281 14.988281 C 27.128906 14.980469 27.121094 14.964844 27.117188 14.957031 C 27.101562 14.917969 27.089844 14.875 27.074219 14.839844 C 26.929688 14.527344 26.800781 14.214844 26.667969 13.902344 C 26.648438 13.859375 26.628906 13.820312 26.605469 13.785156 C 26.601562 13.808594 26.613281 13.828125 26.621094 13.84375 Z M 27.574219 18.625 C 27.578125 18.453125 27.585938 18.28125 27.59375 18.109375 C 27.597656 17.882812 27.59375 17.660156 27.613281 17.4375 C 27.617188 17.390625 27.613281 17.347656 27.605469 17.300781 C 27.601562 17.289062 27.601562 17.273438 27.585938 17.273438 C 27.570312 17.277344 27.570312 17.292969 27.570312 17.300781 C 27.570312 17.375 27.5625 17.445312 27.570312 17.515625 C 27.574219 17.625 27.578125 17.734375 27.570312 17.84375 C 27.554688 18.074219 27.550781 18.300781 27.558594 18.53125 C 27.558594 18.566406 27.558594 18.605469 27.574219 18.640625 C 27.574219 18.636719 27.574219 18.632812 27.574219 18.625 Z M 25.28125 17.050781 C 25.472656 16.96875 25.664062 16.894531 25.855469 16.820312 C 26.023438 16.753906 26.191406 16.691406 26.355469 16.628906 C 26.378906 16.621094 26.398438 16.609375 26.417969 16.601562 C 26.425781 16.597656 26.433594 16.589844 26.429688 16.582031 C 26.425781 16.570312 26.417969 16.570312 26.40625 16.570312 C 26.398438 16.574219 26.390625 16.574219 26.382812 16.578125 C 26.34375 16.59375 26.300781 16.609375 26.261719 16.628906 C 26.058594 16.722656 25.847656 16.804688 25.636719 16.875 C 25.507812 16.917969 25.382812 16.964844 25.265625 17.03125 C 25.253906 17.039062 25.238281 17.046875 25.230469 17.0625 C 25.25 17.066406 25.265625 17.058594 25.28125 17.050781 Z M 26.6875 18.273438 C 26.757812 18.09375 26.824219 17.914062 26.894531 17.738281 C 26.957031 17.589844 27.027344 17.449219 27.09375 17.300781 C 27.105469 17.273438 27.117188 17.246094 27.125 17.214844 C 27.125 17.207031 27.125 17.195312 27.113281 17.191406 C 27.101562 17.1875 27.09375 17.195312 27.089844 17.207031 C 27.085938 17.210938 27.085938 17.214844 27.082031 17.222656 C 27.023438 17.398438 26.949219 17.570312 26.875 17.738281 C 26.785156 17.9375 26.699219 18.132812 26.632812 18.339844 C 26.628906 18.355469 26.621094 18.371094 26.628906 18.394531 C 26.65625 18.351562 26.671875 18.3125 26.6875 18.273438 Z M 25.160156 15.199219 C 25.226562 15.230469 25.296875 15.253906 25.367188 15.277344 C 25.582031 15.351562 25.796875 15.425781 26.011719 15.5 C 26.136719 15.542969 26.257812 15.585938 26.382812 15.632812 C 26.398438 15.636719 26.421875 15.648438 26.429688 15.625 C 26.4375 15.605469 26.410156 15.601562 26.394531 15.597656 C 26.308594 15.570312 26.21875 15.546875 26.132812 15.515625 C 25.859375 15.421875 25.589844 15.328125 25.316406 15.234375 C 25.253906 15.210938 25.191406 15.1875 25.125 15.175781 C 25.136719 15.191406 25.148438 15.195312 25.160156 15.199219 Z M 25.898438 14.933594 C 26.039062 15.03125 26.1875 15.121094 26.324219 15.222656 C 26.390625 15.273438 26.460938 15.320312 26.53125 15.367188 C 26.542969 15.375 26.566406 15.394531 26.578125 15.375 C 26.597656 15.355469 26.570312 15.347656 26.554688 15.335938 C 26.53125 15.316406 26.503906 15.300781 26.476562 15.285156 C 26.382812 15.226562 26.289062 15.171875 26.203125 15.109375 C 26.09375 15.027344 25.976562 14.949219 25.863281 14.875 C 25.835938 14.859375 25.808594 14.839844 25.777344 14.835938 C 25.8125 14.871094 25.855469 14.902344 25.898438 14.933594 Z M 27.339844 18.117188 C 27.363281 17.878906 27.390625 17.640625 27.433594 17.40625 C 27.441406 17.367188 27.449219 17.332031 27.445312 17.292969 C 27.445312 17.285156 27.445312 17.269531 27.425781 17.269531 C 27.410156 17.269531 27.410156 17.285156 27.410156 17.292969 C 27.402344 17.339844 27.394531 17.386719 27.390625 17.433594 C 27.371094 17.605469 27.347656 17.777344 27.328125 17.949219 C 27.316406 18.035156 27.320312 18.117188 27.328125 18.203125 C 27.332031 18.175781 27.335938 18.144531 27.339844 18.117188 Z M 26.144531 14.402344 C 26.148438 14.410156 26.152344 14.417969 26.15625 14.421875 C 26.238281 14.519531 26.320312 14.617188 26.402344 14.710938 C 26.453125 14.769531 26.507812 14.828125 26.558594 14.886719 C 26.613281 14.957031 26.671875 15.027344 26.730469 15.09375 C 26.746094 15.117188 26.765625 15.136719 26.789062 15.152344 C 26.796875 15.15625 26.804688 15.164062 26.8125 15.15625 C 26.824219 15.148438 26.820312 15.136719 26.8125 15.128906 C 26.8125 15.125 26.804688 15.121094 26.800781 15.117188 C 26.769531 15.082031 26.734375 15.042969 26.699219 15.007812 C 26.617188 14.917969 26.535156 14.828125 26.457031 14.738281 C 26.378906 14.636719 26.292969 14.542969 26.203125 14.449219 C 26.1875 14.429688 26.171875 14.410156 26.15625 14.390625 C 26.152344 14.394531 26.148438 14.398438 26.144531 14.402344 Z M 26.285156 17.753906 C 26.460938 17.539062 26.621094 17.308594 26.804688 17.09375 C 26.8125 17.082031 26.816406 17.074219 26.820312 17.0625 C 26.824219 17.054688 26.828125 17.042969 26.816406 17.039062 C 26.804688 17.03125 26.800781 17.042969 26.796875 17.050781 C 26.773438 17.078125 26.753906 17.105469 26.730469 17.132812 C 26.617188 17.292969 26.484375 17.441406 26.371094 17.597656 C 26.332031 17.65625 26.285156 17.710938 26.253906 17.777344 C 26.273438 17.773438 26.277344 17.761719 26.285156 17.753906 Z M 25.949219 17.378906 C 26.089844 17.277344 26.214844 17.164062 26.351562 17.0625 C 26.425781 17.003906 26.503906 16.945312 26.578125 16.886719 C 26.589844 16.875 26.617188 16.863281 26.597656 16.84375 C 26.582031 16.828125 26.570312 16.851562 26.558594 16.859375 C 26.433594 16.960938 26.320312 17.066406 26.1875 17.15625 C 26.085938 17.222656 26 17.300781 25.917969 17.394531 C 25.933594 17.394531 25.941406 17.382812 25.949219 17.378906 Z M 25.539062 15.855469 C 25.566406 15.859375 25.59375 15.867188 25.625 15.867188 C 25.839844 15.882812 26.054688 15.910156 26.269531 15.945312 C 26.28125 15.945312 26.292969 15.945312 26.308594 15.945312 C 26.316406 15.945312 26.324219 15.941406 26.324219 15.933594 C 26.328125 15.921875 26.320312 15.917969 26.3125 15.917969 C 26.289062 15.914062 26.269531 15.90625 26.25 15.90625 C 26.046875 15.882812 25.847656 15.863281 25.644531 15.847656 C 25.609375 15.84375 25.570312 15.84375 25.527344 15.847656 C 25.535156 15.855469 25.535156 15.855469 25.539062 15.855469 Z M 25.617188 16.386719 C 25.71875 16.375 25.816406 16.355469 25.917969 16.339844 C 26.03125 16.324219 26.144531 16.3125 26.257812 16.296875 C 26.273438 16.296875 26.289062 16.292969 26.304688 16.289062 C 26.316406 16.285156 26.332031 16.28125 26.328125 16.265625 C 26.328125 16.25 26.3125 16.253906 26.300781 16.253906 C 26.289062 16.253906 26.277344 16.257812 26.269531 16.257812 C 26.089844 16.285156 25.914062 16.316406 25.738281 16.34375 C 25.6875 16.351562 25.636719 16.359375 25.585938 16.382812 C 25.601562 16.390625 25.609375 16.386719 25.617188 16.386719 Z M 26.714844 17.632812 C 26.75 17.570312 26.785156 17.503906 26.816406 17.441406 C 26.859375 17.355469 26.921875 17.277344 26.964844 17.191406 C 26.972656 17.175781 26.980469 17.164062 26.980469 17.148438 C 26.980469 17.140625 26.980469 17.132812 26.972656 17.128906 C 26.964844 17.128906 26.957031 17.132812 26.953125 17.136719 C 26.941406 17.152344 26.929688 17.167969 26.921875 17.1875 C 26.84375 17.328125 26.765625 17.472656 26.691406 17.617188 C 26.679688 17.636719 26.667969 17.65625 26.671875 17.679688 C 26.695312 17.671875 26.703125 17.648438 26.714844 17.632812 Z M 25.777344 15.648438 C 25.84375 15.667969 25.910156 15.6875 25.980469 15.699219 C 26.089844 15.722656 26.199219 15.761719 26.316406 15.773438 C 26.332031 15.777344 26.363281 15.789062 26.367188 15.765625 C 26.375 15.738281 26.339844 15.738281 26.324219 15.734375 C 26.183594 15.71875 26.046875 15.679688 25.910156 15.652344 C 25.859375 15.640625 25.804688 15.636719 25.75 15.640625 C 25.757812 15.644531 25.769531 15.648438 25.777344 15.648438 Z M 27.320312 14.054688 C 27.328125 14.101562 27.328125 14.144531 27.335938 14.1875 C 27.363281 14.347656 27.382812 14.507812 27.398438 14.667969 C 27.402344 14.738281 27.410156 14.8125 27.425781 14.882812 C 27.429688 14.894531 27.429688 14.914062 27.445312 14.914062 C 27.464844 14.910156 27.457031 14.890625 27.453125 14.878906 C 27.441406 14.792969 27.425781 14.703125 27.414062 14.613281 C 27.398438 14.460938 27.378906 14.308594 27.351562 14.15625 C 27.347656 14.121094 27.335938 14.089844 27.328125 14.054688 C 27.324219 14.054688 27.324219 14.054688 27.320312 14.054688 Z M 25.941406 15.25 C 26.039062 15.304688 26.144531 15.347656 26.242188 15.402344 C 26.300781 15.433594 26.363281 15.460938 26.425781 15.492188 C 26.4375 15.5 26.453125 15.503906 26.46875 15.503906 C 26.476562 15.503906 26.484375 15.507812 26.488281 15.496094 C 26.492188 15.488281 26.484375 15.484375 26.476562 15.480469 C 26.457031 15.46875 26.433594 15.457031 26.414062 15.445312 C 26.289062 15.390625 26.167969 15.339844 26.050781 15.273438 C 26.011719 15.25 25.972656 15.230469 25.925781 15.21875 C 25.921875 15.214844 25.910156 15.207031 25.90625 15.222656 C 25.914062 15.238281 25.929688 15.242188 25.941406 15.25 Z M 25.863281 16.617188 C 26.015625 16.574219 26.167969 16.53125 26.320312 16.492188 C 26.335938 16.484375 26.355469 16.480469 26.367188 16.472656 C 26.375 16.464844 26.378906 16.457031 26.375 16.449219 C 26.371094 16.441406 26.363281 16.4375 26.355469 16.441406 C 26.339844 16.441406 26.328125 16.445312 26.316406 16.449219 C 26.164062 16.496094 26.015625 16.546875 25.863281 16.597656 C 25.851562 16.601562 25.839844 16.605469 25.832031 16.617188 C 25.84375 16.625 25.855469 16.621094 25.863281 16.617188 Z M 26.058594 16.992188 C 26.175781 16.917969 26.300781 16.863281 26.417969 16.789062 C 26.445312 16.773438 26.472656 16.753906 26.496094 16.738281 C 26.503906 16.730469 26.511719 16.722656 26.503906 16.714844 C 26.5 16.707031 26.488281 16.707031 26.480469 16.710938 C 26.46875 16.714844 26.457031 16.722656 26.449219 16.726562 C 26.324219 16.808594 26.195312 16.882812 26.066406 16.957031 C 26.039062 16.972656 26.015625 16.992188 25.988281 17.019531 C 26.019531 17.011719 26.039062 17.003906 26.058594 16.992188 Z M 27.128906 17.742188 C 27.140625 17.746094 27.144531 17.734375 27.148438 17.726562 C 27.152344 17.710938 27.160156 17.695312 27.164062 17.679688 C 27.1875 17.582031 27.214844 17.488281 27.246094 17.394531 C 27.257812 17.355469 27.265625 17.316406 27.277344 17.277344 C 27.28125 17.261719 27.28125 17.246094 27.265625 17.242188 C 27.246094 17.238281 27.238281 17.253906 27.234375 17.265625 C 27.230469 17.28125 27.226562 17.292969 27.222656 17.308594 C 27.207031 17.40625 27.183594 17.5 27.15625 17.597656 C 27.140625 17.636719 27.128906 17.679688 27.125 17.722656 C 27.128906 17.730469 27.121094 17.742188 27.128906 17.742188 Z M 27.164062 14.453125 C 27.164062 14.457031 27.164062 14.464844 27.164062 14.46875 C 27.183594 14.585938 27.203125 14.707031 27.222656 14.824219 C 27.226562 14.859375 27.230469 14.894531 27.25 14.929688 C 27.253906 14.9375 27.257812 14.953125 27.273438 14.949219 C 27.289062 14.945312 27.285156 14.929688 27.28125 14.917969 C 27.265625 14.808594 27.242188 14.703125 27.210938 14.59375 C 27.199219 14.546875 27.183594 14.5 27.171875 14.449219 C 27.167969 14.449219 27.164062 14.449219 27.164062 14.453125 Z M 26.730469 14.65625 C 26.789062 14.769531 26.847656 14.882812 26.910156 14.992188 C 26.921875 15.011719 26.933594 15.03125 26.949219 15.046875 C 26.953125 15.054688 26.960938 15.0625 26.972656 15.058594 C 26.984375 15.050781 26.980469 15.042969 26.976562 15.03125 C 26.972656 15.027344 26.972656 15.019531 26.96875 15.015625 C 26.90625 14.890625 26.824219 14.773438 26.75 14.652344 C 26.742188 14.644531 26.734375 14.632812 26.722656 14.628906 C 26.71875 14.640625 26.726562 14.648438 26.730469 14.65625 Z M 27.09375 17.902344 C 27.113281 17.902344 27.125 17.890625 27.125 17.875 C 27.125 17.859375 27.117188 17.847656 27.097656 17.847656 C 27.078125 17.847656 27.070312 17.859375 27.066406 17.875 C 27.066406 17.894531 27.078125 17.902344 27.09375 17.902344 Z M 26.582031 17.78125 C 26.582031 17.796875 26.589844 17.804688 26.609375 17.804688 C 26.625 17.804688 26.636719 17.792969 26.636719 17.777344 C 26.636719 17.761719 26.625 17.753906 26.609375 17.75 C 26.589844 17.753906 26.578125 17.761719 26.582031 17.78125 Z M 25.589844 15.601562 C 25.589844 15.617188 25.601562 15.625 25.617188 15.628906 C 25.636719 15.628906 25.648438 15.621094 25.652344 15.601562 C 25.652344 15.585938 25.640625 15.578125 25.621094 15.578125 C 25.605469 15.578125 25.589844 15.582031 25.589844 15.601562 Z M 27.066406 14.171875 C 27.066406 14.191406 27.078125 14.203125 27.09375 14.203125 C 27.113281 14.199219 27.121094 14.1875 27.121094 14.171875 C 27.117188 14.15625 27.109375 14.144531 27.089844 14.144531 C 27.074219 14.148438 27.066406 14.15625 27.066406 14.171875 Z M 25.429688 15.554688 C 25.429688 15.570312 25.445312 15.582031 25.464844 15.582031 C 25.480469 15.582031 25.488281 15.570312 25.488281 15.554688 C 25.488281 15.539062 25.472656 15.53125 25.457031 15.53125 C 25.441406 15.53125 25.429688 15.535156 25.429688 15.554688 Z M 26.652344 14.503906 C 26.636719 14.503906 26.628906 14.511719 26.628906 14.527344 C 26.628906 14.542969 26.636719 14.554688 26.65625 14.554688 C 26.671875 14.554688 26.679688 14.542969 26.679688 14.527344 C 26.679688 14.511719 26.671875 14.503906 26.652344 14.503906 Z M 25.59375 16.707031 C 25.609375 16.707031 25.621094 16.699219 25.621094 16.683594 C 25.625 16.667969 25.613281 16.65625 25.597656 16.65625 C 25.578125 16.65625 25.570312 16.664062 25.566406 16.679688 C 25.570312 16.695312 25.578125 16.707031 25.59375 16.707031 Z M 25.898438 17.101562 C 25.917969 17.101562 25.925781 17.09375 25.925781 17.074219 C 25.925781 17.0625 25.917969 17.054688 25.902344 17.054688 C 25.886719 17.054688 25.875 17.066406 25.875 17.082031 C 25.878906 17.09375 25.886719 17.101562 25.898438 17.101562 Z M 27.132812 14.34375 C 27.144531 14.34375 27.15625 14.335938 27.15625 14.324219 C 27.15625 14.308594 27.148438 14.300781 27.132812 14.296875 C 27.117188 14.296875 27.109375 14.308594 27.109375 14.320312 C 27.109375 14.335938 27.113281 14.34375 27.132812 14.34375 Z M 27.035156 18.019531 C 27.035156 18.03125 27.042969 18.039062 27.058594 18.039062 C 27.074219 18.039062 27.082031 18.027344 27.082031 18.015625 C 27.082031 18 27.074219 17.992188 27.058594 17.992188 C 27.042969 17.996094 27.035156 18.003906 27.035156 18.019531 Z M 26.5625 14.40625 C 26.5625 14.421875 26.570312 14.429688 26.585938 14.429688 C 26.601562 14.429688 26.609375 14.421875 26.605469 14.40625 C 26.605469 14.394531 26.597656 14.386719 26.582031 14.386719 C 26.570312 14.386719 26.5625 14.394531 26.5625 14.40625 Z M 25.699219 16.648438 C 25.699219 16.664062 25.707031 16.671875 25.722656 16.671875 C 25.738281 16.671875 25.742188 16.664062 25.746094 16.652344 C 25.746094 16.636719 25.734375 16.628906 25.71875 16.628906 C 25.707031 16.628906 25.699219 16.636719 25.699219 16.648438 Z M 25.792969 15.179688 C 25.792969 15.191406 25.796875 15.203125 25.8125 15.203125 C 25.824219 15.203125 25.835938 15.195312 25.835938 15.183594 C 25.835938 15.167969 25.828125 15.164062 25.8125 15.160156 C 25.800781 15.160156 25.789062 15.167969 25.792969 15.179688 Z M 25.792969 15.179688 " fill-opacity="1" fill-rule="nonzero"/><path fill="#a6a6a6" d="M 25.515625 14.179688 C 25.546875 14.191406 25.566406 14.210938 25.585938 14.226562 C 25.699219 14.332031 25.816406 14.4375 25.925781 14.546875 C 26.039062 14.65625 26.15625 14.757812 26.269531 14.863281 C 26.398438 14.988281 26.550781 15.089844 26.675781 15.214844 C 26.6875 15.226562 26.710938 15.238281 26.695312 15.257812 C 26.679688 15.269531 26.660156 15.253906 26.648438 15.242188 C 26.5625 15.167969 26.476562 15.089844 26.394531 15.015625 C 26.261719 14.894531 26.132812 14.773438 25.996094 14.65625 C 25.910156 14.582031 25.828125 14.5 25.746094 14.417969 C 25.679688 14.351562 25.613281 14.285156 25.546875 14.222656 C 25.535156 14.210938 25.519531 14.199219 25.515625 14.179688 Z M 25.65625 17.945312 C 25.726562 17.886719 25.792969 17.828125 25.859375 17.765625 C 26.101562 17.550781 26.328125 17.316406 26.566406 17.09375 C 26.609375 17.054688 26.648438 17.007812 26.6875 16.960938 C 26.691406 16.953125 26.703125 16.945312 26.691406 16.9375 C 26.679688 16.925781 26.671875 16.933594 26.664062 16.941406 C 26.640625 16.960938 26.617188 16.980469 26.597656 17.003906 C 26.367188 17.257812 26.097656 17.476562 25.859375 17.722656 C 25.785156 17.800781 25.703125 17.871094 25.632812 17.957031 C 25.648438 17.957031 25.652344 17.953125 25.65625 17.945312 Z M 27.554688 13.441406 C 27.550781 13.585938 27.542969 13.726562 27.542969 13.871094 C 27.539062 14.015625 27.546875 14.15625 27.558594 14.296875 C 27.570312 14.425781 27.566406 14.558594 27.570312 14.6875 C 27.570312 14.753906 27.574219 14.820312 27.574219 14.882812 C 27.578125 14.894531 27.574219 14.914062 27.585938 14.914062 C 27.605469 14.914062 27.601562 14.894531 27.605469 14.882812 C 27.609375 14.847656 27.605469 14.808594 27.601562 14.769531 C 27.585938 14.605469 27.582031 14.4375 27.585938 14.269531 C 27.59375 13.996094 27.578125 13.722656 27.574219 13.453125 C 27.574219 13.441406 27.574219 13.429688 27.566406 13.417969 C 27.554688 13.425781 27.554688 13.433594 27.554688 13.441406 Z M 24.65625 16.105469 C 24.777344 16.113281 24.898438 16.113281 25.019531 16.113281 C 25.257812 16.113281 25.5 16.097656 25.738281 16.09375 C 25.910156 16.09375 26.082031 16.101562 26.257812 16.105469 C 26.273438 16.109375 26.292969 16.109375 26.3125 16.101562 C 26.316406 16.097656 26.324219 16.097656 26.324219 16.089844 C 26.324219 16.082031 26.316406 16.078125 26.308594 16.078125 C 26.300781 16.078125 26.292969 16.074219 26.285156 16.074219 C 26.1875 16.074219 26.085938 16.070312 25.988281 16.070312 C 25.824219 16.070312 25.660156 16.078125 25.496094 16.082031 C 25.3125 16.085938 25.128906 16.085938 24.945312 16.085938 C 24.839844 16.089844 24.734375 16.085938 24.621094 16.097656 C 24.636719 16.105469 24.648438 16.105469 24.65625 16.105469 Z M 26.621094 13.84375 C 26.738281 14.140625 26.859375 14.4375 26.980469 14.730469 C 27.011719 14.808594 27.050781 14.886719 27.085938 14.964844 C 27.089844 14.976562 27.09375 14.992188 27.113281 14.988281 C 27.128906 14.980469 27.121094 14.964844 27.117188 14.957031 C 27.101562 14.917969 27.089844 14.875 27.074219 14.839844 C 26.929688 14.527344 26.800781 14.214844 26.667969 13.902344 C 26.648438 13.859375 26.628906 13.820312 26.605469 13.785156 C 26.601562 13.808594 26.613281 13.828125 26.621094 13.84375 Z M 27.574219 18.625 C 27.578125 18.453125 27.585938 18.28125 27.59375 18.109375 C 27.597656 17.882812 27.59375 17.660156 27.613281 17.4375 C 27.617188 17.390625 27.613281 17.347656 27.605469 17.300781 C 27.601562 17.289062 27.601562 17.273438 27.585938 17.273438 C 27.570312 17.277344 27.570312 17.292969 27.570312 17.300781 C 27.570312 17.375 27.5625 17.445312 27.570312 17.515625 C 27.574219 17.625 27.578125 17.734375 27.570312 17.84375 C 27.554688 18.074219 27.550781 18.300781 27.558594 18.53125 C 27.558594 18.566406 27.558594 18.605469 27.574219 18.640625 C 27.574219 18.636719 27.574219 18.632812 27.574219 18.625 Z M 25.28125 17.050781 C 25.472656 16.96875 25.664062 16.894531 25.855469 16.820312 C 26.023438 16.753906 26.191406 16.691406 26.355469 16.628906 C 26.378906 16.621094 26.398438 16.609375 26.417969 16.601562 C 26.425781 16.597656 26.433594 16.589844 26.429688 16.582031 C 26.425781 16.570312 26.417969 16.570312 26.40625 16.570312 C 26.398438 16.574219 26.390625 16.574219 26.382812 16.578125 C 26.34375 16.59375 26.300781 16.609375 26.261719 16.628906 C 26.058594 16.722656 25.847656 16.804688 25.636719 16.875 C 25.507812 16.917969 25.382812 16.964844 25.265625 17.03125 C 25.253906 17.039062 25.238281 17.046875 25.230469 17.0625 C 25.25 17.066406 25.265625 17.058594 25.28125 17.050781 Z M 26.6875 18.273438 C 26.757812 18.09375 26.824219 17.914062 26.894531 17.738281 C 26.957031 17.589844 27.027344 17.449219 27.09375 17.300781 C 27.105469 17.273438 27.117188 17.246094 27.125 17.214844 C 27.125 17.207031 27.125 17.195312 27.113281 17.191406 C 27.101562 17.1875 27.09375 17.195312 27.089844 17.207031 C 27.085938 17.210938 27.085938 17.214844 27.082031 17.222656 C 27.023438 17.398438 26.949219 17.570312 26.875 17.738281 C 26.785156 17.9375 26.699219 18.132812 26.632812 18.339844 C 26.628906 18.355469 26.621094 18.371094 26.628906 18.394531 C 26.65625 18.351562 26.671875 18.3125 26.6875 18.273438 Z M 25.160156 15.199219 C 25.226562 15.230469 25.296875 15.253906 25.367188 15.277344 C 25.582031 15.351562 25.796875 15.425781 26.011719 15.5 C 26.136719 15.542969 26.257812 15.585938 26.382812 15.632812 C 26.398438 15.636719 26.421875 15.648438 26.429688 15.625 C 26.4375 15.605469 26.410156 15.601562 26.394531 15.597656 C 26.308594 15.570312 26.21875 15.546875 26.132812 15.515625 C 25.859375 15.421875 25.589844 15.328125 25.316406 15.234375 C 25.253906 15.210938 25.191406 15.1875 25.125 15.175781 C 25.136719 15.191406 25.148438 15.195312 25.160156 15.199219 Z M 25.898438 14.933594 C 26.039062 15.03125 26.1875 15.121094 26.324219 15.222656 C 26.390625 15.273438 26.460938 15.320312 26.53125 15.367188 C 26.542969 15.375 26.566406 15.394531 26.578125 15.375 C 26.597656 15.355469 26.570312 15.347656 26.554688 15.335938 C 26.53125 15.316406 26.503906 15.300781 26.476562 15.285156 C 26.382812 15.226562 26.289062 15.171875 26.203125 15.109375 C 26.09375 15.027344 25.976562 14.949219 25.863281 14.875 C 25.835938 14.859375 25.808594 14.839844 25.777344 14.835938 C 25.8125 14.871094 25.855469 14.902344 25.898438 14.933594 Z M 27.339844 18.117188 C 27.363281 17.878906 27.390625 17.640625 27.433594 17.40625 C 27.441406 17.367188 27.449219 17.332031 27.445312 17.292969 C 27.445312 17.285156 27.445312 17.269531 27.425781 17.269531 C 27.410156 17.269531 27.410156 17.285156 27.410156 17.292969 C 27.402344 17.339844 27.394531 17.386719 27.390625 17.433594 C 27.371094 17.605469 27.347656 17.777344 27.328125 17.949219 C 27.316406 18.035156 27.320312 18.117188 27.328125 18.203125 C 27.332031 18.175781 27.335938 18.144531 27.339844 18.117188 Z M 26.144531 14.402344 C 26.148438 14.410156 26.152344 14.417969 26.15625 14.421875 C 26.238281 14.519531 26.320312 14.617188 26.402344 14.710938 C 26.453125 14.769531 26.507812 14.828125 26.558594 14.886719 C 26.613281 14.957031 26.671875 15.027344 26.730469 15.09375 C 26.746094 15.117188 26.765625 15.136719 26.789062 15.152344 C 26.796875 15.15625 26.804688 15.164062 26.8125 15.15625 C 26.824219 15.148438 26.820312 15.136719 26.8125 15.128906 C 26.8125 15.125 26.804688 15.121094 26.800781 15.117188 C 26.769531 15.082031 26.734375 15.042969 26.699219 15.007812 C 26.617188 14.917969 26.535156 14.828125 26.457031 14.738281 C 26.378906 14.636719 26.292969 14.542969 26.203125 14.449219 C 26.1875 14.429688 26.171875 14.410156 26.15625 14.390625 C 26.152344 14.394531 26.148438 14.398438 26.144531 14.402344 Z M 26.285156 17.753906 C 26.460938 17.539062 26.621094 17.308594 26.804688 17.09375 C 26.8125 17.082031 26.816406 17.074219 26.820312 17.0625 C 26.824219 17.054688 26.828125 17.042969 26.816406 17.039062 C 26.804688 17.03125 26.800781 17.042969 26.796875 17.050781 C 26.773438 17.078125 26.753906 17.105469 26.730469 17.132812 C 26.617188 17.292969 26.484375 17.441406 26.371094 17.597656 C 26.332031 17.65625 26.285156 17.710938 26.253906 17.777344 C 26.273438 17.773438 26.277344 17.761719 26.285156 17.753906 Z M 25.949219 17.378906 C 26.089844 17.277344 26.214844 17.164062 26.351562 17.0625 C 26.425781 17.003906 26.503906 16.945312 26.578125 16.886719 C 26.589844 16.875 26.617188 16.863281 26.597656 16.84375 C 26.582031 16.828125 26.570312 16.851562 26.558594 16.859375 C 26.433594 16.960938 26.320312 17.066406 26.1875 17.15625 C 26.085938 17.222656 26 17.300781 25.917969 17.394531 C 25.933594 17.394531 25.941406 17.382812 25.949219 17.378906 Z M 25.539062 15.855469 C 25.566406 15.859375 25.59375 15.867188 25.625 15.867188 C 25.839844 15.882812 26.054688 15.910156 26.269531 15.945312 C 26.28125 15.945312 26.292969 15.945312 26.308594 15.945312 C 26.316406 15.945312 26.324219 15.941406 26.324219 15.933594 C 26.328125 15.921875 26.320312 15.917969 26.3125 15.917969 C 26.289062 15.914062 26.269531 15.90625 26.25 15.90625 C 26.046875 15.882812 25.847656 15.863281 25.644531 15.847656 C 25.609375 15.84375 25.570312 15.84375 25.527344 15.847656 C 25.535156 15.855469 25.535156 15.855469 25.539062 15.855469 Z M 25.617188 16.386719 C 25.71875 16.375 25.816406 16.355469 25.917969 16.339844 C 26.03125 16.324219 26.144531 16.3125 26.257812 16.296875 C 26.273438 16.296875 26.289062 16.292969 26.304688 16.289062 C 26.316406 16.285156 26.332031 16.28125 26.328125 16.265625 C 26.328125 16.25 26.3125 16.253906 26.300781 16.253906 C 26.289062 16.253906 26.277344 16.257812 26.269531 16.257812 C 26.089844 16.285156 25.914062 16.316406 25.738281 16.34375 C 25.6875 16.351562 25.636719 16.359375 25.585938 16.382812 C 25.601562 16.390625 25.609375 16.386719 25.617188 16.386719 Z M 26.714844 17.632812 C 26.75 17.570312 26.785156 17.503906 26.816406 17.441406 C 26.859375 17.355469 26.921875 17.277344 26.964844 17.191406 C 26.972656 17.175781 26.980469 17.164062 26.980469 17.148438 C 26.980469 17.140625 26.980469 17.132812 26.972656 17.128906 C 26.964844 17.128906 26.957031 17.132812 26.953125 17.136719 C 26.941406 17.152344 26.929688 17.167969 26.921875 17.1875 C 26.84375 17.328125 26.765625 17.472656 26.691406 17.617188 C 26.679688 17.636719 26.667969 17.65625 26.671875 17.679688 C 26.695312 17.671875 26.703125 17.648438 26.714844 17.632812 Z M 25.777344 15.648438 C 25.84375 15.667969 25.910156 15.6875 25.980469 15.699219 C 26.089844 15.722656 26.199219 15.761719 26.316406 15.773438 C 26.332031 15.777344 26.363281 15.789062 26.367188 15.765625 C 26.375 15.738281 26.339844 15.738281 26.324219 15.734375 C 26.183594 15.71875 26.046875 15.679688 25.910156 15.652344 C 25.859375 15.640625 25.804688 15.636719 25.75 15.640625 C 25.757812 15.644531 25.769531 15.648438 25.777344 15.648438 Z M 27.320312 14.054688 C 27.328125 14.101562 27.328125 14.144531 27.335938 14.1875 C 27.363281 14.347656 27.382812 14.507812 27.398438 14.667969 C 27.402344 14.738281 27.410156 14.8125 27.425781 14.882812 C 27.429688 14.894531 27.429688 14.914062 27.445312 14.914062 C 27.464844 14.910156 27.457031 14.890625 27.453125 14.878906 C 27.441406 14.792969 27.425781 14.703125 27.414062 14.613281 C 27.398438 14.460938 27.378906 14.308594 27.351562 14.15625 C 27.347656 14.121094 27.335938 14.089844 27.328125 14.054688 C 27.324219 14.054688 27.324219 14.054688 27.320312 14.054688 Z M 25.941406 15.25 C 26.039062 15.304688 26.144531 15.347656 26.242188 15.402344 C 26.300781 15.433594 26.363281 15.460938 26.425781 15.492188 C 26.4375 15.5 26.453125 15.503906 26.46875 15.503906 C 26.476562 15.503906 26.484375 15.507812 26.488281 15.496094 C 26.492188 15.488281 26.484375 15.484375 26.476562 15.480469 C 26.457031 15.46875 26.433594 15.457031 26.414062 15.445312 C 26.289062 15.390625 26.167969 15.339844 26.050781 15.273438 C 26.011719 15.25 25.972656 15.230469 25.925781 15.21875 C 25.921875 15.214844 25.910156 15.207031 25.90625 15.222656 C 25.914062 15.238281 25.929688 15.242188 25.941406 15.25 Z M 25.863281 16.617188 C 26.015625 16.574219 26.167969 16.53125 26.320312 16.492188 C 26.335938 16.484375 26.355469 16.480469 26.367188 16.472656 C 26.375 16.464844 26.378906 16.457031 26.375 16.449219 C 26.371094 16.441406 26.363281 16.4375 26.355469 16.441406 C 26.339844 16.441406 26.328125 16.445312 26.316406 16.449219 C 26.164062 16.496094 26.015625 16.546875 25.863281 16.597656 C 25.851562 16.601562 25.839844 16.605469 25.832031 16.617188 C 25.84375 16.625 25.855469 16.621094 25.863281 16.617188 Z M 26.058594 16.992188 C 26.175781 16.917969 26.300781 16.863281 26.417969 16.789062 C 26.445312 16.773438 26.472656 16.753906 26.496094 16.738281 C 26.503906 16.730469 26.511719 16.722656 26.503906 16.714844 C 26.5 16.707031 26.488281 16.707031 26.480469 16.710938 C 26.46875 16.714844 26.457031 16.722656 26.449219 16.726562 C 26.324219 16.808594 26.195312 16.882812 26.066406 16.957031 C 26.039062 16.972656 26.015625 16.992188 25.988281 17.019531 C 26.019531 17.011719 26.039062 17.003906 26.058594 16.992188 Z M 27.128906 17.742188 C 27.140625 17.746094 27.144531 17.734375 27.148438 17.726562 C 27.152344 17.710938 27.160156 17.695312 27.164062 17.679688 C 27.1875 17.582031 27.214844 17.488281 27.246094 17.394531 C 27.257812 17.355469 27.265625 17.316406 27.277344 17.277344 C 27.28125 17.261719 27.28125 17.246094 27.265625 17.242188 C 27.246094 17.238281 27.238281 17.253906 27.234375 17.265625 C 27.230469 17.28125 27.226562 17.292969 27.222656 17.308594 C 27.207031 17.40625 27.183594 17.5 27.15625 17.597656 C 27.140625 17.636719 27.128906 17.679688 27.125 17.722656 C 27.128906 17.730469 27.121094 17.742188 27.128906 17.742188 Z M 27.164062 14.453125 C 27.164062 14.457031 27.164062 14.464844 27.164062 14.46875 C 27.183594 14.585938 27.203125 14.707031 27.222656 14.824219 C 27.226562 14.859375 27.230469 14.894531 27.25 14.929688 C 27.253906 14.9375 27.257812 14.953125 27.273438 14.949219 C 27.289062 14.945312 27.285156 14.929688 27.28125 14.917969 C 27.265625 14.808594 27.242188 14.703125 27.210938 14.59375 C 27.199219 14.546875 27.183594 14.5 27.171875 14.449219 C 27.167969 14.449219 27.164062 14.449219 27.164062 14.453125 Z M 26.730469 14.65625 C 26.789062 14.769531 26.847656 14.882812 26.910156 14.992188 C 26.921875 15.011719 26.933594 15.03125 26.949219 15.046875 C 26.953125 15.054688 26.960938 15.0625 26.972656 15.058594 C 26.984375 15.050781 26.980469 15.042969 26.976562 15.03125 C 26.972656 15.027344 26.972656 15.019531 26.96875 15.015625 C 26.90625 14.890625 26.824219 14.773438 26.75 14.652344 C 26.742188 14.644531 26.734375 14.632812 26.722656 14.628906 C 26.71875 14.640625 26.726562 14.648438 26.730469 14.65625 Z M 27.09375 17.902344 C 27.113281 17.902344 27.125 17.890625 27.125 17.875 C 27.125 17.859375 27.117188 17.847656 27.097656 17.847656 C 27.078125 17.847656 27.070312 17.859375 27.066406 17.875 C 27.066406 17.894531 27.078125 17.902344 27.09375 17.902344 Z M 26.582031 17.78125 C 26.582031 17.796875 26.589844 17.804688 26.609375 17.804688 C 26.625 17.804688 26.636719 17.792969 26.636719 17.777344 C 26.636719 17.761719 26.625 17.753906 26.609375 17.75 C 26.589844 17.753906 26.578125 17.761719 26.582031 17.78125 Z M 25.589844 15.601562 C 25.589844 15.617188 25.601562 15.625 25.617188 15.628906 C 25.636719 15.628906 25.648438 15.621094 25.652344 15.601562 C 25.652344 15.585938 25.640625 15.578125 25.621094 15.578125 C 25.605469 15.578125 25.589844 15.582031 25.589844 15.601562 Z M 27.066406 14.171875 C 27.066406 14.191406 27.078125 14.203125 27.09375 14.203125 C 27.113281 14.199219 27.121094 14.1875 27.121094 14.171875 C 27.117188 14.15625 27.109375 14.144531 27.089844 14.144531 C 27.074219 14.148438 27.066406 14.15625 27.066406 14.171875 Z M 25.429688 15.554688 C 25.429688 15.570312 25.445312 15.582031 25.464844 15.582031 C 25.480469 15.582031 25.488281 15.570312 25.488281 15.554688 C 25.488281 15.539062 25.472656 15.53125 25.457031 15.53125 C 25.441406 15.53125 25.429688 15.535156 25.429688 15.554688 Z M 26.652344 14.503906 C 26.636719 14.503906 26.628906 14.511719 26.628906 14.527344 C 26.628906 14.542969 26.636719 14.554688 26.65625 14.554688 C 26.671875 14.554688 26.679688 14.542969 26.679688 14.527344 C 26.679688 14.511719 26.671875 14.503906 26.652344 14.503906 Z M 25.59375 16.707031 C 25.609375 16.707031 25.621094 16.699219 25.621094 16.683594 C 25.625 16.667969 25.613281 16.65625 25.597656 16.65625 C 25.578125 16.65625 25.570312 16.664062 25.566406 16.679688 C 25.570312 16.695312 25.578125 16.707031 25.59375 16.707031 Z M 25.898438 17.101562 C 25.917969 17.101562 25.925781 17.09375 25.925781 17.074219 C 25.925781 17.0625 25.917969 17.054688 25.902344 17.054688 C 25.886719 17.054688 25.875 17.066406 25.875 17.082031 C 25.878906 17.09375 25.886719 17.101562 25.898438 17.101562 Z M 27.132812 14.34375 C 27.144531 14.34375 27.15625 14.335938 27.15625 14.324219 C 27.15625 14.308594 27.148438 14.300781 27.132812 14.296875 C 27.117188 14.296875 27.109375 14.308594 27.109375 14.320312 C 27.109375 14.335938 27.113281 14.34375 27.132812 14.34375 Z M 27.035156 18.019531 C 27.035156 18.03125 27.042969 18.039062 27.058594 18.039062 C 27.074219 18.039062 27.082031 18.027344 27.082031 18.015625 C 27.082031 18 27.074219 17.992188 27.058594 17.992188 C 27.042969 17.996094 27.035156 18.003906 27.035156 18.019531 Z M 26.5625 14.40625 C 26.5625 14.421875 26.570312 14.429688 26.585938 14.429688 C 26.601562 14.429688 26.609375 14.421875 26.605469 14.40625 C 26.605469 14.394531 26.597656 14.386719 26.582031 14.386719 C 26.570312 14.386719 26.5625 14.394531 26.5625 14.40625 Z M 25.699219 16.648438 C 25.699219 16.664062 25.707031 16.671875 25.722656 16.671875 C 25.738281 16.671875 25.742188 16.664062 25.746094 16.652344 C 25.746094 16.636719 25.734375 16.628906 25.71875 16.628906 C 25.707031 16.628906 25.699219 16.636719 25.699219 16.648438 Z M 25.792969 15.179688 C 25.792969 15.191406 25.796875 15.203125 25.8125 15.203125 C 25.824219 15.203125 25.835938 15.195312 25.835938 15.183594 C 25.835938 15.167969 25.828125 15.164062 25.8125 15.160156 C 25.800781 15.160156 25.789062 15.167969 25.792969 15.179688 Z M 25.792969 15.179688 " fill-opacity="1" fill-rule="nonzero"/></g><g fill="#a6a6a6" fill-opacity="1"><g transform="translate(21.934296, 22.883859)"><g/></g></g></svg>