<svg xmlns="http://www.w3.org/2000/svg" xmlns:xlink="http://www.w3.org/1999/xlink" width="800" zoomAndPan="magnify" viewBox="0 0 600 449.999984" height="600" preserveAspectRatio="xMidYMid meet" version="1.0"><defs><g/><clipPath id="e54f959ded"><path d="M 266.652344 63.660156 L 448.902344 63.660156 L 448.902344 404.910156 L 266.652344 404.910156 Z M 266.652344 63.660156 " clip-rule="nonzero"/></clipPath></defs><g clip-path="url(#e54f959ded)"><path fill="#a6a6a6" d="M 394.554688 355.160156 C 392.648438 354.355469 391.417969 353.109375 390.207031 351.914062 C 383.261719 345.042969 376.320312 338.164062 369.542969 331.113281 C 362.730469 324.023438 355.507812 317.328125 348.605469 310.320312 C 340.699219 302.292969 331.488281 295.695312 323.839844 287.398438 C 323.148438 286.648438 321.703125 285.824219 322.691406 284.765625 C 323.597656 283.792969 324.75 284.96875 325.488281 285.660156 C 330.730469 290.601562 335.984375 295.53125 341.097656 300.601562 C 349.042969 308.480469 357.011719 316.324219 365.21875 323.933594 C 370.539062 328.867188 375.460938 334.238281 380.503906 339.464844 C 384.613281 343.71875 388.648438 348.046875 392.703125 352.355469 C 393.398438 353.09375 394.238281 353.746094 394.554688 355.160156 Z M 385.867188 109.128906 C 381.777344 113.046875 377.710938 116.988281 373.617188 120.902344 C 358.816406 135.050781 345.1875 150.355469 330.644531 164.761719 C 327.953125 167.429688 325.457031 170.308594 323.210938 173.382812 C 322.84375 173.882812 322.304688 174.507812 322.886719 175.105469 C 323.574219 175.820312 324.238281 175.179688 324.722656 174.730469 C 326.089844 173.464844 327.496094 172.214844 328.683594 170.785156 C 342.582031 154.066406 359.027344 139.796875 373.640625 123.765625 C 378.1875 118.777344 383.015625 114.042969 387.289062 108.453125 C 386.4375 108.429688 386.171875 108.835938 385.867188 109.128906 Z M 270.316406 403.300781 C 270.613281 393.910156 270.996094 384.515625 271.164062 375.121094 C 271.332031 365.84375 270.789062 356.585938 270.078125 347.335938 C 269.425781 338.855469 269.6875 330.34375 269.539062 321.847656 C 269.464844 317.597656 269.285156 313.351562 269.105469 309.105469 C 269.074219 308.394531 269.292969 307.203125 268.375 307.15625 C 267.214844 307.09375 267.5 308.421875 267.40625 309.125 C 267.089844 311.558594 267.222656 314.015625 267.441406 316.453125 C 268.421875 327.367188 268.660156 338.292969 268.445312 349.253906 C 268.09375 367.023438 268.921875 384.789062 269.238281 402.558594 C 269.25 403.3125 269.175781 404.117188 269.785156 404.828125 C 270.316406 404.34375 270.300781 403.8125 270.316406 403.300781 Z M 446.808594 229.289062 C 439.488281 228.863281 432.164062 228.695312 424.832031 228.703125 C 410.171875 228.722656 395.546875 229.851562 380.890625 229.984375 C 370.40625 230.082031 359.9375 229.613281 349.464844 229.214844 C 348.316406 229.167969 347.148438 229.03125 346.046875 229.558594 C 345.6875 229.734375 345.34375 229.929688 345.371094 230.386719 C 345.398438 230.847656 345.769531 231.03125 346.152344 231.109375 C 346.652344 231.214844 347.167969 231.296875 347.679688 231.308594 C 353.714844 231.441406 359.753906 231.632812 365.789062 231.660156 C 375.757812 231.703125 385.710938 231.210938 395.671875 230.90625 C 406.84375 230.570312 418.027344 230.667969 429.207031 230.53125 C 435.695312 230.449219 442.191406 230.621094 448.902344 229.902344 C 448.09375 229.304688 447.441406 229.324219 446.808594 229.289062 Z M 327.261719 376.851562 C 320.007812 357.574219 312.785156 338.285156 305.453125 319.039062 C 303.484375 313.871094 301.175781 308.828125 298.992188 303.742188 C 298.679688 303.015625 298.351562 301.925781 297.273438 302.351562 C 296.246094 302.757812 296.886719 303.6875 297.089844 304.371094 C 297.871094 306.960938 298.695312 309.53125 299.753906 312.027344 C 308.355469 332.292969 316.363281 352.796875 324.492188 373.253906 C 325.53125 375.863281 326.683594 378.425781 328.238281 380.777344 C 328.3125 379.328125 327.730469 378.101562 327.261719 376.851562 Z M 269.1875 64.800781 C 268.867188 76.066406 268.414062 87.324219 268.113281 98.585938 C 267.726562 113.195312 268.023438 127.820312 266.863281 142.40625 C 266.628906 145.359375 266.734375 148.335938 267.289062 151.265625 C 267.421875 151.976562 267.453125 153.023438 268.472656 152.980469 C 269.492188 152.941406 269.511719 151.898438 269.496094 151.183594 C 269.402344 146.546875 269.839844 141.914062 269.550781 137.277344 C 269.101562 130.136719 268.929688 122.976562 269.402344 115.851562 C 270.386719 100.925781 270.644531 85.996094 270.230469 71.054688 C 270.164062 68.605469 270.175781 66.105469 269.300781 63.707031 C 269.261719 64.070312 269.199219 64.4375 269.1875 64.800781 Z M 408.699219 167.574219 C 397.226562 172.945312 385.519531 177.78125 373.84375 182.679688 C 363.710938 186.933594 353.484375 190.960938 343.308594 195.125 C 342.007812 195.65625 340.777344 196.375 339.527344 197.035156 C 339.058594 197.28125 338.613281 197.632812 338.820312 198.246094 C 339.046875 198.90625 339.632812 199.039062 340.246094 198.910156 C 340.746094 198.808594 341.242188 198.644531 341.710938 198.441406 C 344.183594 197.359375 346.679688 196.320312 349.109375 195.144531 C 361.550781 189.109375 374.257812 183.710938 387.265625 179 C 395.003906 176.195312 402.664062 173.179688 409.714844 168.832031 C 410.566406 168.304688 411.539062 167.867188 412.019531 166.738281 C 410.722656 166.492188 409.710938 167.101562 408.699219 167.574219 Z M 323.246094 87.902344 C 318.988281 99.503906 314.800781 111.132812 310.484375 122.710938 C 306.886719 132.363281 302.40625 141.652344 298.511719 151.1875 C 297.757812 153.039062 297.105469 154.921875 296.644531 156.867188 C 296.507812 157.453125 296.511719 158.09375 297.175781 158.359375 C 297.949219 158.667969 298.371094 158.148438 298.65625 157.515625 C 298.816406 157.164062 298.933594 156.796875 299.054688 156.429688 C 302.832031 144.996094 307.183594 133.785156 311.875 122.691406 C 317.316406 109.828125 322.5625 96.878906 326.429688 83.425781 C 326.710938 82.449219 327.15625 81.496094 326.835938 79.941406 C 325.152344 82.746094 324.191406 85.324219 323.246094 87.902344 Z M 416.136719 288.382812 C 412.054688 286.476562 407.832031 284.921875 403.613281 283.367188 C 390.53125 278.546875 377.414062 273.816406 364.34375 268.964844 C 356.753906 266.148438 349.238281 263.136719 341.660156 260.292969 C 340.78125 259.964844 339.316406 259.050781 338.835938 260.582031 C 338.386719 262.007812 339.976562 262.21875 340.945312 262.542969 C 346.246094 264.3125 351.628906 265.859375 356.875 267.78125 C 373.527344 273.871094 390.128906 280.113281 406.765625 286.246094 C 410.480469 287.613281 414.160156 289.132812 418.25 289.960938 C 417.710938 288.941406 416.871094 288.726562 416.136719 288.382812 Z M 371.269531 305.929688 C 362.691406 299.464844 353.648438 293.636719 345.316406 286.839844 C 341.273438 283.542969 336.953125 280.625 332.726562 277.582031 C 331.871094 276.96875 330.675781 275.675781 329.730469 276.894531 C 328.726562 278.191406 330.371094 278.882812 331.191406 279.53125 C 332.753906 280.765625 334.398438 281.910156 336.078125 282.976562 C 341.777344 286.597656 347.53125 290.164062 352.777344 294.429688 C 359.425781 299.832031 366.398438 304.777344 373.414062 309.667969 C 375.015625 310.78125 376.601562 312.03125 378.695312 312.308594 C 376.519531 309.804688 373.867188 307.886719 371.269531 305.929688 Z M 283.53125 98.113281 C 281.964844 113.601562 280.332031 129.074219 277.78125 144.4375 C 277.382812 146.832031 276.792969 149.246094 277.03125 151.707031 C 277.097656 152.40625 277.101562 153.457031 278.183594 153.398438 C 279.078125 153.351562 279.113281 152.4375 279.210938 151.761719 C 279.648438 148.703125 280.164062 145.652344 280.441406 142.582031 C 281.453125 131.371094 282.96875 120.222656 284.246094 109.042969 C 284.878906 103.46875 284.652344 97.914062 284.234375 92.355469 C 283.976562 94.292969 283.726562 96.203125 283.53125 98.113281 Z M 356.332031 340.417969 C 356.046875 339.996094 355.796875 339.550781 355.480469 339.152344 C 350.472656 332.855469 345.476562 326.546875 340.4375 320.277344 C 337.375 316.460938 334.183594 312.753906 331.152344 308.914062 C 327.601562 304.417969 324.179688 299.820312 320.667969 295.292969 C 319.601562 293.921875 318.421875 292.636719 317.023438 291.582031 C 316.542969 291.222656 316.027344 290.882812 315.472656 291.40625 C 314.941406 291.910156 315.179688 292.476562 315.492188 292.988281 C 315.691406 293.316406 315.9375 293.621094 316.191406 293.90625 C 318.285156 296.265625 320.441406 298.570312 322.472656 300.984375 C 327.398438 306.847656 332.488281 312.59375 337.101562 318.699219 C 342 325.179688 347.132812 331.4375 352.589844 337.445312 C 353.660156 338.621094 354.605469 339.910156 355.609375 341.148438 C 355.851562 340.90625 356.089844 340.664062 356.332031 340.417969 Z M 347.800781 121.617188 C 336.933594 135.808594 327.183594 150.816406 316.125 164.863281 C 315.65625 165.460938 315.316406 166.175781 314.996094 166.871094 C 314.746094 167.402344 314.59375 168.050781 315.25 168.402344 C 315.945312 168.773438 316.289062 168.179688 316.617188 167.703125 C 317.902344 165.855469 319.203125 164.019531 320.457031 162.152344 C 327.417969 151.792969 335.453125 142.214844 342.382812 131.832031 C 344.863281 128.113281 347.652344 124.582031 349.476562 120.105469 C 348.480469 120.519531 348.183594 121.117188 347.800781 121.617188 Z M 368.167969 146.238281 C 359.695312 152.730469 352.039062 160.195312 343.722656 166.878906 C 339.015625 170.664062 334.359375 174.519531 329.75 178.421875 C 329.019531 179.039062 327.554688 179.945312 328.574219 181.03125 C 329.515625 182.035156 330.378906 180.601562 331.078125 179.996094 C 338.554688 173.507812 345.660156 166.558594 353.667969 160.726562 C 359.757812 156.296875 365.09375 151.203125 370.027344 145.09375 C 369.011719 145.296875 368.65625 145.867188 368.167969 146.238281 Z M 393.128906 245.5625 C 391.421875 245.277344 389.714844 244.886719 387.996094 244.769531 C 374.78125 243.84375 361.6875 242 348.632812 239.832031 C 347.878906 239.707031 347.097656 239.695312 346.332031 239.71875 C 345.804688 239.730469 345.28125 239.941406 345.214844 240.570312 C 345.148438 241.199219 345.605469 241.503906 346.128906 241.628906 C 347.375 241.929688 348.625 242.28125 349.890625 242.429688 C 362.140625 243.835938 374.394531 245.230469 386.6875 246.199219 C 388.945312 246.378906 391.222656 246.375 393.734375 246.050781 C 393.386719 245.761719 393.273438 245.585938 393.128906 245.5625 Z M 388.375 210.945312 C 382.253906 211.6875 376.242188 213.097656 370.152344 213.996094 C 363.234375 215.015625 356.289062 215.859375 349.355469 216.800781 C 348.402344 216.929688 347.453125 217.109375 346.527344 217.371094 C 345.8125 217.570312 344.851562 217.742188 344.976562 218.761719 C 345.105469 219.820312 346.070312 219.667969 346.820312 219.644531 C 347.457031 219.621094 348.09375 219.507812 348.722656 219.394531 C 359.46875 217.507812 370.214844 215.648438 380.949219 213.699219 C 383.996094 213.144531 387.121094 212.773438 390.140625 211.265625 C 389.375 210.65625 388.863281 210.886719 388.375 210.945312 Z M 321.628906 129.671875 C 319.445312 133.824219 317.28125 137.992188 315.265625 142.226562 C 312.605469 147.8125 308.804688 152.75 306.269531 158.398438 C 305.847656 159.332031 305.34375 160.25 305.355469 161.316406 C 305.359375 161.769531 305.390625 162.257812 305.925781 162.421875 C 306.414062 162.566406 306.820312 162.351562 307.082031 161.9375 C 307.730469 160.90625 308.429688 159.894531 308.976562 158.808594 C 313.679688 149.445312 318.367188 140.074219 323.003906 130.679688 C 323.609375 129.460938 324.335938 128.207031 324.242188 126.597656 C 322.71875 127.195312 322.226562 128.53125 321.628906 129.671875 Z M 378.613281 259.085938 C 374.527344 257.953125 370.480469 256.644531 366.339844 255.777344 C 359.480469 254.34375 352.875 251.855469 345.894531 250.980469 C 344.785156 250.84375 343.042969 250.0625 342.691406 251.578125 C 342.28125 253.355469 344.28125 253.394531 345.398438 253.523438 C 353.929688 254.503906 362.109375 257.070312 370.445312 258.929688 C 373.660156 259.644531 376.933594 259.9375 380.316406 259.757812 C 379.75 259.53125 379.199219 259.246094 378.613281 259.085938 Z M 284.585938 363.132812 C 284.273438 360.261719 284.074219 357.375 283.628906 354.523438 C 282.003906 344.152344 280.75 333.742188 279.9375 323.273438 C 279.570312 318.527344 279.238281 313.761719 278.222656 309.09375 C 278.050781 308.3125 277.988281 307.0625 277 307.1875 C 275.800781 307.339844 276.402344 308.5625 276.496094 309.277344 C 277.246094 315.089844 278.175781 320.878906 278.839844 326.695312 C 279.972656 336.671875 281.179688 346.640625 282.734375 356.558594 C 283.085938 358.796875 283.707031 360.996094 284.203125 363.210938 C 284.332031 363.183594 284.457031 363.160156 284.585938 363.132812 Z M 368.496094 285.121094 C 362.550781 281.675781 356.246094 278.898438 350.351562 275.339844 C 346.730469 273.152344 342.878906 271.335938 339.125 269.363281 C 338.328125 268.945312 337.5 268.578125 336.582031 268.515625 C 336.074219 268.480469 335.492188 268.4375 335.292969 269.066406 C 335.121094 269.59375 335.53125 269.925781 335.910156 270.148438 C 337.238281 270.929688 338.558594 271.742188 339.941406 272.40625 C 347.355469 275.957031 354.828125 279.378906 361.882812 283.652344 C 364.285156 285.105469 366.746094 286.554688 369.5 287.328125 C 369.921875 287.445312 370.5 287.875 370.667969 286.917969 C 370.175781 286.0625 369.324219 285.601562 368.496094 285.121094 Z M 373.355469 195.933594 C 364.0625 198.671875 354.773438 201.417969 345.488281 204.175781 C 344.507812 204.46875 343.515625 204.773438 342.679688 205.402344 C 342.175781 205.78125 341.882812 206.285156 342.171875 206.90625 C 342.425781 207.453125 342.972656 207.539062 343.496094 207.441406 C 344.253906 207.296875 345.007812 207.125 345.738281 206.890625 C 355.039062 203.949219 364.140625 200.445312 373.300781 197.105469 C 373.976562 196.859375 374.816406 196.753906 375.167969 195.890625 C 374.523438 195.433594 373.933594 195.761719 373.355469 195.933594 Z M 361.511719 171.488281 C 354.378906 176.21875 346.664062 179.976562 339.503906 184.65625 C 337.890625 185.710938 336.359375 186.890625 334.820312 188.050781 C 334.359375 188.402344 333.925781 188.933594 334.324219 189.546875 C 334.714844 190.140625 335.359375 189.996094 335.894531 189.730469 C 336.527344 189.417969 337.136719 189.054688 337.71875 188.65625 C 345.304688 183.453125 353.136719 178.636719 360.980469 173.84375 C 362.640625 172.828125 364.035156 171.546875 365.699219 169.683594 C 363.808594 170.128906 362.613281 170.753906 361.511719 171.488281 Z M 296.253906 122.382812 C 295.503906 122.1875 295.394531 123.03125 295.199219 123.503906 C 294.785156 124.515625 294.386719 125.550781 294.160156 126.613281 C 292.828125 132.851562 291.082031 138.972656 289.210938 145.070312 C 288.417969 147.648438 287.882812 150.308594 287.316406 152.953125 C 287.152344 153.722656 286.941406 154.769531 288.070312 155.046875 C 289.253906 155.34375 289.609375 154.34375 289.886719 153.484375 C 290.160156 152.628906 290.355469 151.742188 290.492188 150.851562 C 291.480469 144.480469 292.871094 138.203125 294.722656 132.027344 C 295.535156 129.316406 296.269531 126.578125 296.617188 123.644531 C 296.398438 123.300781 296.886719 122.546875 296.253906 122.382812 Z M 294.175781 337.320312 C 294.175781 336.941406 294.226562 336.550781 294.171875 336.179688 C 292.992188 328.417969 291.816406 320.65625 290.613281 312.902344 C 290.257812 310.617188 290.011719 308.292969 289.050781 306.152344 C 288.746094 305.476562 288.449219 304.488281 287.480469 304.773438 C 286.507812 305.0625 286.804688 306.054688 286.925781 306.78125 C 288.097656 313.894531 289.425781 320.976562 291.238281 327.960938 C 292.058594 331.109375 292.953125 334.242188 293.8125 337.382812 C 293.933594 337.363281 294.054688 337.34375 294.175781 337.320312 Z M 320.605469 323.828125 C 316.972656 316.523438 313.34375 309.222656 309.65625 301.945312 C 309.023438 300.695312 308.136719 299.570312 307.34375 298.402344 C 307.011719 297.910156 306.570312 297.417969 305.921875 297.726562 C 305.140625 298.101562 305.40625 298.800781 305.609375 299.410156 C 305.730469 299.773438 305.921875 300.113281 306.085938 300.460938 C 309.949219 308.675781 314.804688 316.328125 319.484375 324.078125 C 319.863281 324.707031 320.214844 325.445312 321.09375 325.632812 C 321.332031 324.90625 320.875 324.375 320.605469 323.828125 Z M 298.4375 111.9375 C 297.207031 111.925781 296.570312 112.699219 296.539062 113.890625 C 296.511719 114.9375 297.046875 115.628906 298.140625 115.625 C 299.378906 115.621094 299.914062 114.796875 300.113281 113.714844 C 300.027344 112.628906 299.488281 111.949219 298.4375 111.9375 Z M 329.714844 120 C 329.683594 118.96875 329.035156 118.289062 327.988281 118.324219 C 326.875 118.363281 326.21875 119.078125 326.222656 120.210938 C 326.226562 121.296875 326.910156 121.796875 328 121.886719 C 329.070312 121.753906 329.746094 121.132812 329.714844 120 Z M 390.011719 262.226562 C 389.996094 261.207031 389.214844 260.625 388.253906 260.546875 C 387.15625 260.453125 386.359375 261.011719 386.328125 262.164062 C 386.300781 263.222656 387.027344 263.726562 388.105469 263.839844 C 389.039062 263.710938 390.027344 263.449219 390.011719 262.226562 Z M 300.160156 355.449219 C 300.082031 354.363281 299.519531 353.601562 298.363281 353.640625 C 297.273438 353.675781 296.800781 354.433594 296.859375 355.457031 C 296.921875 356.546875 297.5 357.222656 298.71875 357.292969 C 299.703125 357.121094 300.234375 356.492188 300.160156 355.449219 Z M 399.753906 265.371094 C 399.671875 264.1875 398.863281 263.558594 397.695312 263.570312 C 396.722656 263.578125 396.152344 264.199219 396.167969 265.15625 C 396.191406 266.359375 397.039062 266.738281 398.210938 266.804688 C 398.980469 266.695312 399.832031 266.441406 399.753906 265.371094 Z M 325.21875 333.925781 C 326.199219 333.921875 326.753906 333.300781 326.734375 332.324219 C 326.714844 331.296875 326.171875 330.570312 325.089844 330.625 C 324.121094 330.675781 323.695312 331.398438 323.632812 332.339844 C 323.765625 333.269531 324.238281 333.933594 325.21875 333.925781 Z M 389.742188 190.15625 C 388.792969 190.136719 388.113281 190.621094 388.039062 191.597656 C 387.960938 192.644531 388.539062 193.304688 389.601562 193.386719 C 390.664062 193.464844 391.253906 192.875 391.460938 191.769531 C 391.324219 190.832031 390.808594 190.179688 389.742188 190.15625 Z M 371.132812 164.238281 C 370.0625 164.269531 369.492188 164.925781 369.5 165.960938 C 369.507812 166.867188 370.097656 167.378906 370.984375 167.355469 C 372.039062 167.328125 372.566406 166.675781 372.648438 165.660156 C 372.507812 164.769531 372.042969 164.210938 371.132812 164.238281 Z M 296.140625 344.253906 C 295.257812 344.25 294.710938 344.785156 294.691406 345.6875 C 294.671875 346.65625 295.222656 347.261719 296.171875 347.328125 C 297.125 347.394531 297.476562 346.71875 297.605469 345.863281 C 297.554688 344.941406 297.152344 344.257812 296.140625 344.253906 Z M 302.042969 104.394531 C 301.976562 103.492188 301.433594 102.972656 300.523438 103.046875 C 299.605469 103.121094 299.203125 103.765625 299.210938 104.636719 C 299.222656 105.542969 299.703125 106.050781 300.621094 106.105469 C 301.601562 105.949219 302.121094 105.386719 302.042969 104.394531 Z M 330.871094 340.238281 C 330.859375 339.261719 330.304688 338.644531 329.300781 338.695312 C 328.476562 338.742188 328.050781 339.332031 328.074219 340.144531 C 328.101562 341.058594 328.65625 341.519531 329.535156 341.605469 C 330.363281 341.511719 330.882812 341.066406 330.871094 340.238281 Z M 383.429688 193.78125 C 383.390625 192.882812 382.824219 192.382812 381.925781 192.402344 C 381.097656 192.417969 380.625 192.917969 380.617188 193.738281 C 380.609375 194.640625 381.125 195.132812 382.101562 195.265625 C 382.871094 195.128906 383.46875 194.703125 383.429688 193.78125 Z M 377.769531 289.699219 C 377.761719 288.890625 377.34375 288.351562 376.496094 288.292969 C 375.652344 288.238281 375.117188 288.695312 375.0625 289.511719 C 375.007812 290.421875 375.578125 290.90625 376.507812 291.066406 C 377.257812 290.957031 377.777344 290.550781 377.769531 289.699219 Z M 377.769531 289.699219 " fill-opacity="1" fill-rule="nonzero"/><path fill="#a6a6a6" d="M 394.554688 355.160156 C 392.648438 354.355469 391.417969 353.109375 390.207031 351.914062 C 383.261719 345.042969 376.320312 338.164062 369.542969 331.113281 C 362.730469 324.023438 355.507812 317.328125 348.605469 310.320312 C 340.699219 302.292969 331.488281 295.695312 323.839844 287.398438 C 323.148438 286.648438 321.703125 285.824219 322.691406 284.765625 C 323.597656 283.792969 324.75 284.96875 325.488281 285.660156 C 330.730469 290.601562 335.984375 295.53125 341.097656 300.601562 C 349.042969 308.480469 357.011719 316.324219 365.21875 323.933594 C 370.539062 328.867188 375.460938 334.238281 380.503906 339.464844 C 384.613281 343.71875 388.648438 348.046875 392.703125 352.355469 C 393.398438 353.09375 394.238281 353.746094 394.554688 355.160156 Z M 385.867188 109.128906 C 381.777344 113.046875 377.710938 116.988281 373.617188 120.902344 C 358.816406 135.050781 345.1875 150.355469 330.644531 164.761719 C 327.953125 167.429688 325.457031 170.308594 323.210938 173.382812 C 322.84375 173.882812 322.304688 174.507812 322.886719 175.105469 C 323.574219 175.820312 324.238281 175.179688 324.722656 174.730469 C 326.089844 173.464844 327.496094 172.214844 328.683594 170.785156 C 342.582031 154.066406 359.027344 139.796875 373.640625 123.765625 C 378.1875 118.777344 383.015625 114.042969 387.289062 108.453125 C 386.4375 108.429688 386.171875 108.835938 385.867188 109.128906 Z M 270.316406 403.300781 C 270.613281 393.910156 270.996094 384.515625 271.164062 375.121094 C 271.332031 365.84375 270.789062 356.585938 270.078125 347.335938 C 269.425781 338.855469 269.6875 330.34375 269.539062 321.847656 C 269.464844 317.597656 269.285156 313.351562 269.105469 309.105469 C 269.074219 308.394531 269.292969 307.203125 268.375 307.15625 C 267.214844 307.09375 267.5 308.421875 267.40625 309.125 C 267.089844 311.558594 267.222656 314.015625 267.441406 316.453125 C 268.421875 327.367188 268.660156 338.292969 268.445312 349.253906 C 268.09375 367.023438 268.921875 384.789062 269.238281 402.558594 C 269.25 403.3125 269.175781 404.117188 269.785156 404.828125 C 270.316406 404.34375 270.300781 403.8125 270.316406 403.300781 Z M 446.808594 229.289062 C 439.488281 228.863281 432.164062 228.695312 424.832031 228.703125 C 410.171875 228.722656 395.546875 229.851562 380.890625 229.984375 C 370.40625 230.082031 359.9375 229.613281 349.464844 229.214844 C 348.316406 229.167969 347.148438 229.03125 346.046875 229.558594 C 345.6875 229.734375 345.34375 229.929688 345.371094 230.386719 C 345.398438 230.847656 345.769531 231.03125 346.152344 231.109375 C 346.652344 231.214844 347.167969 231.296875 347.679688 231.308594 C 353.714844 231.441406 359.753906 231.632812 365.789062 231.660156 C 375.757812 231.703125 385.710938 231.210938 395.671875 230.90625 C 406.84375 230.570312 418.027344 230.667969 429.207031 230.53125 C 435.695312 230.449219 442.191406 230.621094 448.902344 229.902344 C 448.09375 229.304688 447.441406 229.324219 446.808594 229.289062 Z M 327.261719 376.851562 C 320.007812 357.574219 312.785156 338.285156 305.453125 319.039062 C 303.484375 313.871094 301.175781 308.828125 298.992188 303.742188 C 298.679688 303.015625 298.351562 301.925781 297.273438 302.351562 C 296.246094 302.757812 296.886719 303.6875 297.089844 304.371094 C 297.871094 306.960938 298.695312 309.53125 299.753906 312.027344 C 308.355469 332.292969 316.363281 352.796875 324.492188 373.253906 C 325.53125 375.863281 326.683594 378.425781 328.238281 380.777344 C 328.3125 379.328125 327.730469 378.101562 327.261719 376.851562 Z M 269.1875 64.800781 C 268.867188 76.066406 268.414062 87.324219 268.113281 98.585938 C 267.726562 113.195312 268.023438 127.820312 266.863281 142.40625 C 266.628906 145.359375 266.734375 148.335938 267.289062 151.265625 C 267.421875 151.976562 267.453125 153.023438 268.472656 152.980469 C 269.492188 152.941406 269.511719 151.898438 269.496094 151.183594 C 269.402344 146.546875 269.839844 141.914062 269.550781 137.277344 C 269.101562 130.136719 268.929688 122.976562 269.402344 115.851562 C 270.386719 100.925781 270.644531 85.996094 270.230469 71.054688 C 270.164062 68.605469 270.175781 66.105469 269.300781 63.707031 C 269.261719 64.070312 269.199219 64.4375 269.1875 64.800781 Z M 408.699219 167.574219 C 397.226562 172.945312 385.519531 177.78125 373.84375 182.679688 C 363.710938 186.933594 353.484375 190.960938 343.308594 195.125 C 342.007812 195.65625 340.777344 196.375 339.527344 197.035156 C 339.058594 197.28125 338.613281 197.632812 338.820312 198.246094 C 339.046875 198.90625 339.632812 199.039062 340.246094 198.910156 C 340.746094 198.808594 341.242188 198.644531 341.710938 198.441406 C 344.183594 197.359375 346.679688 196.320312 349.109375 195.144531 C 361.550781 189.109375 374.257812 183.710938 387.265625 179 C 395.003906 176.195312 402.664062 173.179688 409.714844 168.832031 C 410.566406 168.304688 411.539062 167.867188 412.019531 166.738281 C 410.722656 166.492188 409.710938 167.101562 408.699219 167.574219 Z M 323.246094 87.902344 C 318.988281 99.503906 314.800781 111.132812 310.484375 122.710938 C 306.886719 132.363281 302.40625 141.652344 298.511719 151.1875 C 297.757812 153.039062 297.105469 154.921875 296.644531 156.867188 C 296.507812 157.453125 296.511719 158.09375 297.175781 158.359375 C 297.949219 158.667969 298.371094 158.148438 298.65625 157.515625 C 298.816406 157.164062 298.933594 156.796875 299.054688 156.429688 C 302.832031 144.996094 307.183594 133.785156 311.875 122.691406 C 317.316406 109.828125 322.5625 96.878906 326.429688 83.425781 C 326.710938 82.449219 327.15625 81.496094 326.835938 79.941406 C 325.152344 82.746094 324.191406 85.324219 323.246094 87.902344 Z M 416.136719 288.382812 C 412.054688 286.476562 407.832031 284.921875 403.613281 283.367188 C 390.53125 278.546875 377.414062 273.816406 364.34375 268.964844 C 356.753906 266.148438 349.238281 263.136719 341.660156 260.292969 C 340.78125 259.964844 339.316406 259.050781 338.835938 260.582031 C 338.386719 262.007812 339.976562 262.21875 340.945312 262.542969 C 346.246094 264.3125 351.628906 265.859375 356.875 267.78125 C 373.527344 273.871094 390.128906 280.113281 406.765625 286.246094 C 410.480469 287.613281 414.160156 289.132812 418.25 289.960938 C 417.710938 288.941406 416.871094 288.726562 416.136719 288.382812 Z M 371.269531 305.929688 C 362.691406 299.464844 353.648438 293.636719 345.316406 286.839844 C 341.273438 283.542969 336.953125 280.625 332.726562 277.582031 C 331.871094 276.96875 330.675781 275.675781 329.730469 276.894531 C 328.726562 278.191406 330.371094 278.882812 331.191406 279.53125 C 332.753906 280.765625 334.398438 281.910156 336.078125 282.976562 C 341.777344 286.597656 347.53125 290.164062 352.777344 294.429688 C 359.425781 299.832031 366.398438 304.777344 373.414062 309.667969 C 375.015625 310.78125 376.601562 312.03125 378.695312 312.308594 C 376.519531 309.804688 373.867188 307.886719 371.269531 305.929688 Z M 283.53125 98.113281 C 281.964844 113.601562 280.332031 129.074219 277.78125 144.4375 C 277.382812 146.832031 276.792969 149.246094 277.03125 151.707031 C 277.097656 152.40625 277.101562 153.457031 278.183594 153.398438 C 279.078125 153.351562 279.113281 152.4375 279.210938 151.761719 C 279.648438 148.703125 280.164062 145.652344 280.441406 142.582031 C 281.453125 131.371094 282.96875 120.222656 284.246094 109.042969 C 284.878906 103.46875 284.652344 97.914062 284.234375 92.355469 C 283.976562 94.292969 283.726562 96.203125 283.53125 98.113281 Z M 356.332031 340.417969 C 356.046875 339.996094 355.796875 339.550781 355.480469 339.152344 C 350.472656 332.855469 345.476562 326.546875 340.4375 320.277344 C 337.375 316.460938 334.183594 312.753906 331.152344 308.914062 C 327.601562 304.417969 324.179688 299.820312 320.667969 295.292969 C 319.601562 293.921875 318.421875 292.636719 317.023438 291.582031 C 316.542969 291.222656 316.027344 290.882812 315.472656 291.40625 C 314.941406 291.910156 315.179688 292.476562 315.492188 292.988281 C 315.691406 293.316406 315.9375 293.621094 316.191406 293.90625 C 318.285156 296.265625 320.441406 298.570312 322.472656 300.984375 C 327.398438 306.847656 332.488281 312.59375 337.101562 318.699219 C 342 325.179688 347.132812 331.4375 352.589844 337.445312 C 353.660156 338.621094 354.605469 339.910156 355.609375 341.148438 C 355.851562 340.90625 356.089844 340.664062 356.332031 340.417969 Z M 347.800781 121.617188 C 336.933594 135.808594 327.183594 150.816406 316.125 164.863281 C 315.65625 165.460938 315.316406 166.175781 314.996094 166.871094 C 314.746094 167.402344 314.59375 168.050781 315.25 168.402344 C 315.945312 168.773438 316.289062 168.179688 316.617188 167.703125 C 317.902344 165.855469 319.203125 164.019531 320.457031 162.152344 C 327.417969 151.792969 335.453125 142.214844 342.382812 131.832031 C 344.863281 128.113281 347.652344 124.582031 349.476562 120.105469 C 348.480469 120.519531 348.183594 121.117188 347.800781 121.617188 Z M 368.167969 146.238281 C 359.695312 152.730469 352.039062 160.195312 343.722656 166.878906 C 339.015625 170.664062 334.359375 174.519531 329.75 178.421875 C 329.019531 179.039062 327.554688 179.945312 328.574219 181.03125 C 329.515625 182.035156 330.378906 180.601562 331.078125 179.996094 C 338.554688 173.507812 345.660156 166.558594 353.667969 160.726562 C 359.757812 156.296875 365.09375 151.203125 370.027344 145.09375 C 369.011719 145.296875 368.65625 145.867188 368.167969 146.238281 Z M 393.128906 245.5625 C 391.421875 245.277344 389.714844 244.886719 387.996094 244.769531 C 374.78125 243.84375 361.6875 242 348.632812 239.832031 C 347.878906 239.707031 347.097656 239.695312 346.332031 239.71875 C 345.804688 239.730469 345.28125 239.941406 345.214844 240.570312 C 345.148438 241.199219 345.605469 241.503906 346.128906 241.628906 C 347.375 241.929688 348.625 242.28125 349.890625 242.429688 C 362.140625 243.835938 374.394531 245.230469 386.6875 246.199219 C 388.945312 246.378906 391.222656 246.375 393.734375 246.050781 C 393.386719 245.761719 393.273438 245.585938 393.128906 245.5625 Z M 388.375 210.945312 C 382.253906 211.6875 376.242188 213.097656 370.152344 213.996094 C 363.234375 215.015625 356.289062 215.859375 349.355469 216.800781 C 348.402344 216.929688 347.453125 217.109375 346.527344 217.371094 C 345.8125 217.570312 344.851562 217.742188 344.976562 218.761719 C 345.105469 219.820312 346.070312 219.667969 346.820312 219.644531 C 347.457031 219.621094 348.09375 219.507812 348.722656 219.394531 C 359.46875 217.507812 370.214844 215.648438 380.949219 213.699219 C 383.996094 213.144531 387.121094 212.773438 390.140625 211.265625 C 389.375 210.65625 388.863281 210.886719 388.375 210.945312 Z M 321.628906 129.671875 C 319.445312 133.824219 317.28125 137.992188 315.265625 142.226562 C 312.605469 147.8125 308.804688 152.75 306.269531 158.398438 C 305.847656 159.332031 305.34375 160.25 305.355469 161.316406 C 305.359375 161.769531 305.390625 162.257812 305.925781 162.421875 C 306.414062 162.566406 306.820312 162.351562 307.082031 161.9375 C 307.730469 160.90625 308.429688 159.894531 308.976562 158.808594 C 313.679688 149.445312 318.367188 140.074219 323.003906 130.679688 C 323.609375 129.460938 324.335938 128.207031 324.242188 126.597656 C 322.71875 127.195312 322.226562 128.53125 321.628906 129.671875 Z M 378.613281 259.085938 C 374.527344 257.953125 370.480469 256.644531 366.339844 255.777344 C 359.480469 254.34375 352.875 251.855469 345.894531 250.980469 C 344.785156 250.84375 343.042969 250.0625 342.691406 251.578125 C 342.28125 253.355469 344.28125 253.394531 345.398438 253.523438 C 353.929688 254.503906 362.109375 257.070312 370.445312 258.929688 C 373.660156 259.644531 376.933594 259.9375 380.316406 259.757812 C 379.75 259.53125 379.199219 259.246094 378.613281 259.085938 Z M 284.585938 363.132812 C 284.273438 360.261719 284.074219 357.375 283.628906 354.523438 C 282.003906 344.152344 280.75 333.742188 279.9375 323.273438 C 279.570312 318.527344 279.238281 313.761719 278.222656 309.09375 C 278.050781 308.3125 277.988281 307.0625 277 307.1875 C 275.800781 307.339844 276.402344 308.5625 276.496094 309.277344 C 277.246094 315.089844 278.175781 320.878906 278.839844 326.695312 C 279.972656 336.671875 281.179688 346.640625 282.734375 356.558594 C 283.085938 358.796875 283.707031 360.996094 284.203125 363.210938 C 284.332031 363.183594 284.457031 363.160156 284.585938 363.132812 Z M 368.496094 285.121094 C 362.550781 281.675781 356.246094 278.898438 350.351562 275.339844 C 346.730469 273.152344 342.878906 271.335938 339.125 269.363281 C 338.328125 268.945312 337.5 268.578125 336.582031 268.515625 C 336.074219 268.480469 335.492188 268.4375 335.292969 269.066406 C 335.121094 269.59375 335.53125 269.925781 335.910156 270.148438 C 337.238281 270.929688 338.558594 271.742188 339.941406 272.40625 C 347.355469 275.957031 354.828125 279.378906 361.882812 283.652344 C 364.285156 285.105469 366.746094 286.554688 369.5 287.328125 C 369.921875 287.445312 370.5 287.875 370.667969 286.917969 C 370.175781 286.0625 369.324219 285.601562 368.496094 285.121094 Z M 373.355469 195.933594 C 364.0625 198.671875 354.773438 201.417969 345.488281 204.175781 C 344.507812 204.46875 343.515625 204.773438 342.679688 205.402344 C 342.175781 205.78125 341.882812 206.285156 342.171875 206.90625 C 342.425781 207.453125 342.972656 207.539062 343.496094 207.441406 C 344.253906 207.296875 345.007812 207.125 345.738281 206.890625 C 355.039062 203.949219 364.140625 200.445312 373.300781 197.105469 C 373.976562 196.859375 374.816406 196.753906 375.167969 195.890625 C 374.523438 195.433594 373.933594 195.761719 373.355469 195.933594 Z M 361.511719 171.488281 C 354.378906 176.21875 346.664062 179.976562 339.503906 184.65625 C 337.890625 185.710938 336.359375 186.890625 334.820312 188.050781 C 334.359375 188.402344 333.925781 188.933594 334.324219 189.546875 C 334.714844 190.140625 335.359375 189.996094 335.894531 189.730469 C 336.527344 189.417969 337.136719 189.054688 337.71875 188.65625 C 345.304688 183.453125 353.136719 178.636719 360.980469 173.84375 C 362.640625 172.828125 364.035156 171.546875 365.699219 169.683594 C 363.808594 170.128906 362.613281 170.753906 361.511719 171.488281 Z M 296.253906 122.382812 C 295.503906 122.1875 295.394531 123.03125 295.199219 123.503906 C 294.785156 124.515625 294.386719 125.550781 294.160156 126.613281 C 292.828125 132.851562 291.082031 138.972656 289.210938 145.070312 C 288.417969 147.648438 287.882812 150.308594 287.316406 152.953125 C 287.152344 153.722656 286.941406 154.769531 288.070312 155.046875 C 289.253906 155.34375 289.609375 154.34375 289.886719 153.484375 C 290.160156 152.628906 290.355469 151.742188 290.492188 150.851562 C 291.480469 144.480469 292.871094 138.203125 294.722656 132.027344 C 295.535156 129.316406 296.269531 126.578125 296.617188 123.644531 C 296.398438 123.300781 296.886719 122.546875 296.253906 122.382812 Z M 294.175781 337.320312 C 294.175781 336.941406 294.226562 336.550781 294.171875 336.179688 C 292.992188 328.417969 291.816406 320.65625 290.613281 312.902344 C 290.257812 310.617188 290.011719 308.292969 289.050781 306.152344 C 288.746094 305.476562 288.449219 304.488281 287.480469 304.773438 C 286.507812 305.0625 286.804688 306.054688 286.925781 306.78125 C 288.097656 313.894531 289.425781 320.976562 291.238281 327.960938 C 292.058594 331.109375 292.953125 334.242188 293.8125 337.382812 C 293.933594 337.363281 294.054688 337.34375 294.175781 337.320312 Z M 320.605469 323.828125 C 316.972656 316.523438 313.34375 309.222656 309.65625 301.945312 C 309.023438 300.695312 308.136719 299.570312 307.34375 298.402344 C 307.011719 297.910156 306.570312 297.417969 305.921875 297.726562 C 305.140625 298.101562 305.40625 298.800781 305.609375 299.410156 C 305.730469 299.773438 305.921875 300.113281 306.085938 300.460938 C 309.949219 308.675781 314.804688 316.328125 319.484375 324.078125 C 319.863281 324.707031 320.214844 325.445312 321.09375 325.632812 C 321.332031 324.90625 320.875 324.375 320.605469 323.828125 Z M 298.4375 111.9375 C 297.207031 111.925781 296.570312 112.699219 296.539062 113.890625 C 296.511719 114.9375 297.046875 115.628906 298.140625 115.625 C 299.378906 115.621094 299.914062 114.796875 300.113281 113.714844 C 300.027344 112.628906 299.488281 111.949219 298.4375 111.9375 Z M 329.714844 120 C 329.683594 118.96875 329.035156 118.289062 327.988281 118.324219 C 326.875 118.363281 326.21875 119.078125 326.222656 120.210938 C 326.226562 121.296875 326.910156 121.796875 328 121.886719 C 329.070312 121.753906 329.746094 121.132812 329.714844 120 Z M 390.011719 262.226562 C 389.996094 261.207031 389.214844 260.625 388.253906 260.546875 C 387.15625 260.453125 386.359375 261.011719 386.328125 262.164062 C 386.300781 263.222656 387.027344 263.726562 388.105469 263.839844 C 389.039062 263.710938 390.027344 263.449219 390.011719 262.226562 Z M 300.160156 355.449219 C 300.082031 354.363281 299.519531 353.601562 298.363281 353.640625 C 297.273438 353.675781 296.800781 354.433594 296.859375 355.457031 C 296.921875 356.546875 297.5 357.222656 298.71875 357.292969 C 299.703125 357.121094 300.234375 356.492188 300.160156 355.449219 Z M 399.753906 265.371094 C 399.671875 264.1875 398.863281 263.558594 397.695312 263.570312 C 396.722656 263.578125 396.152344 264.199219 396.167969 265.15625 C 396.191406 266.359375 397.039062 266.738281 398.210938 266.804688 C 398.980469 266.695312 399.832031 266.441406 399.753906 265.371094 Z M 325.21875 333.925781 C 326.199219 333.921875 326.753906 333.300781 326.734375 332.324219 C 326.714844 331.296875 326.171875 330.570312 325.089844 330.625 C 324.121094 330.675781 323.695312 331.398438 323.632812 332.339844 C 323.765625 333.269531 324.238281 333.933594 325.21875 333.925781 Z M 389.742188 190.15625 C 388.792969 190.136719 388.113281 190.621094 388.039062 191.597656 C 387.960938 192.644531 388.539062 193.304688 389.601562 193.386719 C 390.664062 193.464844 391.253906 192.875 391.460938 191.769531 C 391.324219 190.832031 390.808594 190.179688 389.742188 190.15625 Z M 371.132812 164.238281 C 370.0625 164.269531 369.492188 164.925781 369.5 165.960938 C 369.507812 166.867188 370.097656 167.378906 370.984375 167.355469 C 372.039062 167.328125 372.566406 166.675781 372.648438 165.660156 C 372.507812 164.769531 372.042969 164.210938 371.132812 164.238281 Z M 296.140625 344.253906 C 295.257812 344.25 294.710938 344.785156 294.691406 345.6875 C 294.671875 346.65625 295.222656 347.261719 296.171875 347.328125 C 297.125 347.394531 297.476562 346.71875 297.605469 345.863281 C 297.554688 344.941406 297.152344 344.257812 296.140625 344.253906 Z M 302.042969 104.394531 C 301.976562 103.492188 301.433594 102.972656 300.523438 103.046875 C 299.605469 103.121094 299.203125 103.765625 299.210938 104.636719 C 299.222656 105.542969 299.703125 106.050781 300.621094 106.105469 C 301.601562 105.949219 302.121094 105.386719 302.042969 104.394531 Z M 330.871094 340.238281 C 330.859375 339.261719 330.304688 338.644531 329.300781 338.695312 C 328.476562 338.742188 328.050781 339.332031 328.074219 340.144531 C 328.101562 341.058594 328.65625 341.519531 329.535156 341.605469 C 330.363281 341.511719 330.882812 341.066406 330.871094 340.238281 Z M 383.429688 193.78125 C 383.390625 192.882812 382.824219 192.382812 381.925781 192.402344 C 381.097656 192.417969 380.625 192.917969 380.617188 193.738281 C 380.609375 194.640625 381.125 195.132812 382.101562 195.265625 C 382.871094 195.128906 383.46875 194.703125 383.429688 193.78125 Z M 377.769531 289.699219 C 377.761719 288.890625 377.34375 288.351562 376.496094 288.292969 C 375.652344 288.238281 375.117188 288.695312 375.0625 289.511719 C 375.007812 290.421875 375.578125 290.90625 376.507812 291.066406 C 377.257812 290.957031 377.777344 290.550781 377.769531 289.699219 Z M 377.769531 289.699219 " fill-opacity="1" fill-rule="nonzero"/></g><g fill="#a6a6a6" fill-opacity="1"><g transform="translate(259.970674, 324.175902)"><g/></g></g></svg>